solid Soportes endstop XY
facet normal 1.0 0.0 0.0
  outer loop
    vertex 20.0 16.499999999999996 -1.9999999999999998
    vertex 20.0 3.5000000000000004 6.0
    vertex 20.0 3.5000000000000004 -1.9999999999999998
  endloop
endfacet
facet normal 1.0 0.0 0.0
  outer loop
    vertex 20.0 3.5000000000000004 6.0
    vertex 20.0 16.499999999999996 -1.9999999999999998
    vertex 20.0 16.499999999999996 6.0
  endloop
endfacet
facet normal 0.0 0.0 -1.0
  outer loop
    vertex 20.0 16.499999999999996 -1.9999999999999998
    vertex 12.999999999999998 3.5000000000000004 -1.9999999999999998
    vertex 12.999999999999998 16.499999999999996 -1.9999999999999998
  endloop
endfacet
facet normal 0.0 0.0 -1.0
  outer loop
    vertex 12.999999999999998 3.5000000000000004 -1.9999999999999998
    vertex 20.0 16.499999999999996 -1.9999999999999998
    vertex 20.0 3.5000000000000004 -1.9999999999999998
  endloop
endfacet
facet normal 1.0 0.0 -0.0
  outer loop
    vertex 12.999999999999998 16.499999999999996 -7.999999999999999
    vertex 12.999999999999998 15.499999999999996 -3.0
    vertex 12.999999999999998 15.499999999999996 -7.999999999999999
  endloop
endfacet
facet normal 1.0 0.0 -0.0
  outer loop
    vertex 12.999999999999998 15.499999999999996 -3.0
    vertex 12.999999999999998 16.499999999999996 -7.999999999999999
    vertex 12.999999999999998 16.499999999999996 -3.0
  endloop
endfacet
facet normal 0.0 -1.0 0.0
  outer loop
    vertex 12.999999999999998 15.499999999999996 -3.0
    vertex 11.499999999999998 15.499999999999996 -7.999999999999999
    vertex 12.999999999999998 15.499999999999996 -7.999999999999999
  endloop
endfacet
facet normal 0.0 -1.0 0.0
  outer loop
    vertex 11.499999999999998 15.499999999999996 -7.999999999999999
    vertex 12.999999999999998 15.499999999999996 -3.0
    vertex 11.499999999999998 15.499999999999996 -3.0
  endloop
endfacet
facet normal 1.0 0.0 0.0
  outer loop
    vertex 12.999999999999998 4.5 -7.999999999999999
    vertex 12.999999999999998 3.5000000000000004 -3.0
    vertex 12.999999999999998 3.5000000000000004 -7.999999999999999
  endloop
endfacet
facet normal 1.0 0.0 0.0
  outer loop
    vertex 12.999999999999998 3.5000000000000004 -3.0
    vertex 12.999999999999998 4.5 -7.999999999999999
    vertex 12.999999999999998 4.5 -3.0
  endloop
endfacet
facet normal 0.0 1.0 0.0
  outer loop
    vertex 11.499999999999998 4.5 -3.0
    vertex 12.999999999999998 4.5 -7.999999999999999
    vertex 11.499999999999998 4.5 -7.999999999999999
  endloop
endfacet
facet normal 0.0 1.0 0.0
  outer loop
    vertex 12.999999999999998 4.5 -7.999999999999999
    vertex 11.499999999999998 4.5 -3.0
    vertex 12.999999999999998 4.5 -3.0
  endloop
endfacet
facet normal -1.0 0.0 0.0
  outer loop
    vertex 11.499999999999998 20.0 6.0
    vertex 11.499999999999998 16.499999999999996 -3.0
    vertex 11.499999999999998 16.499999999999996 5.999999999999999
  endloop
endfacet
facet normal -1.0 0.0 0.0
  outer loop
    vertex 11.499999999999998 16.499999999999996 -3.0
    vertex 11.499999999999998 15.499999999999996 -7.999999999999999
    vertex 11.499999999999998 15.499999999999996 -3.0
  endloop
endfacet
facet normal -1.0 0.0 0.0
  outer loop
    vertex 11.499999999999998 15.499999999999996 -7.999999999999999
    vertex 11.499999999999998 16.499999999999996 -3.0
    vertex 11.499999999999998 20.0 -7.999999999999999
  endloop
endfacet
facet normal -1.0 0.0 0.0
  outer loop
    vertex 11.499999999999998 20.0 -7.999999999999999
    vertex 11.499999999999998 16.499999999999996 -3.0
    vertex 11.499999999999998 20.0 6.0
  endloop
endfacet
facet normal -1.0 0.0 0.0
  outer loop
    vertex 11.499999999999998 3.5000000000000004 5.999999999999997
    vertex 11.499999999999998 0.0 -7.999999999999999
    vertex 11.499999999999998 -2.496989984644518e-16 6.0
  endloop
endfacet
facet normal -1.0 0.0 0.0
  outer loop
    vertex 11.499999999999998 0.0 -7.999999999999999
    vertex 11.499999999999998 3.5000000000000004 5.999999999999997
    vertex 11.499999999999998 3.5000000000000004 -3.0
  endloop
endfacet
facet normal -1.0 0.0 0.0
  outer loop
    vertex 11.499999999999998 0.0 -7.999999999999999
    vertex 11.499999999999998 3.5000000000000004 -3.0
    vertex 11.499999999999998 4.5 -7.999999999999999
  endloop
endfacet
facet normal -1.0 0.0 0.0
  outer loop
    vertex 11.499999999999998 4.5 -7.999999999999999
    vertex 11.499999999999998 3.5000000000000004 -3.0
    vertex 11.499999999999998 4.5 -3.0
  endloop
endfacet
facet normal -0.0003236112798606179 -0.9999999404363005 0.00012001306144820066
  outer loop
    vertex 17.474838361465157 -1.2371217224282326e-16 6.000000000000002
    vertex 17.403339318958096 -0.008957508363013508 -7.999999999999999
    vertex 17.474838361465157 0.0 -7.999999999999999
  endloop
endfacet
facet normal -0.0003236112798606179 -0.9999999404363005 0.00012001306144820066
  outer loop
    vertex 17.403339318958096 -0.008957508363013508 -7.999999999999999
    vertex 17.474838361465157 -1.2371217224282326e-16 6.000000000000002
    vertex 17.0 0.0 -7.999999999999999
  endloop
endfacet
facet normal -0.0003236112798606179 -0.9999999404363005 0.00012001306144820066
  outer loop
    vertex 17.0 0.0 -7.999999999999999
    vertex 17.474838361465157 -1.2371217224282326e-16 6.000000000000002
    vertex 11.499999999999998 0.0 -7.999999999999999
  endloop
endfacet
facet normal -0.0003236112798606179 -0.9999999404363005 0.00012001306144820066
  outer loop
    vertex 11.499999999999998 0.0 -7.999999999999999
    vertex 17.474838361465157 -1.2371217224282326e-16 6.000000000000002
    vertex 11.499999999999998 -2.496989984644518e-16 6.0
  endloop
endfacet
facet normal 0.0 0.0 -1.0
  outer loop
    vertex 12.999999999999998 4.5 -7.999999999999999
    vertex 11.499999999999998 0.0 -7.999999999999999
    vertex 11.499999999999998 4.5 -7.999999999999999
  endloop
endfacet
facet normal 0.0 0.0 -1.0
  outer loop
    vertex 11.499999999999998 0.0 -7.999999999999999
    vertex 12.999999999999998 4.5 -7.999999999999999
    vertex 12.999999999999998 3.5000000000000004 -7.999999999999999
  endloop
endfacet
facet normal 0.0 0.0 -1.0
  outer loop
    vertex 11.499999999999998 0.0 -7.999999999999999
    vertex 12.999999999999998 3.5000000000000004 -7.999999999999999
    vertex 17.0 0.0 -7.999999999999999
  endloop
endfacet
facet normal 0.0 0.0 -1.0
  outer loop
    vertex 17.0 0.0 -7.999999999999999
    vertex 12.999999999999998 3.5000000000000004 -7.999999999999999
    vertex 20.0 3.5000000000000004 -7.999999999999999
  endloop
endfacet
facet normal 0.0 0.0 -1.0
  outer loop
    vertex 17.0 0.0 -7.999999999999999
    vertex 20.0 3.5000000000000004 -7.999999999999999
    vertex 17.403339318958096 -0.008957508363013508 -7.999999999999999
  endloop
endfacet
facet normal 0.0 0.0 -1.0
  outer loop
    vertex 17.403339318958096 -0.008957508363013508 -7.999999999999999
    vertex 20.0 3.5000000000000004 -7.999999999999999
    vertex 17.474838361465157 0.0 -7.999999999999999
  endloop
endfacet
facet normal 0.0 0.0 -1.0
  outer loop
    vertex 17.474838361465157 0.0 -7.999999999999999
    vertex 20.0 3.5000000000000004 -7.999999999999999
    vertex 17.80364880224147 0.041193870153003555 -7.999999999999999
  endloop
endfacet
facet normal 0.0 0.0 -1.0
  outer loop
    vertex 17.80364880224147 0.041193870153003555 -7.999999999999999
    vertex 20.0 3.5000000000000004 -7.999999999999999
    vertex 18.19231284526848 0.14937475955382232 -7.999999999999999
  endloop
endfacet
facet normal 0.0 0.0 -1.0
  outer loop
    vertex 18.19231284526848 0.14937475955382232 -7.999999999999999
    vertex 20.0 3.5000000000000004 -7.999999999999999
    vertex 18.560966480808396 0.3132568518545269 -7.999999999999999
  endloop
endfacet
facet normal 0.0 0.0 -1.0
  outer loop
    vertex 18.560966480808396 0.3132568518545269 -7.999999999999999
    vertex 20.0 3.5000000000000004 -7.999999999999999
    vertex 18.90167541281272 0.5293130177608222 -7.999999999999999
  endloop
endfacet
facet normal 0.0 0.0 -1.0
  outer loop
    vertex 18.90167541281272 0.5293130177608222 -7.999999999999999
    vertex 20.0 3.5000000000000004 -7.999999999999999
    vertex 19.20710678118655 0.7928932188134532 -7.999999999999999
  endloop
endfacet
facet normal 0.0 0.0 -1.0
  outer loop
    vertex 19.20710678118655 0.7928932188134532 -7.999999999999999
    vertex 20.0 3.5000000000000004 -7.999999999999999
    vertex 19.47068698223918 1.0983245871872818 -7.999999999999999
  endloop
endfacet
facet normal 0.0 0.0 -1.0
  outer loop
    vertex 19.47068698223918 1.0983245871872818 -7.999999999999999
    vertex 20.0 3.5000000000000004 -7.999999999999999
    vertex 19.686743148145474 1.4390335191916048 -7.999999999999999
  endloop
endfacet
facet normal 0.0 0.0 -1.0
  outer loop
    vertex 19.686743148145474 1.4390335191916048 -7.999999999999999
    vertex 20.0 3.5000000000000004 -7.999999999999999
    vertex 19.850625240446178 1.8076871547315223 -7.999999999999999
  endloop
endfacet
facet normal 0.0 0.0 -1.0
  outer loop
    vertex 19.850625240446178 1.8076871547315223 -7.999999999999999
    vertex 20.0 3.5000000000000004 -7.999999999999999
    vertex 19.958806129846995 2.196351197758534 -7.999999999999999
  endloop
endfacet
facet normal 0.0 0.0 -1.0
  outer loop
    vertex 19.958806129846995 2.196351197758534 -7.999999999999999
    vertex 20.0 3.5000000000000004 -7.999999999999999
    vertex 20.0 2.5251616385348368 -7.999999999999999
  endloop
endfacet
facet normal 0.0 0.0 -1.0
  outer loop
    vertex 20.0 2.5251616385348368 -7.999999999999999
    vertex 20.0 3.5000000000000004 -7.999999999999999
    vertex 20.0 3.0 -7.999999999999999
  endloop
endfacet
facet normal 0.0 0.0 -1.0
  outer loop
    vertex 20.0 2.5251616385348368 -7.999999999999999
    vertex 20.0 3.0 -7.999999999999999
    vertex 20.008957508363014 2.5966606810419033 -7.999999999999999
  endloop
endfacet
facet normal 0.9999967621286874 -0.002541373182357014 0.00013097514835364653
  outer loop
    vertex 20.0 17.0 -7.999999999999999
    vertex 20.0 16.499999999999996 -1.9999999999999998
    vertex 20.0 16.499999999999996 -7.999999999999999
  endloop
endfacet
facet normal 0.9999967621286874 -0.002541373182357014 0.00013097514835364653
  outer loop
    vertex 20.0 16.499999999999996 -1.9999999999999998
    vertex 20.0 17.0 -7.999999999999999
    vertex 20.0 16.499999999999996 6.0
  endloop
endfacet
facet normal 0.9999967621286874 -0.002541373182357014 0.00013097514835364653
  outer loop
    vertex 20.0 16.499999999999996 6.0
    vertex 20.0 17.0 -7.999999999999999
    vertex 20.0 17.474838361465164 5.99999999999999
  endloop
endfacet
facet normal 0.9999967621286874 -0.002541373182357014 0.00013097514835364653
  outer loop
    vertex 20.0 17.474838361465164 5.99999999999999
    vertex 20.0 17.0 -7.999999999999999
    vertex 20.008957508363014 17.403339318958096 -7.999999999999999
  endloop
endfacet
facet normal 0.9999967621286874 -0.002541373182357014 0.00013097514835364653
  outer loop
    vertex 20.0 17.474838361465164 5.99999999999999
    vertex 20.008957508363014 17.403339318958096 -7.999999999999999
    vertex 20.0 17.474838361465164 -7.999999999999999
  endloop
endfacet
facet normal -0.0 -1.0 -0.0
  outer loop
    vertex 20.0 16.499999999999996 -1.9999999999999998
    vertex 12.999999999999998 16.499999999999996 -7.999999999999999
    vertex 20.0 16.499999999999996 -7.999999999999999
  endloop
endfacet
facet normal -0.0 -1.0 -0.0
  outer loop
    vertex 12.999999999999998 16.499999999999996 -7.999999999999999
    vertex 20.0 16.499999999999996 -1.9999999999999998
    vertex 12.999999999999998 16.499999999999996 -3.0
  endloop
endfacet
facet normal -0.0 -1.0 -0.0
  outer loop
    vertex 12.999999999999998 16.499999999999996 -3.0
    vertex 20.0 16.499999999999996 -1.9999999999999998
    vertex 12.999999999999998 16.499999999999996 -1.9999999999999998
  endloop
endfacet
facet normal 1.0 0.0 0.0
  outer loop
    vertex 12.999999999999998 4.5 -3.0
    vertex 12.999999999999998 3.5000000000000004 -1.9999999999999998
    vertex 12.999999999999998 3.5000000000000004 -3.0
  endloop
endfacet
facet normal 1.0 0.0 0.0
  outer loop
    vertex 12.999999999999998 3.5000000000000004 -1.9999999999999998
    vertex 12.999999999999998 4.5 -3.0
    vertex 12.999999999999998 16.499999999999996 -1.9999999999999998
  endloop
endfacet
facet normal 1.0 0.0 0.0
  outer loop
    vertex 12.999999999999998 16.499999999999996 -1.9999999999999998
    vertex 12.999999999999998 4.5 -3.0
    vertex 12.999999999999998 15.499999999999996 -3.0
  endloop
endfacet
facet normal 1.0 0.0 0.0
  outer loop
    vertex 12.999999999999998 16.499999999999996 -1.9999999999999998
    vertex 12.999999999999998 15.499999999999996 -3.0
    vertex 12.999999999999998 16.499999999999996 -3.0
  endloop
endfacet
facet normal -0.0 1.0 0.0
  outer loop
    vertex 12.999999999999998 3.5000000000000004 -3.0
    vertex 20.0 3.5000000000000004 -7.999999999999999
    vertex 12.999999999999998 3.5000000000000004 -7.999999999999999
  endloop
endfacet
facet normal -0.0 1.0 0.0
  outer loop
    vertex 20.0 3.5000000000000004 -7.999999999999999
    vertex 12.999999999999998 3.5000000000000004 -3.0
    vertex 20.0 3.5000000000000004 -1.9999999999999998
  endloop
endfacet
facet normal -0.0 1.0 0.0
  outer loop
    vertex 20.0 3.5000000000000004 -1.9999999999999998
    vertex 12.999999999999998 3.5000000000000004 -3.0
    vertex 12.999999999999998 3.5000000000000004 -1.9999999999999998
  endloop
endfacet
facet normal 0.9999967621286874 0.002541373182357017 0.00013097514835364656
  outer loop
    vertex 20.008957508363014 2.5966606810419033 -7.999999999999999
    vertex 20.0 2.5251616385348368 6.000000000000002
    vertex 20.0 2.5251616385348368 -7.999999999999999
  endloop
endfacet
facet normal 0.9999967621286874 0.002541373182357017 0.00013097514835364656
  outer loop
    vertex 20.0 2.5251616385348368 6.000000000000002
    vertex 20.008957508363014 2.5966606810419033 -7.999999999999999
    vertex 20.0 3.5000000000000004 6.0
  endloop
endfacet
facet normal 0.9999967621286874 0.002541373182357017 0.00013097514835364656
  outer loop
    vertex 20.0 3.5000000000000004 6.0
    vertex 20.008957508363014 2.5966606810419033 -7.999999999999999
    vertex 20.0 3.0 -7.999999999999999
  endloop
endfacet
facet normal 0.9999967621286874 0.002541373182357017 0.00013097514835364656
  outer loop
    vertex 20.0 3.5000000000000004 6.0
    vertex 20.0 3.0 -7.999999999999999
    vertex 20.0 3.5000000000000004 -7.999999999999999
  endloop
endfacet
facet normal 0.9999967621286874 0.002541373182357017 0.00013097514835364656
  outer loop
    vertex 20.0 3.5000000000000004 6.0
    vertex 20.0 3.5000000000000004 -7.999999999999999
    vertex 20.0 3.5000000000000004 -1.9999999999999998
  endloop
endfacet
facet normal -0.00032361127986066385 0.9999999404363005 0.00012001306144821837
  outer loop
    vertex 11.499999999999998 20.0 6.0
    vertex 17.0 20.0 -7.999999999999999
    vertex 11.499999999999998 20.0 -7.999999999999999
  endloop
endfacet
facet normal -0.00032361127986066385 0.9999999404363005 0.00012001306144821837
  outer loop
    vertex 17.0 20.0 -7.999999999999999
    vertex 11.499999999999998 20.0 6.0
    vertex 17.403339318958096 20.008957508363014 -7.999999999999999
  endloop
endfacet
facet normal -0.00032361127986066385 0.9999999404363005 0.00012001306144821837
  outer loop
    vertex 17.403339318958096 20.008957508363014 -7.999999999999999
    vertex 11.499999999999998 20.0 6.0
    vertex 17.474838361465164 20.0 -7.999999999999999
  endloop
endfacet
facet normal -0.00032361127986066385 0.9999999404363005 0.00012001306144821837
  outer loop
    vertex 17.474838361465164 20.0 -7.999999999999999
    vertex 11.499999999999998 20.0 6.0
    vertex 17.474838361465164 20.0 5.99999999999999
  endloop
endfacet
facet normal 0.7570699426455145 -0.6533338365205933 -0.0
  outer loop
    vertex 19.20710678118655 0.7928932188134532 -7.999999999999999
    vertex 19.47068698223918 1.0983245871872818 6.000000000000002
    vertex 19.20710678118655 0.7928932188134532 6.000000000000002
  endloop
endfacet
facet normal 0.7570699426455145 -0.6533338365205933 -0.0
  outer loop
    vertex 19.47068698223918 1.0983245871872818 6.000000000000002
    vertex 19.20710678118655 0.7928932188134532 -7.999999999999999
    vertex 19.47068698223918 1.0983245871872818 -7.999999999999999
  endloop
endfacet
facet normal 0.6533338365205934 -0.7570699426455144 -0.0
  outer loop
    vertex 19.20710678118655 0.7928932188134532 6.000000000000002
    vertex 18.90167541281272 0.5293130177608222 -7.999999999999999
    vertex 19.20710678118655 0.7928932188134532 -7.999999999999999
  endloop
endfacet
facet normal 0.6533338365205934 -0.7570699426455144 -0.0
  outer loop
    vertex 18.90167541281272 0.5293130177608222 -7.999999999999999
    vertex 19.20710678118655 0.7928932188134532 6.000000000000002
    vertex 18.90167541281272 0.5293130177608221 6.000000000000002
  endloop
endfacet
facet normal 0.9922434593517794 0.12430976379035534 -0.0
  outer loop
    vertex 19.958806129846995 17.80364880224147 -7.999999999999999
    vertex 20.0 17.474838361465164 5.99999999999999
    vertex 20.0 17.474838361465164 -7.999999999999999
  endloop
endfacet
facet normal 0.9922434593517794 0.12430976379035534 -0.0
  outer loop
    vertex 20.0 17.474838361465164 5.99999999999999
    vertex 19.958806129846995 17.80364880224147 -7.999999999999999
    vertex 19.958806129846995 17.80364880224147 5.99999999999999
  endloop
endfacet
facet normal 0.9137783987290681 -0.4062130451082789 -0.0
  outer loop
    vertex 19.686743148145474 1.4390335191916048 -7.999999999999999
    vertex 19.850625240446178 1.8076871547315223 6.000000000000002
    vertex 19.686743148145474 1.4390335191916048 6.000000000000002
  endloop
endfacet
facet normal 0.9137783987290681 -0.4062130451082789 -0.0
  outer loop
    vertex 19.850625240446178 1.8076871547315223 6.000000000000002
    vertex 19.686743148145474 1.4390335191916048 -7.999999999999999
    vertex 19.850625240446178 1.8076871547315223 -7.999999999999999
  endloop
endfacet
facet normal 0.844512117352743 -0.5355364447396526 -0.0
  outer loop
    vertex 19.47068698223918 1.0983245871872818 -7.999999999999999
    vertex 19.686743148145474 1.4390335191916048 6.000000000000002
    vertex 19.47068698223918 1.0983245871872818 6.000000000000002
  endloop
endfacet
facet normal 0.844512117352743 -0.5355364447396526 -0.0
  outer loop
    vertex 19.686743148145474 1.4390335191916048 6.000000000000002
    vertex 19.47068698223918 1.0983245871872818 -7.999999999999999
    vertex 19.686743148145474 1.4390335191916048 -7.999999999999999
  endloop
endfacet
facet normal 0.5355364447396539 -0.8445121173527422 -0.0
  outer loop
    vertex 18.90167541281272 0.5293130177608221 6.000000000000002
    vertex 18.560966480808396 0.3132568518545269 -7.999999999999999
    vertex 18.90167541281272 0.5293130177608222 -7.999999999999999
  endloop
endfacet
facet normal 0.5355364447396539 -0.8445121173527422 -0.0
  outer loop
    vertex 18.560966480808396 0.3132568518545269 -7.999999999999999
    vertex 18.90167541281272 0.5293130177608221 6.000000000000002
    vertex 18.560966480808396 0.31325685185452673 6.000000000000002
  endloop
endfacet
facet normal 0.12430976379035114 -0.9922434593517798 0.0
  outer loop
    vertex 17.80364880224147 0.04119387015300344 6.000000000000002
    vertex 17.474838361465157 0.0 -7.999999999999999
    vertex 17.80364880224147 0.041193870153003555 -7.999999999999999
  endloop
endfacet
facet normal 0.12430976379035114 -0.9922434593517798 0.0
  outer loop
    vertex 17.474838361465157 0.0 -7.999999999999999
    vertex 17.80364880224147 0.04119387015300344 6.000000000000002
    vertex 17.474838361465157 -1.2371217224282326e-16 6.000000000000002
  endloop
endfacet
facet normal 0.9922434593517794 -0.12430976379035576 -0.0
  outer loop
    vertex 20.0 2.5251616385348368 -7.999999999999999
    vertex 19.958806129846995 2.196351197758534 6.000000000000002
    vertex 19.958806129846995 2.196351197758534 -7.999999999999999
  endloop
endfacet
facet normal 0.9922434593517794 -0.12430976379035576 -0.0
  outer loop
    vertex 19.958806129846995 2.196351197758534 6.000000000000002
    vertex 20.0 2.5251616385348368 -7.999999999999999
    vertex 20.0 2.5251616385348368 6.000000000000002
  endloop
endfacet
facet normal 0.0 0.0 -1.0
  outer loop
    vertex 20.008957508363014 17.403339318958096 -7.999999999999999
    vertex 20.0 17.0 -7.999999999999999
    vertex 20.0 17.474838361465164 -7.999999999999999
  endloop
endfacet
facet normal 0.0 0.0 -1.0
  outer loop
    vertex 17.0 20.0 -7.999999999999999
    vertex 11.499999999999998 15.499999999999996 -7.999999999999999
    vertex 11.499999999999998 20.0 -7.999999999999999
  endloop
endfacet
facet normal 0.0 0.0 -1.0
  outer loop
    vertex 11.499999999999998 15.499999999999996 -7.999999999999999
    vertex 17.0 20.0 -7.999999999999999
    vertex 12.999999999999998 16.499999999999996 -7.999999999999999
  endloop
endfacet
facet normal 0.0 0.0 -1.0
  outer loop
    vertex 12.999999999999998 16.499999999999996 -7.999999999999999
    vertex 17.0 20.0 -7.999999999999999
    vertex 20.0 16.499999999999996 -7.999999999999999
  endloop
endfacet
facet normal 0.0 0.0 -1.0
  outer loop
    vertex 20.0 16.499999999999996 -7.999999999999999
    vertex 17.0 20.0 -7.999999999999999
    vertex 17.403339318958096 20.008957508363014 -7.999999999999999
  endloop
endfacet
facet normal 0.0 0.0 -1.0
  outer loop
    vertex 20.0 16.499999999999996 -7.999999999999999
    vertex 17.403339318958096 20.008957508363014 -7.999999999999999
    vertex 17.474838361465164 20.0 -7.999999999999999
  endloop
endfacet
facet normal 0.0 0.0 -1.0
  outer loop
    vertex 20.0 16.499999999999996 -7.999999999999999
    vertex 17.474838361465164 20.0 -7.999999999999999
    vertex 17.80364880224147 19.958806129846995 -7.999999999999999
  endloop
endfacet
facet normal 0.0 0.0 -1.0
  outer loop
    vertex 20.0 16.499999999999996 -7.999999999999999
    vertex 17.80364880224147 19.958806129846995 -7.999999999999999
    vertex 18.19231284526848 19.850625240446178 -7.999999999999999
  endloop
endfacet
facet normal 0.0 0.0 -1.0
  outer loop
    vertex 20.0 16.499999999999996 -7.999999999999999
    vertex 18.19231284526848 19.850625240446178 -7.999999999999999
    vertex 18.560966480808396 19.686743148145474 -7.999999999999999
  endloop
endfacet
facet normal 0.0 0.0 -1.0
  outer loop
    vertex 20.0 16.499999999999996 -7.999999999999999
    vertex 18.560966480808396 19.686743148145474 -7.999999999999999
    vertex 18.90167541281272 19.470686982239176 -7.999999999999999
  endloop
endfacet
facet normal 0.0 0.0 -1.0
  outer loop
    vertex 20.0 16.499999999999996 -7.999999999999999
    vertex 18.90167541281272 19.470686982239176 -7.999999999999999
    vertex 19.20710678118655 19.207106781186546 -7.999999999999999
  endloop
endfacet
facet normal 0.0 0.0 -1.0
  outer loop
    vertex 20.0 16.499999999999996 -7.999999999999999
    vertex 19.20710678118655 19.207106781186546 -7.999999999999999
    vertex 19.47068698223918 18.90167541281272 -7.999999999999999
  endloop
endfacet
facet normal 0.0 0.0 -1.0
  outer loop
    vertex 20.0 16.499999999999996 -7.999999999999999
    vertex 19.47068698223918 18.90167541281272 -7.999999999999999
    vertex 19.686743148145474 18.560966480808396 -7.999999999999999
  endloop
endfacet
facet normal 0.0 0.0 -1.0
  outer loop
    vertex 20.0 16.499999999999996 -7.999999999999999
    vertex 19.686743148145474 18.560966480808396 -7.999999999999999
    vertex 19.850625240446178 18.19231284526848 -7.999999999999999
  endloop
endfacet
facet normal 0.0 0.0 -1.0
  outer loop
    vertex 20.0 16.499999999999996 -7.999999999999999
    vertex 19.850625240446178 18.19231284526848 -7.999999999999999
    vertex 19.958806129846995 17.80364880224147 -7.999999999999999
  endloop
endfacet
facet normal 0.0 0.0 -1.0
  outer loop
    vertex 20.0 16.499999999999996 -7.999999999999999
    vertex 19.958806129846995 17.80364880224147 -7.999999999999999
    vertex 20.0 17.474838361465164 -7.999999999999999
  endloop
endfacet
facet normal 0.0 0.0 -1.0
  outer loop
    vertex 20.0 16.499999999999996 -7.999999999999999
    vertex 20.0 17.474838361465164 -7.999999999999999
    vertex 20.0 17.0 -7.999999999999999
  endloop
endfacet
facet normal 0.0 0.0 -1.0
  outer loop
    vertex 12.999999999999998 15.499999999999996 -7.999999999999999
    vertex 11.499999999999998 15.499999999999996 -7.999999999999999
    vertex 12.999999999999998 16.499999999999996 -7.999999999999999
  endloop
endfacet
facet normal 0.26814698231577033 -0.9633780129704778 -0.0
  outer loop
    vertex 18.19231284526848 0.1493747595538222 6.000000000000002
    vertex 17.80364880224147 0.041193870153003555 -7.999999999999999
    vertex 18.19231284526848 0.14937475955382232 -7.999999999999999
  endloop
endfacet
facet normal 0.26814698231577033 -0.9633780129704778 -0.0
  outer loop
    vertex 17.80364880224147 0.041193870153003555 -7.999999999999999
    vertex 18.19231284526848 0.1493747595538222 6.000000000000002
    vertex 17.80364880224147 0.04119387015300344 6.000000000000002
  endloop
endfacet
facet normal 0.9633780129704782 -0.2681469823157685 -0.0
  outer loop
    vertex 19.958806129846995 2.196351197758534 -7.999999999999999
    vertex 19.850625240446178 1.8076871547315223 6.000000000000002
    vertex 19.850625240446178 1.8076871547315223 -7.999999999999999
  endloop
endfacet
facet normal 0.9633780129704782 -0.2681469823157685 -0.0
  outer loop
    vertex 19.850625240446178 1.8076871547315223 6.000000000000002
    vertex 19.958806129846995 2.196351197758534 -7.999999999999999
    vertex 19.958806129846995 2.196351197758534 6.000000000000002
  endloop
endfacet
facet normal 0.40621304510827905 -0.9137783987290679 -0.0
  outer loop
    vertex 18.560966480808396 0.31325685185452673 6.000000000000002
    vertex 18.19231284526848 0.14937475955382232 -7.999999999999999
    vertex 18.560966480808396 0.3132568518545269 -7.999999999999999
  endloop
endfacet
facet normal 0.40621304510827905 -0.9137783987290679 -0.0
  outer loop
    vertex 18.19231284526848 0.14937475955382232 -7.999999999999999
    vertex 18.560966480808396 0.31325685185452673 6.000000000000002
    vertex 18.19231284526848 0.1493747595538222 6.000000000000002
  endloop
endfacet
facet normal -0.9633780129704778 -0.26814698231577033 -0.0
  outer loop
    vertex 5.606706775308875 5.696351197758533 5.999999999999997
    vertex 5.714887664709694 5.307687154731521 -3.0
    vertex 5.714887664709694 5.307687154731521 5.999999999999997
  endloop
endfacet
facet normal -0.9633780129704778 -0.26814698231577033 -0.0
  outer loop
    vertex 5.714887664709694 5.307687154731521 -3.0
    vertex 5.606706775308875 5.696351197758533 5.999999999999997
    vertex 5.606706775308875 5.696351197758533 -3.0
  endloop
endfacet
facet normal -0.8445121173527407 -0.5355364447396562 -0.0
  outer loop
    vertex 5.8787697570103985 4.939033519191604 5.999999999999997
    vertex 6.094825922916694 4.598324587187281 -3.0
    vertex 6.094825922916694 4.598324587187281 5.999999999999997
  endloop
endfacet
facet normal -0.8445121173527407 -0.5355364447396562 -0.0
  outer loop
    vertex 6.094825922916694 4.598324587187281 -3.0
    vertex 5.8787697570103985 4.939033519191604 5.999999999999997
    vertex 5.8787697570103985 4.939033519191604 -3.0
  endloop
endfacet
facet normal -0.7570699426455139 -0.6533338365205944 -0.0
  outer loop
    vertex 6.094825922916694 4.598324587187281 5.999999999999997
    vertex 6.358406123969325 4.292893218813452 -3.0
    vertex 6.358406123969325 4.292893218813452 5.999999999999997
  endloop
endfacet
facet normal -0.7570699426455139 -0.6533338365205944 -0.0
  outer loop
    vertex 6.358406123969325 4.292893218813452 -3.0
    vertex 6.094825922916694 4.598324587187281 5.999999999999997
    vertex 6.094825922916694 4.598324587187281 -3.0
  endloop
endfacet
facet normal 0.9633780129704783 0.2681469823157688 0.0
  outer loop
    vertex 19.850625240446178 18.19231284526848 -7.999999999999999
    vertex 19.958806129846995 17.80364880224147 5.99999999999999
    vertex 19.958806129846995 17.80364880224147 -7.999999999999999
  endloop
endfacet
facet normal 0.9633780129704783 0.2681469823157688 0.0
  outer loop
    vertex 19.958806129846995 17.80364880224147 5.99999999999999
    vertex 19.850625240446178 18.19231284526848 -7.999999999999999
    vertex 19.850625240446178 18.19231284526848 5.99999999999999
  endloop
endfacet
facet normal 0.8445121173527425 0.5355364447396532 0.0
  outer loop
    vertex 19.47068698223918 18.90167541281272 -7.999999999999999
    vertex 19.686743148145474 18.560966480808396 5.99999999999999
    vertex 19.686743148145474 18.560966480808396 -7.999999999999999
  endloop
endfacet
facet normal 0.8445121173527425 0.5355364447396532 0.0
  outer loop
    vertex 19.686743148145474 18.560966480808396 5.99999999999999
    vertex 19.47068698223918 18.90167541281272 -7.999999999999999
    vertex 19.47068698223918 18.90167541281272 5.99999999999999
  endloop
endfacet
facet normal 0.9137783987290674 0.40621304510827977 0.0
  outer loop
    vertex 19.686743148145474 18.560966480808396 -7.999999999999999
    vertex 19.850625240446178 18.19231284526848 5.99999999999999
    vertex 19.850625240446178 18.19231284526848 -7.999999999999999
  endloop
endfacet
facet normal 0.9137783987290674 0.40621304510827977 0.0
  outer loop
    vertex 19.850625240446178 18.19231284526848 5.99999999999999
    vertex 19.686743148145474 18.560966480808396 -7.999999999999999
    vertex 19.686743148145474 18.560966480808396 5.99999999999999
  endloop
endfacet
facet normal 0.6533338365205924 0.7570699426455153 0.0
  outer loop
    vertex 18.90167541281272 19.470686982239176 5.99999999999999
    vertex 19.20710678118655 19.207106781186546 -7.999999999999999
    vertex 18.90167541281272 19.470686982239176 -7.999999999999999
  endloop
endfacet
facet normal 0.6533338365205924 0.7570699426455153 0.0
  outer loop
    vertex 19.20710678118655 19.207106781186546 -7.999999999999999
    vertex 18.90167541281272 19.470686982239176 5.99999999999999
    vertex 19.20710678118655 19.207106781186546 5.99999999999999
  endloop
endfacet
facet normal 0.7570699426455153 0.6533338365205924 0.0
  outer loop
    vertex 19.20710678118655 19.207106781186546 -7.999999999999999
    vertex 19.47068698223918 18.90167541281272 5.99999999999999
    vertex 19.47068698223918 18.90167541281272 -7.999999999999999
  endloop
endfacet
facet normal 0.7570699426455153 0.6533338365205924 0.0
  outer loop
    vertex 19.47068698223918 18.90167541281272 5.99999999999999
    vertex 19.20710678118655 19.207106781186546 -7.999999999999999
    vertex 19.20710678118655 19.207106781186546 5.99999999999999
  endloop
endfacet
facet normal 0.40621304510827977 0.9137783987290674 0.0
  outer loop
    vertex 18.19231284526848 19.850625240446178 5.99999999999999
    vertex 18.560966480808396 19.686743148145474 -7.999999999999999
    vertex 18.19231284526848 19.850625240446178 -7.999999999999999
  endloop
endfacet
facet normal 0.40621304510827977 0.9137783987290674 0.0
  outer loop
    vertex 18.560966480808396 19.686743148145474 -7.999999999999999
    vertex 18.19231284526848 19.850625240446178 5.99999999999999
    vertex 18.560966480808396 19.686743148145474 5.99999999999999
  endloop
endfacet
facet normal 0.5355364447396551 0.8445121173527413 0.0
  outer loop
    vertex 18.560966480808396 19.686743148145474 5.99999999999999
    vertex 18.90167541281272 19.470686982239176 -7.999999999999999
    vertex 18.560966480808396 19.686743148145474 -7.999999999999999
  endloop
endfacet
facet normal 0.5355364447396551 0.8445121173527413 0.0
  outer loop
    vertex 18.90167541281272 19.470686982239176 -7.999999999999999
    vertex 18.560966480808396 19.686743148145474 5.99999999999999
    vertex 18.90167541281272 19.470686982239176 5.99999999999999
  endloop
endfacet
facet normal 0.2681469823157688 0.9633780129704783 0.0
  outer loop
    vertex 17.80364880224147 19.958806129846995 5.99999999999999
    vertex 18.19231284526848 19.850625240446178 -7.999999999999999
    vertex 17.80364880224147 19.958806129846995 -7.999999999999999
  endloop
endfacet
facet normal 0.2681469823157688 0.9633780129704783 0.0
  outer loop
    vertex 18.19231284526848 19.850625240446178 -7.999999999999999
    vertex 17.80364880224147 19.958806129846995 5.99999999999999
    vertex 18.19231284526848 19.850625240446178 5.99999999999999
  endloop
endfacet
facet normal 0.12430976379035534 0.9922434593517794 -0.0
  outer loop
    vertex 17.474838361465164 20.0 5.99999999999999
    vertex 17.80364880224147 19.958806129846995 -7.999999999999999
    vertex 17.474838361465164 20.0 -7.999999999999999
  endloop
endfacet
facet normal 0.12430976379035534 0.9922434593517794 -0.0
  outer loop
    vertex 17.80364880224147 19.958806129846995 -7.999999999999999
    vertex 17.474838361465164 20.0 5.99999999999999
    vertex 17.80364880224147 19.958806129846995 5.99999999999999
  endloop
endfacet
facet normal 0.0005974811701969074 -0.9999998012465612 0.00020130347585854035
  outer loop
    vertex 11.499999999999998 3.5000000000000004 5.999999999999997
    vertex 8.565512905155872 3.5000000000000004 -3.0
    vertex 11.499999999999998 3.5000000000000004 -3.0
  endloop
endfacet
facet normal 0.0005974811701969074 -0.9999998012465612 0.00020130347585854035
  outer loop
    vertex 8.565512905155872 3.5000000000000004 -3.0
    vertex 11.499999999999998 3.5000000000000004 5.999999999999997
    vertex 8.162173586197776 3.491042491636987 -3.0
  endloop
endfacet
facet normal 0.0005974811701969074 -0.9999998012465612 0.00020130347585854035
  outer loop
    vertex 8.162173586197776 3.491042491636987 -3.0
    vertex 11.499999999999998 3.5000000000000004 5.999999999999997
    vertex 8.090674543690715 3.5 -3.0
  endloop
endfacet
facet normal 0.0005974811701969074 -0.9999998012465612 0.00020130347585854035
  outer loop
    vertex 8.090674543690715 3.5 -3.0
    vertex 11.499999999999998 3.5000000000000004 5.999999999999997
    vertex 8.090674543690715 3.5 5.999999999999997
  endloop
endfacet
facet normal 1.9314253291679222e-16 4.488225723830075e-16 1.0
  outer loop
    vertex 17.474838361465157 -1.2371217224282326e-16 6.000000000000002
    vertex 11.499999999999998 3.5000000000000004 5.999999999999997
    vertex 11.499999999999998 -2.496989984644518e-16 6.0
  endloop
endfacet
facet normal 1.9314253291679222e-16 4.488225723830075e-16 1.0
  outer loop
    vertex 11.499999999999998 3.5000000000000004 5.999999999999997
    vertex 17.474838361465157 -1.2371217224282326e-16 6.000000000000002
    vertex 11.499999999999998 16.499999999999996 5.999999999999999
  endloop
endfacet
facet normal 1.9314253291679222e-16 4.488225723830075e-16 1.0
  outer loop
    vertex 11.499999999999998 16.499999999999996 5.999999999999999
    vertex 17.474838361465157 -1.2371217224282326e-16 6.000000000000002
    vertex 11.499999999999998 20.0 6.0
  endloop
endfacet
facet normal 1.9314253291679222e-16 4.488225723830075e-16 1.0
  outer loop
    vertex 11.499999999999998 20.0 6.0
    vertex 17.474838361465157 -1.2371217224282326e-16 6.000000000000002
    vertex 17.474838361465164 20.0 5.99999999999999
  endloop
endfacet
facet normal 1.9314253291679222e-16 4.488225723830075e-16 1.0
  outer loop
    vertex 17.474838361465164 20.0 5.99999999999999
    vertex 17.474838361465157 -1.2371217224282326e-16 6.000000000000002
    vertex 17.80364880224147 0.04119387015300344 6.000000000000002
  endloop
endfacet
facet normal 1.9314253291679222e-16 4.488225723830075e-16 1.0
  outer loop
    vertex 17.474838361465164 20.0 5.99999999999999
    vertex 17.80364880224147 0.04119387015300344 6.000000000000002
    vertex 17.80364880224147 19.958806129846995 5.99999999999999
  endloop
endfacet
facet normal 1.9314253291679222e-16 4.488225723830075e-16 1.0
  outer loop
    vertex 17.80364880224147 19.958806129846995 5.99999999999999
    vertex 17.80364880224147 0.04119387015300344 6.000000000000002
    vertex 18.19231284526848 0.1493747595538222 6.000000000000002
  endloop
endfacet
facet normal 1.9314253291679222e-16 4.488225723830075e-16 1.0
  outer loop
    vertex 17.80364880224147 19.958806129846995 5.99999999999999
    vertex 18.19231284526848 0.1493747595538222 6.000000000000002
    vertex 18.19231284526848 19.850625240446178 5.99999999999999
  endloop
endfacet
facet normal 1.9314253291679222e-16 4.488225723830075e-16 1.0
  outer loop
    vertex 18.19231284526848 19.850625240446178 5.99999999999999
    vertex 18.19231284526848 0.1493747595538222 6.000000000000002
    vertex 18.560966480808396 0.31325685185452673 6.000000000000002
  endloop
endfacet
facet normal 1.9314253291679222e-16 4.488225723830075e-16 1.0
  outer loop
    vertex 18.19231284526848 19.850625240446178 5.99999999999999
    vertex 18.560966480808396 0.31325685185452673 6.000000000000002
    vertex 18.560966480808396 19.686743148145474 5.99999999999999
  endloop
endfacet
facet normal 1.9314253291679222e-16 4.488225723830075e-16 1.0
  outer loop
    vertex 18.560966480808396 19.686743148145474 5.99999999999999
    vertex 18.560966480808396 0.31325685185452673 6.000000000000002
    vertex 18.90167541281272 0.5293130177608221 6.000000000000002
  endloop
endfacet
facet normal 1.9314253291679222e-16 4.488225723830075e-16 1.0
  outer loop
    vertex 18.560966480808396 19.686743148145474 5.99999999999999
    vertex 18.90167541281272 0.5293130177608221 6.000000000000002
    vertex 18.90167541281272 19.470686982239176 5.99999999999999
  endloop
endfacet
facet normal 1.9314253291679222e-16 4.488225723830075e-16 1.0
  outer loop
    vertex 18.90167541281272 19.470686982239176 5.99999999999999
    vertex 18.90167541281272 0.5293130177608221 6.000000000000002
    vertex 19.20710678118655 0.7928932188134532 6.000000000000002
  endloop
endfacet
facet normal 1.9314253291679222e-16 4.488225723830075e-16 1.0
  outer loop
    vertex 18.90167541281272 19.470686982239176 5.99999999999999
    vertex 19.20710678118655 0.7928932188134532 6.000000000000002
    vertex 19.20710678118655 19.207106781186546 5.99999999999999
  endloop
endfacet
facet normal 1.9314253291679222e-16 4.488225723830075e-16 1.0
  outer loop
    vertex 19.20710678118655 19.207106781186546 5.99999999999999
    vertex 19.20710678118655 0.7928932188134532 6.000000000000002
    vertex 19.47068698223918 1.0983245871872818 6.000000000000002
  endloop
endfacet
facet normal 1.9314253291679222e-16 4.488225723830075e-16 1.0
  outer loop
    vertex 19.20710678118655 19.207106781186546 5.99999999999999
    vertex 19.47068698223918 1.0983245871872818 6.000000000000002
    vertex 19.47068698223918 18.90167541281272 5.99999999999999
  endloop
endfacet
facet normal 1.9314253291679222e-16 4.488225723830075e-16 1.0
  outer loop
    vertex 19.47068698223918 18.90167541281272 5.99999999999999
    vertex 19.47068698223918 1.0983245871872818 6.000000000000002
    vertex 19.686743148145474 1.4390335191916048 6.000000000000002
  endloop
endfacet
facet normal 1.9314253291679222e-16 4.488225723830075e-16 1.0
  outer loop
    vertex 19.47068698223918 18.90167541281272 5.99999999999999
    vertex 19.686743148145474 1.4390335191916048 6.000000000000002
    vertex 19.686743148145474 18.560966480808396 5.99999999999999
  endloop
endfacet
facet normal 1.9314253291679222e-16 4.488225723830075e-16 1.0
  outer loop
    vertex 19.686743148145474 18.560966480808396 5.99999999999999
    vertex 19.686743148145474 1.4390335191916048 6.000000000000002
    vertex 19.850625240446178 1.8076871547315223 6.000000000000002
  endloop
endfacet
facet normal 1.9314253291679222e-16 4.488225723830075e-16 1.0
  outer loop
    vertex 19.686743148145474 18.560966480808396 5.99999999999999
    vertex 19.850625240446178 1.8076871547315223 6.000000000000002
    vertex 19.850625240446178 18.19231284526848 5.99999999999999
  endloop
endfacet
facet normal 1.9314253291679222e-16 4.488225723830075e-16 1.0
  outer loop
    vertex 19.850625240446178 18.19231284526848 5.99999999999999
    vertex 19.850625240446178 1.8076871547315223 6.000000000000002
    vertex 19.958806129846995 2.196351197758534 6.000000000000002
  endloop
endfacet
facet normal 1.9314253291679222e-16 4.488225723830075e-16 1.0
  outer loop
    vertex 19.850625240446178 18.19231284526848 5.99999999999999
    vertex 19.958806129846995 2.196351197758534 6.000000000000002
    vertex 19.958806129846995 17.80364880224147 5.99999999999999
  endloop
endfacet
facet normal 1.9314253291679222e-16 4.488225723830075e-16 1.0
  outer loop
    vertex 19.958806129846995 17.80364880224147 5.99999999999999
    vertex 19.958806129846995 2.196351197758534 6.000000000000002
    vertex 20.0 2.5251616385348368 6.000000000000002
  endloop
endfacet
facet normal 1.9314253291679222e-16 4.488225723830075e-16 1.0
  outer loop
    vertex 19.958806129846995 17.80364880224147 5.99999999999999
    vertex 20.0 2.5251616385348368 6.000000000000002
    vertex 20.0 17.474838361465164 5.99999999999999
  endloop
endfacet
facet normal 1.9314253291679222e-16 4.488225723830075e-16 1.0
  outer loop
    vertex 20.0 17.474838361465164 5.99999999999999
    vertex 20.0 2.5251616385348368 6.000000000000002
    vertex 20.0 3.5000000000000004 6.0
  endloop
endfacet
facet normal 1.9314253291679222e-16 4.488225723830075e-16 1.0
  outer loop
    vertex 20.0 17.474838361465164 5.99999999999999
    vertex 20.0 3.5000000000000004 6.0
    vertex 20.0 16.499999999999996 6.0
  endloop
endfacet
facet normal 1.9314253291679222e-16 4.488225723830075e-16 1.0
  outer loop
    vertex 5.565512905155873 6.025161638534833 5.999999999999997
    vertex 5.606706775308877 14.303648802241465 5.999999999999997
    vertex 5.565512905155872 13.97483836146515 5.999999999999997
  endloop
endfacet
facet normal 1.9314253291679222e-16 4.488225723830075e-16 1.0
  outer loop
    vertex 5.606706775308877 14.303648802241465 5.999999999999997
    vertex 5.565512905155873 6.025161638534833 5.999999999999997
    vertex 5.606706775308875 5.696351197758533 5.999999999999997
  endloop
endfacet
facet normal 1.9314253291679222e-16 4.488225723830075e-16 1.0
  outer loop
    vertex 5.606706775308877 14.303648802241465 5.999999999999997
    vertex 5.606706775308875 5.696351197758533 5.999999999999997
    vertex 5.714887664709694 5.307687154731521 5.999999999999997
  endloop
endfacet
facet normal 1.9314253291679222e-16 4.488225723830075e-16 1.0
  outer loop
    vertex 5.606706775308877 14.303648802241465 5.999999999999997
    vertex 5.714887664709694 5.307687154731521 5.999999999999997
    vertex 5.714887664709695 14.692312845268477 5.999999999999997
  endloop
endfacet
facet normal 1.9314253291679222e-16 4.488225723830075e-16 1.0
  outer loop
    vertex 5.714887664709695 14.692312845268477 5.999999999999997
    vertex 5.714887664709694 5.307687154731521 5.999999999999997
    vertex 5.8787697570103985 4.939033519191604 5.999999999999997
  endloop
endfacet
facet normal 1.9314253291679222e-16 4.488225723830075e-16 1.0
  outer loop
    vertex 5.714887664709695 14.692312845268477 5.999999999999997
    vertex 5.8787697570103985 4.939033519191604 5.999999999999997
    vertex 5.8787697570104 15.060966480808393 5.999999999999997
  endloop
endfacet
facet normal 1.9314253291679222e-16 4.488225723830075e-16 1.0
  outer loop
    vertex 5.8787697570104 15.060966480808393 5.999999999999997
    vertex 5.8787697570103985 4.939033519191604 5.999999999999997
    vertex 6.094825922916694 4.598324587187281 5.999999999999997
  endloop
endfacet
facet normal 1.9314253291679222e-16 4.488225723830075e-16 1.0
  outer loop
    vertex 5.8787697570104 15.060966480808393 5.999999999999997
    vertex 6.094825922916694 4.598324587187281 5.999999999999997
    vertex 6.094825922916694 15.401675412812718 5.999999999999997
  endloop
endfacet
facet normal 1.9314253291679222e-16 4.488225723830075e-16 1.0
  outer loop
    vertex 6.094825922916694 15.401675412812718 5.999999999999997
    vertex 6.094825922916694 4.598324587187281 5.999999999999997
    vertex 6.358406123969325 4.292893218813452 5.999999999999997
  endloop
endfacet
facet normal 1.9314253291679222e-16 4.488225723830075e-16 1.0
  outer loop
    vertex 6.094825922916694 15.401675412812718 5.999999999999997
    vertex 6.358406123969325 4.292893218813452 5.999999999999997
    vertex 6.358406123969327 15.707106781186544 5.999999999999997
  endloop
endfacet
facet normal 1.9314253291679222e-16 4.488225723830075e-16 1.0
  outer loop
    vertex 6.358406123969327 15.707106781186544 5.999999999999997
    vertex 6.358406123969325 4.292893218813452 5.999999999999997
    vertex 6.663837492343153 4.029313017760821 5.999999999999997
  endloop
endfacet
facet normal 1.9314253291679222e-16 4.488225723830075e-16 1.0
  outer loop
    vertex 6.358406123969327 15.707106781186544 5.999999999999997
    vertex 6.663837492343153 4.029313017760821 5.999999999999997
    vertex 6.663837492343155 15.970686982239178 5.999999999999997
  endloop
endfacet
facet normal 1.9314253291679222e-16 4.488225723830075e-16 1.0
  outer loop
    vertex 6.663837492343155 15.970686982239178 5.999999999999997
    vertex 6.663837492343153 4.029313017760821 5.999999999999997
    vertex 7.004546424347477 3.8132568518545265 5.999999999999997
  endloop
endfacet
facet normal 1.9314253291679222e-16 4.488225723830075e-16 1.0
  outer loop
    vertex 6.663837492343155 15.970686982239178 5.999999999999997
    vertex 7.004546424347477 3.8132568518545265 5.999999999999997
    vertex 7.004546424347478 16.18674314814547 5.999999999999997
  endloop
endfacet
facet normal 1.9314253291679222e-16 4.488225723830075e-16 1.0
  outer loop
    vertex 7.004546424347478 16.18674314814547 5.999999999999997
    vertex 7.004546424347477 3.8132568518545265 5.999999999999997
    vertex 7.373200059887394 3.6493747595538215 5.999999999999997
  endloop
endfacet
facet normal 1.9314253291679222e-16 4.488225723830075e-16 1.0
  outer loop
    vertex 7.004546424347478 16.18674314814547 5.999999999999997
    vertex 7.373200059887394 3.6493747595538215 5.999999999999997
    vertex 7.373200059887394 16.350625240446174 5.999999999999997
  endloop
endfacet
facet normal 1.9314253291679222e-16 4.488225723830075e-16 1.0
  outer loop
    vertex 7.373200059887394 16.350625240446174 5.999999999999997
    vertex 7.373200059887394 3.6493747595538215 5.999999999999997
    vertex 7.761864102914406 3.5411938701530037 5.999999999999997
  endloop
endfacet
facet normal 1.9314253291679222e-16 4.488225723830075e-16 1.0
  outer loop
    vertex 7.373200059887394 16.350625240446174 5.999999999999997
    vertex 7.761864102914406 3.5411938701530037 5.999999999999997
    vertex 7.761864102914407 16.458806129846995 5.999999999999997
  endloop
endfacet
facet normal 1.9314253291679222e-16 4.488225723830075e-16 1.0
  outer loop
    vertex 7.761864102914407 16.458806129846995 5.999999999999997
    vertex 7.761864102914406 3.5411938701530037 5.999999999999997
    vertex 8.090674543690715 3.5 5.999999999999997
  endloop
endfacet
facet normal 1.9314253291679222e-16 4.488225723830075e-16 1.0
  outer loop
    vertex 7.761864102914407 16.458806129846995 5.999999999999997
    vertex 8.090674543690715 3.5 5.999999999999997
    vertex 8.090674543690728 16.499999999999996 5.999999999999997
  endloop
endfacet
facet normal 1.9314253291679222e-16 4.488225723830075e-16 1.0
  outer loop
    vertex 8.090674543690728 16.499999999999996 5.999999999999997
    vertex 8.090674543690715 3.5 5.999999999999997
    vertex 11.499999999999998 3.5000000000000004 5.999999999999997
  endloop
endfacet
facet normal 1.9314253291679222e-16 4.488225723830075e-16 1.0
  outer loop
    vertex 8.090674543690728 16.499999999999996 5.999999999999997
    vertex 11.499999999999998 3.5000000000000004 5.999999999999997
    vertex 11.499999999999998 16.499999999999996 5.999999999999999
  endloop
endfacet
facet normal 0.0005974811701966331 0.9999998012465612 0.00020130347585852276
  outer loop
    vertex 8.090674543690728 16.499999999999996 5.999999999999997
    vertex 8.162173586197776 16.50895750836301 -3.0
    vertex 8.090674543690728 16.499999999999996 -3.0
  endloop
endfacet
facet normal 0.0005974811701966331 0.9999998012465612 0.00020130347585852276
  outer loop
    vertex 8.162173586197776 16.50895750836301 -3.0
    vertex 8.090674543690728 16.499999999999996 5.999999999999997
    vertex 8.565512905155872 16.499999999999996 -3.0
  endloop
endfacet
facet normal 0.0005974811701966331 0.9999998012465612 0.00020130347585852276
  outer loop
    vertex 8.565512905155872 16.499999999999996 -3.0
    vertex 11.499999999999998 16.499999999999996 5.999999999999999
    vertex 11.499999999999998 16.499999999999996 -3.0
  endloop
endfacet
facet normal 0.0005974811701966331 0.9999998012465612 0.00020130347585852276
  outer loop
    vertex 11.499999999999998 16.499999999999996 5.999999999999999
    vertex 8.565512905155872 16.499999999999996 -3.0
    vertex 8.090674543690728 16.499999999999996 5.999999999999997
  endloop
endfacet
facet normal -0.9999999449677989 4.054779696870552e-17 0.0003317595507430541
  outer loop
    vertex 5.565512905155872 13.97483836146515 5.999999999999997
    vertex 5.565512905155873 6.025161638534833 -3.0
    vertex 5.565512905155873 6.025161638534833 5.999999999999997
  endloop
endfacet
facet normal -0.9999999449677989 4.054779696870552e-17 0.0003317595507430541
  outer loop
    vertex 5.565512905155873 6.025161638534833 -3.0
    vertex 5.565512905155872 13.97483836146515 5.999999999999997
    vertex 5.5565553967928585 6.096660681041902 -3.0
  endloop
endfacet
facet normal -0.9999999449677989 4.054779696870552e-17 0.0003317595507430541
  outer loop
    vertex 5.5565553967928585 6.096660681041902 -3.0
    vertex 5.565512905155872 13.97483836146515 5.999999999999997
    vertex 5.565512905155871 6.499999999999999 -3.0
  endloop
endfacet
facet normal -0.9999999449677989 4.054779696870552e-17 0.0003317595507430541
  outer loop
    vertex 5.565512905155871 6.499999999999999 -3.0
    vertex 5.565512905155872 13.97483836146515 5.999999999999997
    vertex 5.565512905155873 13.499999999999998 -3.0
  endloop
endfacet
facet normal -0.9999999449677989 4.054779696870552e-17 0.0003317595507430541
  outer loop
    vertex 5.565512905155873 13.499999999999998 -3.0
    vertex 5.565512905155872 13.97483836146515 5.999999999999997
    vertex 5.556555396792859 13.903339318958094 -3.0
  endloop
endfacet
facet normal -0.9999999449677989 4.054779696870552e-17 0.0003317595507430541
  outer loop
    vertex 5.556555396792859 13.903339318958094 -3.0
    vertex 5.565512905155872 13.97483836146515 5.999999999999997
    vertex 5.565512905155872 13.97483836146515 -3.0
  endloop
endfacet
facet normal -3.1229920249596965e-17 3.1443183914270475e-32 -1.0
  outer loop
    vertex 12.999999999999998 15.499999999999996 -3.0
    vertex 11.499999999999998 4.5 -3.0
    vertex 11.499999999999998 15.499999999999996 -3.0
  endloop
endfacet
facet normal -3.1229920249596965e-17 3.1443183914270475e-32 -1.0
  outer loop
    vertex 11.499999999999998 4.5 -3.0
    vertex 12.999999999999998 15.499999999999996 -3.0
    vertex 12.999999999999998 4.5 -3.0
  endloop
endfacet
facet normal -3.1229920249596965e-17 3.1443183914270475e-32 -1.0
  outer loop
    vertex 5.565512905155872 13.97483836146515 -3.0
    vertex 5.565512905155873 13.499999999999998 -3.0
    vertex 5.556555396792859 13.903339318958094 -3.0
  endloop
endfacet
facet normal -3.1229920249596965e-17 3.1443183914270475e-32 -1.0
  outer loop
    vertex 5.565512905155873 13.499999999999998 -3.0
    vertex 5.565512905155872 13.97483836146515 -3.0
    vertex 5.606706775308877 14.303648802241465 -3.0
  endloop
endfacet
facet normal -3.1229920249596965e-17 3.1443183914270475e-32 -1.0
  outer loop
    vertex 5.565512905155873 13.499999999999998 -3.0
    vertex 5.606706775308877 14.303648802241465 -3.0
    vertex 5.565512905155873 6.025161638534833 -3.0
  endloop
endfacet
facet normal -3.1229920249596965e-17 3.1443183914270475e-32 -1.0
  outer loop
    vertex 5.565512905155873 6.025161638534833 -3.0
    vertex 5.606706775308877 14.303648802241465 -3.0
    vertex 5.606706775308875 5.696351197758533 -3.0
  endloop
endfacet
facet normal -3.1229920249596965e-17 3.1443183914270475e-32 -1.0
  outer loop
    vertex 5.606706775308875 5.696351197758533 -3.0
    vertex 5.606706775308877 14.303648802241465 -3.0
    vertex 5.714887664709694 5.307687154731521 -3.0
  endloop
endfacet
facet normal -3.1229920249596965e-17 3.1443183914270475e-32 -1.0
  outer loop
    vertex 5.714887664709694 5.307687154731521 -3.0
    vertex 5.606706775308877 14.303648802241465 -3.0
    vertex 5.714887664709695 14.692312845268477 -3.0
  endloop
endfacet
facet normal -3.1229920249596965e-17 3.1443183914270475e-32 -1.0
  outer loop
    vertex 5.714887664709694 5.307687154731521 -3.0
    vertex 5.714887664709695 14.692312845268477 -3.0
    vertex 5.8787697570103985 4.939033519191604 -3.0
  endloop
endfacet
facet normal -3.1229920249596965e-17 3.1443183914270475e-32 -1.0
  outer loop
    vertex 5.8787697570103985 4.939033519191604 -3.0
    vertex 5.714887664709695 14.692312845268477 -3.0
    vertex 5.8787697570104 15.060966480808393 -3.0
  endloop
endfacet
facet normal -3.1229920249596965e-17 3.1443183914270475e-32 -1.0
  outer loop
    vertex 5.8787697570103985 4.939033519191604 -3.0
    vertex 5.8787697570104 15.060966480808393 -3.0
    vertex 6.094825922916694 4.598324587187281 -3.0
  endloop
endfacet
facet normal -3.1229920249596965e-17 3.1443183914270475e-32 -1.0
  outer loop
    vertex 6.094825922916694 4.598324587187281 -3.0
    vertex 5.8787697570104 15.060966480808393 -3.0
    vertex 6.094825922916694 15.401675412812718 -3.0
  endloop
endfacet
facet normal -3.1229920249596965e-17 3.1443183914270475e-32 -1.0
  outer loop
    vertex 6.094825922916694 4.598324587187281 -3.0
    vertex 6.094825922916694 15.401675412812718 -3.0
    vertex 6.358406123969325 4.292893218813452 -3.0
  endloop
endfacet
facet normal -3.1229920249596965e-17 3.1443183914270475e-32 -1.0
  outer loop
    vertex 6.358406123969325 4.292893218813452 -3.0
    vertex 6.094825922916694 15.401675412812718 -3.0
    vertex 6.358406123969327 15.707106781186544 -3.0
  endloop
endfacet
facet normal -3.1229920249596965e-17 3.1443183914270475e-32 -1.0
  outer loop
    vertex 6.358406123969325 4.292893218813452 -3.0
    vertex 6.358406123969327 15.707106781186544 -3.0
    vertex 6.663837492343153 4.029313017760821 -3.0
  endloop
endfacet
facet normal -3.1229920249596965e-17 3.1443183914270475e-32 -1.0
  outer loop
    vertex 6.663837492343153 4.029313017760821 -3.0
    vertex 6.358406123969327 15.707106781186544 -3.0
    vertex 6.663837492343155 15.970686982239178 -3.0
  endloop
endfacet
facet normal -3.1229920249596965e-17 3.1443183914270475e-32 -1.0
  outer loop
    vertex 6.663837492343153 4.029313017760821 -3.0
    vertex 6.663837492343155 15.970686982239178 -3.0
    vertex 7.004546424347477 3.8132568518545265 -3.0
  endloop
endfacet
facet normal -3.1229920249596965e-17 3.1443183914270475e-32 -1.0
  outer loop
    vertex 7.004546424347477 3.8132568518545265 -3.0
    vertex 6.663837492343155 15.970686982239178 -3.0
    vertex 7.004546424347478 16.18674314814547 -3.0
  endloop
endfacet
facet normal -3.1229920249596965e-17 3.1443183914270475e-32 -1.0
  outer loop
    vertex 7.004546424347477 3.8132568518545265 -3.0
    vertex 7.004546424347478 16.18674314814547 -3.0
    vertex 7.373200059887394 3.6493747595538215 -3.0
  endloop
endfacet
facet normal -3.1229920249596965e-17 3.1443183914270475e-32 -1.0
  outer loop
    vertex 7.373200059887394 3.6493747595538215 -3.0
    vertex 7.004546424347478 16.18674314814547 -3.0
    vertex 7.373200059887394 16.350625240446174 -3.0
  endloop
endfacet
facet normal -3.1229920249596965e-17 3.1443183914270475e-32 -1.0
  outer loop
    vertex 7.373200059887394 3.6493747595538215 -3.0
    vertex 7.373200059887394 16.350625240446174 -3.0
    vertex 7.761864102914407 16.458806129846995 -3.0
  endloop
endfacet
facet normal -3.1229920249596965e-17 3.1443183914270475e-32 -1.0
  outer loop
    vertex 7.373200059887394 3.6493747595538215 -3.0
    vertex 7.761864102914407 16.458806129846995 -3.0
    vertex 7.761864102914406 3.5411938701530037 -3.0
  endloop
endfacet
facet normal -3.1229920249596965e-17 3.1443183914270475e-32 -1.0
  outer loop
    vertex 7.761864102914406 3.5411938701530037 -3.0
    vertex 7.761864102914407 16.458806129846995 -3.0
    vertex 8.090674543690715 3.5 -3.0
  endloop
endfacet
facet normal -3.1229920249596965e-17 3.1443183914270475e-32 -1.0
  outer loop
    vertex 8.090674543690715 3.5 -3.0
    vertex 7.761864102914407 16.458806129846995 -3.0
    vertex 8.090674543690728 16.499999999999996 -3.0
  endloop
endfacet
facet normal -3.1229920249596965e-17 3.1443183914270475e-32 -1.0
  outer loop
    vertex 8.090674543690715 3.5 -3.0
    vertex 8.090674543690728 16.499999999999996 -3.0
    vertex 8.162173586197776 3.491042491636987 -3.0
  endloop
endfacet
facet normal -3.1229920249596965e-17 3.1443183914270475e-32 -1.0
  outer loop
    vertex 8.162173586197776 3.491042491636987 -3.0
    vertex 8.090674543690728 16.499999999999996 -3.0
    vertex 8.162173586197776 16.50895750836301 -3.0
  endloop
endfacet
facet normal -3.1229920249596965e-17 3.1443183914270475e-32 -1.0
  outer loop
    vertex 8.162173586197776 3.491042491636987 -3.0
    vertex 8.162173586197776 16.50895750836301 -3.0
    vertex 8.565512905155872 16.499999999999996 -3.0
  endloop
endfacet
facet normal -3.1229920249596965e-17 3.1443183914270475e-32 -1.0
  outer loop
    vertex 8.162173586197776 3.491042491636987 -3.0
    vertex 8.565512905155872 16.499999999999996 -3.0
    vertex 8.565512905155872 3.5000000000000004 -3.0
  endloop
endfacet
facet normal -3.1229920249596965e-17 3.1443183914270475e-32 -1.0
  outer loop
    vertex 8.565512905155872 3.5000000000000004 -3.0
    vertex 8.565512905155872 16.499999999999996 -3.0
    vertex 11.499999999999998 16.499999999999996 -3.0
  endloop
endfacet
facet normal -3.1229920249596965e-17 3.1443183914270475e-32 -1.0
  outer loop
    vertex 8.565512905155872 3.5000000000000004 -3.0
    vertex 11.499999999999998 16.499999999999996 -3.0
    vertex 11.499999999999998 3.5000000000000004 -3.0
  endloop
endfacet
facet normal -3.1229920249596965e-17 3.1443183914270475e-32 -1.0
  outer loop
    vertex 11.499999999999998 3.5000000000000004 -3.0
    vertex 11.499999999999998 16.499999999999996 -3.0
    vertex 11.499999999999998 15.499999999999996 -3.0
  endloop
endfacet
facet normal -3.1229920249596965e-17 3.1443183914270475e-32 -1.0
  outer loop
    vertex 11.499999999999998 3.5000000000000004 -3.0
    vertex 11.499999999999998 15.499999999999996 -3.0
    vertex 11.499999999999998 4.5 -3.0
  endloop
endfacet
facet normal -3.1229920249596965e-17 3.1443183914270475e-32 -1.0
  outer loop
    vertex 5.565512905155871 6.499999999999999 -3.0
    vertex 5.565512905155873 6.025161638534833 -3.0
    vertex 5.5565553967928585 6.096660681041902 -3.0
  endloop
endfacet
facet normal -3.1229920249596965e-17 3.1443183914270475e-32 -1.0
  outer loop
    vertex 5.565512905155873 6.025161638534833 -3.0
    vertex 5.565512905155871 6.499999999999999 -3.0
    vertex 5.565512905155873 13.499999999999998 -3.0
  endloop
endfacet
facet normal -0.12430976379034904 0.99224345935178 -0.0
  outer loop
    vertex 7.761864102914407 16.458806129846995 5.999999999999997
    vertex 8.090674543690728 16.499999999999996 -3.0
    vertex 7.761864102914407 16.458806129846995 -3.0
  endloop
endfacet
facet normal -0.12430976379034904 0.99224345935178 -0.0
  outer loop
    vertex 8.090674543690728 16.499999999999996 -3.0
    vertex 7.761864102914407 16.458806129846995 5.999999999999997
    vertex 8.090674543690728 16.499999999999996 5.999999999999997
  endloop
endfacet
facet normal -0.26814698231576783 0.9633780129704785 -0.0
  outer loop
    vertex 7.373200059887394 16.350625240446174 5.999999999999997
    vertex 7.761864102914407 16.458806129846995 -3.0
    vertex 7.373200059887394 16.350625240446174 -3.0
  endloop
endfacet
facet normal -0.26814698231576783 0.9633780129704785 -0.0
  outer loop
    vertex 7.761864102914407 16.458806129846995 -3.0
    vertex 7.373200059887394 16.350625240446174 5.999999999999997
    vertex 7.761864102914407 16.458806129846995 5.999999999999997
  endloop
endfacet
facet normal -0.4062130451082799 0.9137783987290676 -0.0
  outer loop
    vertex 7.004546424347478 16.18674314814547 5.999999999999997
    vertex 7.373200059887394 16.350625240446174 -3.0
    vertex 7.004546424347478 16.18674314814547 -3.0
  endloop
endfacet
facet normal -0.4062130451082799 0.9137783987290676 -0.0
  outer loop
    vertex 7.373200059887394 16.350625240446174 -3.0
    vertex 7.004546424347478 16.18674314814547 5.999999999999997
    vertex 7.373200059887394 16.350625240446174 5.999999999999997
  endloop
endfacet
facet normal -0.5355364447396518 0.8445121173527436 -0.0
  outer loop
    vertex 6.663837492343155 15.970686982239178 5.999999999999997
    vertex 7.004546424347478 16.18674314814547 -3.0
    vertex 6.663837492343155 15.970686982239178 -3.0
  endloop
endfacet
facet normal -0.5355364447396518 0.8445121173527436 -0.0
  outer loop
    vertex 7.004546424347478 16.18674314814547 -3.0
    vertex 6.663837492343155 15.970686982239178 5.999999999999997
    vertex 7.004546424347478 16.18674314814547 5.999999999999997
  endloop
endfacet
facet normal -0.7570699426455105 0.653333836520598 -0.0
  outer loop
    vertex 6.358406123969327 15.707106781186544 5.999999999999997
    vertex 6.094825922916694 15.401675412812718 -3.0
    vertex 6.094825922916694 15.401675412812718 5.999999999999997
  endloop
endfacet
facet normal -0.7570699426455105 0.653333836520598 -0.0
  outer loop
    vertex 6.094825922916694 15.401675412812718 -3.0
    vertex 6.358406123969327 15.707106781186544 5.999999999999997
    vertex 6.358406123969327 15.707106781186544 -3.0
  endloop
endfacet
facet normal -0.9137783987290676 0.4062130451082799 -0.0
  outer loop
    vertex 5.8787697570104 15.060966480808393 5.999999999999997
    vertex 5.714887664709695 14.692312845268477 -3.0
    vertex 5.714887664709695 14.692312845268477 5.999999999999997
  endloop
endfacet
facet normal -0.9137783987290676 0.4062130451082799 -0.0
  outer loop
    vertex 5.714887664709695 14.692312845268477 -3.0
    vertex 5.8787697570104 15.060966480808393 5.999999999999997
    vertex 5.8787697570104 15.060966480808393 -3.0
  endloop
endfacet
facet normal -0.6533338365205982 0.7570699426455103 -0.0
  outer loop
    vertex 6.358406123969327 15.707106781186544 5.999999999999997
    vertex 6.663837492343155 15.970686982239178 -3.0
    vertex 6.358406123969327 15.707106781186544 -3.0
  endloop
endfacet
facet normal -0.6533338365205982 0.7570699426455103 -0.0
  outer loop
    vertex 6.663837492343155 15.970686982239178 -3.0
    vertex 6.358406123969327 15.707106781186544 5.999999999999997
    vertex 6.663837492343155 15.970686982239178 5.999999999999997
  endloop
endfacet
facet normal -0.4062130451082785 -0.9137783987290682 -0.0
  outer loop
    vertex 7.373200059887394 3.6493747595538215 5.999999999999997
    vertex 7.004546424347477 3.8132568518545265 -3.0
    vertex 7.373200059887394 3.6493747595538215 -3.0
  endloop
endfacet
facet normal -0.4062130451082785 -0.9137783987290682 -0.0
  outer loop
    vertex 7.004546424347477 3.8132568518545265 -3.0
    vertex 7.373200059887394 3.6493747595538215 5.999999999999997
    vertex 7.004546424347477 3.8132568518545265 5.999999999999997
  endloop
endfacet
facet normal -0.2681469823157688 -0.9633780129704783 -0.0
  outer loop
    vertex 7.761864102914406 3.5411938701530037 5.999999999999997
    vertex 7.373200059887394 3.6493747595538215 -3.0
    vertex 7.761864102914406 3.5411938701530037 -3.0
  endloop
endfacet
facet normal -0.2681469823157688 -0.9633780129704783 -0.0
  outer loop
    vertex 7.373200059887394 3.6493747595538215 -3.0
    vertex 7.761864102914406 3.5411938701530037 5.999999999999997
    vertex 7.373200059887394 3.6493747595538215 5.999999999999997
  endloop
endfacet
facet normal -0.99224345935178 -0.12430976379035064 0.0
  outer loop
    vertex 5.565512905155873 6.025161638534833 5.999999999999997
    vertex 5.606706775308875 5.696351197758533 -3.0
    vertex 5.606706775308875 5.696351197758533 5.999999999999997
  endloop
endfacet
facet normal -0.99224345935178 -0.12430976379035064 0.0
  outer loop
    vertex 5.606706775308875 5.696351197758533 -3.0
    vertex 5.565512905155873 6.025161638534833 5.999999999999997
    vertex 5.565512905155873 6.025161638534833 -3.0
  endloop
endfacet
facet normal -0.9633780129704778 0.26814698231577033 -0.0
  outer loop
    vertex 5.714887664709695 14.692312845268477 5.999999999999997
    vertex 5.606706775308877 14.303648802241465 -3.0
    vertex 5.606706775308877 14.303648802241465 5.999999999999997
  endloop
endfacet
facet normal -0.9633780129704778 0.26814698231577033 -0.0
  outer loop
    vertex 5.606706775308877 14.303648802241465 -3.0
    vertex 5.714887664709695 14.692312845268477 5.999999999999997
    vertex 5.714887664709695 14.692312845268477 -3.0
  endloop
endfacet
facet normal -0.9922434593517798 0.12430976379035116 0.0
  outer loop
    vertex 5.606706775308877 14.303648802241465 5.999999999999997
    vertex 5.565512905155872 13.97483836146515 -3.0
    vertex 5.565512905155872 13.97483836146515 5.999999999999997
  endloop
endfacet
facet normal -0.9922434593517798 0.12430976379035116 0.0
  outer loop
    vertex 5.565512905155872 13.97483836146515 -3.0
    vertex 5.606706775308877 14.303648802241465 5.999999999999997
    vertex 5.606706775308877 14.303648802241465 -3.0
  endloop
endfacet
facet normal -0.5355364447396542 -0.844512117352742 -0.0
  outer loop
    vertex 7.004546424347477 3.8132568518545265 5.999999999999997
    vertex 6.663837492343153 4.029313017760821 -3.0
    vertex 7.004546424347477 3.8132568518545265 -3.0
  endloop
endfacet
facet normal -0.5355364447396542 -0.844512117352742 -0.0
  outer loop
    vertex 6.663837492343153 4.029313017760821 -3.0
    vertex 7.004546424347477 3.8132568518545265 5.999999999999997
    vertex 6.663837492343153 4.029313017760821 5.999999999999997
  endloop
endfacet
facet normal -0.12430976379035114 -0.9922434593517798 0.0
  outer loop
    vertex 8.090674543690715 3.5 5.999999999999997
    vertex 7.761864102914406 3.5411938701530037 -3.0
    vertex 8.090674543690715 3.5 -3.0
  endloop
endfacet
facet normal -0.12430976379035114 -0.9922434593517798 0.0
  outer loop
    vertex 7.761864102914406 3.5411938701530037 -3.0
    vertex 8.090674543690715 3.5 5.999999999999997
    vertex 7.761864102914406 3.5411938701530037 5.999999999999997
  endloop
endfacet
facet normal -0.9137783987290682 -0.4062130451082785 -0.0
  outer loop
    vertex 5.714887664709694 5.307687154731521 5.999999999999997
    vertex 5.8787697570103985 4.939033519191604 -3.0
    vertex 5.8787697570103985 4.939033519191604 5.999999999999997
  endloop
endfacet
facet normal -0.9137783987290682 -0.4062130451082785 -0.0
  outer loop
    vertex 5.8787697570103985 4.939033519191604 -3.0
    vertex 5.714887664709694 5.307687154731521 5.999999999999997
    vertex 5.714887664709694 5.307687154731521 -3.0
  endloop
endfacet
facet normal -0.6533338365205952 -0.757069942645513 -0.0
  outer loop
    vertex 6.663837492343153 4.029313017760821 5.999999999999997
    vertex 6.358406123969325 4.292893218813452 -3.0
    vertex 6.663837492343153 4.029313017760821 -3.0
  endloop
endfacet
facet normal -0.6533338365205952 -0.757069942645513 -0.0
  outer loop
    vertex 6.358406123969325 4.292893218813452 -3.0
    vertex 6.663837492343153 4.029313017760821 5.999999999999997
    vertex 6.358406123969325 4.292893218813452 5.999999999999997
  endloop
endfacet
facet normal -0.8445121173527429 0.5355364447396527 -0.0
  outer loop
    vertex 6.094825922916694 15.401675412812718 5.999999999999997
    vertex 5.8787697570104 15.060966480808393 -3.0
    vertex 5.8787697570104 15.060966480808393 5.999999999999997
  endloop
endfacet
facet normal -0.8445121173527429 0.5355364447396527 -0.0
  outer loop
    vertex 5.8787697570104 15.060966480808393 -3.0
    vertex 6.094825922916694 15.401675412812718 5.999999999999997
    vertex 6.094825922916694 15.401675412812718 -3.0
  endloop
endfacet
endsolid Soportes endstop XY
