solid Carros laterales definitivos
facet normal -0.25881904510251263 0.0 0.9659258262890704
  outer loop
    vertex 166.4027418767196 10.76365881076689 17.106259108132903
    vertex 165.9623028321778 12.763658810766886 17.04827420788397
    vertex 165.9623028321778 10.76365881076689 17.04827420788397
  endloop
endfacet
facet normal -1.3589442590861513e-14 0.0 1.0
  outer loop
    vertex 165.9623028321778 12.763658810766886 17.04827420788397
    vertex 166.4027418767196 10.76365881076689 17.106259108132903
    vertex 166.4027418767196 12.763658810766886 17.106259108132903
  endloop
endfacet
facet normal -0.8660254037844196 0.0 0.5000000000000331
  outer loop
    vertex 167.43604059842545 12.763658810766886 17.899137103942067
    vertex 167.16560467950305 10.76365881076689 17.54669815267473
    vertex 167.43604059842545 10.76365881076689 17.899137103942067
  endloop
endfacet
facet normal -0.7071067811865841 0.0 0.7071067811865109
  outer loop
    vertex 167.16560467950305 10.76365881076689 17.54669815267473
    vertex 167.43604059842545 12.763658810766886 17.899137103942067
    vertex 167.16560467950305 12.763658810766886 17.54669815267473
  endloop
endfacet
facet normal -0.7071067811865841 0.0 0.7071067811865109
  outer loop
    vertex 167.16560467950305 10.76365881076689 17.54669815267473
    vertex 166.81316572823573 12.763658810766886 17.27626223375228
    vertex 166.81316572823573 10.76365881076689 17.27626223375228
  endloop
endfacet
facet normal -0.5000000000000286 0.0 0.8660254037844222
  outer loop
    vertex 166.81316572823573 12.763658810766886 17.27626223375228
    vertex 167.16560467950305 10.76365881076689 17.54669815267473
    vertex 167.16560467950305 12.763658810766886 17.54669815267473
  endloop
endfacet
facet normal -1.0 0.0 -2.512932990572424e-15
  outer loop
    vertex 167.6640286242938 12.763658810766886 18.75
    vertex 167.60604372404487 10.76365881076689 18.309560955458128
    vertex 167.6640286242938 10.76365881076689 18.75
  endloop
endfacet
facet normal -0.9659258262890577 0.0 0.2588190451025601
  outer loop
    vertex 167.60604372404487 10.76365881076689 18.309560955458128
    vertex 167.6640286242938 12.763658810766886 18.75
    vertex 167.60604372404487 12.763658810766886 18.309560955458128
  endloop
endfacet
facet normal -0.9659258262890577 0.0 0.2588190451025601
  outer loop
    vertex 167.60604372404487 12.763658810766886 18.309560955458128
    vertex 167.43604059842545 10.76365881076689 17.899137103942067
    vertex 167.60604372404487 10.76365881076689 18.309560955458128
  endloop
endfacet
facet normal -0.8660254037844196 0.0 0.5000000000000331
  outer loop
    vertex 167.43604059842545 10.76365881076689 17.899137103942067
    vertex 167.60604372404487 12.763658810766886 18.309560955458128
    vertex 167.43604059842545 12.763658810766886 17.899137103942067
  endloop
endfacet
facet normal -0.9659258262890588 0.0 -0.25881904510255666
  outer loop
    vertex 167.60604372404487 12.763658810766886 19.190439044541854
    vertex 167.6640286242938 10.76365881076689 18.75
    vertex 167.60604372404487 10.76365881076689 19.190439044541854
  endloop
endfacet
facet normal -1.0 0.0 -2.512932990572424e-15
  outer loop
    vertex 167.6640286242938 10.76365881076689 18.75
    vertex 167.60604372404487 12.763658810766886 19.190439044541854
    vertex 167.6640286242938 12.763658810766886 18.75
  endloop
endfacet
facet normal -0.8660254037844216 0.0 -0.5000000000000295
  outer loop
    vertex 167.43604059842545 12.763658810766886 19.60086289605793
    vertex 167.60604372404487 10.76365881076689 19.190439044541854
    vertex 167.43604059842545 10.76365881076689 19.60086289605793
  endloop
endfacet
facet normal -0.9659258262890588 0.0 -0.25881904510255666
  outer loop
    vertex 167.60604372404487 10.76365881076689 19.190439044541854
    vertex 167.43604059842545 12.763658810766886 19.60086289605793
    vertex 167.60604372404487 12.763658810766886 19.190439044541854
  endloop
endfacet
facet normal -0.7071067811865813 0.0 -0.7071067811865136
  outer loop
    vertex 167.16560467950305 12.763658810766886 19.953301847325264
    vertex 167.43604059842545 10.76365881076689 19.60086289605793
    vertex 167.16560467950305 10.76365881076689 19.953301847325264
  endloop
endfacet
facet normal -0.8660254037844216 0.0 -0.5000000000000295
  outer loop
    vertex 167.43604059842545 10.76365881076689 19.60086289605793
    vertex 167.16560467950305 12.763658810766886 19.953301847325264
    vertex 167.43604059842545 12.763658810766886 19.60086289605793
  endloop
endfacet
facet normal -6.959576828500241e-15 0.0 -1.0
  outer loop
    vertex 165.96230283217778 12.763658810766886 20.451725792116026
    vertex 165.52186378763597 10.76365881076689 20.39374089186709
    vertex 165.52186378763597 12.763658810766886 20.39374089186709
  endloop
endfacet
facet normal 0.2588190451025236 0.0 -0.9659258262890674
  outer loop
    vertex 165.52186378763597 10.76365881076689 20.39374089186709
    vertex 165.96230283217778 12.763658810766886 20.451725792116026
    vertex 165.96230283217778 10.76365881076689 20.451725792116026
  endloop
endfacet
facet normal -0.9659258262890623 0.0 0.2588190451025431
  outer loop
    vertex 167.59816750800235 12.763658810766886 2.809560955458178
    vertex 167.428164382383 10.76365881076689 2.3991371039420515
    vertex 167.59816750800235 10.76365881076689 2.809560955458178
  endloop
endfacet
facet normal -0.8660254037844616 0.0 0.49999999999996037
  outer loop
    vertex 167.428164382383 10.76365881076689 2.3991371039420515
    vertex 167.59816750800235 12.763658810766886 2.809560955458178
    vertex 167.428164382383 12.763658810766886 2.3991371039420515
  endloop
endfacet
facet normal 2.0210397243327183e-14 0.0 -1.0
  outer loop
    vertex 165.9544266161352 12.763658810766886 4.951725792116028
    vertex 165.51398757159347 10.76365881076689 4.893740891867093
    vertex 165.51398757159347 12.763658810766886 4.893740891867093
  endloop
endfacet
facet normal 0.2588190451025018 0.0 -0.9659258262890733
  outer loop
    vertex 165.51398757159347 10.76365881076689 4.893740891867093
    vertex 165.9544266161352 12.763658810766886 4.951725792116028
    vertex 165.9544266161352 10.76365881076689 4.951725792116028
  endloop
endfacet
facet normal -0.7071067811865586 0.0 -0.7071067811865364
  outer loop
    vertex 167.15772846346056 12.763658810766886 4.453301847325301
    vertex 166.80528951219327 10.76365881076689 4.723737766247696
    vertex 166.80528951219327 12.763658810766886 4.723737766247696
  endloop
endfacet
facet normal -0.49999999999999944 0.0 -0.8660254037844389
  outer loop
    vertex 166.80528951219327 10.76365881076689 4.723737766247696
    vertex 167.15772846346056 12.763658810766886 4.453301847325301
    vertex 167.15772846346056 10.76365881076689 4.453301847325301
  endloop
endfacet
facet normal -0.49999999999999944 0.0 -0.8660254037844389
  outer loop
    vertex 166.80528951219327 12.763658810766886 4.723737766247696
    vertex 166.3948656606771 10.76365881076689 4.893740891867088
    vertex 166.3948656606771 12.763658810766886 4.893740891867088
  endloop
endfacet
facet normal -0.2588190451025138 0.0 -0.9659258262890702
  outer loop
    vertex 166.3948656606771 10.76365881076689 4.893740891867088
    vertex 166.80528951219327 12.763658810766886 4.723737766247696
    vertex 166.80528951219327 10.76365881076689 4.723737766247696
  endloop
endfacet
facet normal -0.866025403784461 0.0 -0.49999999999996114
  outer loop
    vertex 167.428164382383 12.763658810766886 4.100862896057946
    vertex 167.59816750800235 10.76365881076689 3.690439044541826
    vertex 167.428164382383 10.76365881076689 4.100862896057946
  endloop
endfacet
facet normal -0.9659258262890618 0.0 -0.2588190451025452
  outer loop
    vertex 167.59816750800235 10.76365881076689 3.690439044541826
    vertex 167.428164382383 12.763658810766886 4.100862896057946
    vertex 167.59816750800235 12.763658810766886 3.690439044541826
  endloop
endfacet
facet normal -0.7071067811865586 0.0 -0.7071067811865364
  outer loop
    vertex 167.15772846346056 12.763658810766886 4.453301847325301
    vertex 167.428164382383 10.76365881076689 4.100862896057946
    vertex 167.15772846346056 10.76365881076689 4.453301847325301
  endloop
endfacet
facet normal -0.866025403784461 0.0 -0.49999999999996114
  outer loop
    vertex 167.428164382383 10.76365881076689 4.100862896057946
    vertex 167.15772846346056 12.763658810766886 4.453301847325301
    vertex 167.428164382383 12.763658810766886 4.100862896057946
  endloop
endfacet
facet normal -0.9659258262890618 0.0 -0.2588190451025452
  outer loop
    vertex 167.59816750800235 12.763658810766886 3.690439044541826
    vertex 167.65615240825133 10.76365881076689 3.2499999999999996
    vertex 167.59816750800235 10.76365881076689 3.690439044541826
  endloop
endfacet
facet normal -1.0 0.0 6.683332421735268e-16
  outer loop
    vertex 167.65615240825133 10.76365881076689 3.2499999999999996
    vertex 167.59816750800235 12.763658810766886 3.690439044541826
    vertex 167.65615240825133 12.763658810766886 3.2499999999999996
  endloop
endfacet
facet normal -1.0 0.0 6.683332421735268e-16
  outer loop
    vertex 167.65615240825133 12.763658810766886 3.2499999999999996
    vertex 167.59816750800235 10.76365881076689 2.809560955458178
    vertex 167.65615240825133 10.76365881076689 3.2499999999999996
  endloop
endfacet
facet normal -0.9659258262890623 0.0 0.2588190451025431
  outer loop
    vertex 167.59816750800235 10.76365881076689 2.809560955458178
    vertex 167.65615240825133 12.763658810766886 3.2499999999999996
    vertex 167.59816750800235 12.763658810766886 2.809560955458178
  endloop
endfacet
facet normal 0.9659258262890628 0.0 -0.2588190451025417
  outer loop
    vertex 164.3185619403107 12.763658810766886 19.190439044541815
    vertex 164.48856506593003 10.76365881076689 19.600862896057947
    vertex 164.3185619403107 10.76365881076689 19.190439044541815
  endloop
endfacet
facet normal 0.86602540378446 0.0 -0.49999999999996275
  outer loop
    vertex 164.48856506593003 10.76365881076689 19.600862896057947
    vertex 164.3185619403107 12.763658810766886 19.190439044541815
    vertex 164.48856506593003 12.763658810766886 19.600862896057947
  endloop
endfacet
facet normal -0.2588190451025138 0.0 -0.9659258262890702
  outer loop
    vertex 166.3948656606771 12.763658810766886 4.893740891867088
    vertex 165.9544266161352 10.76365881076689 4.951725792116028
    vertex 165.9544266161352 12.763658810766886 4.951725792116028
  endloop
endfacet
facet normal 2.0210397243327183e-14 0.0 -1.0
  outer loop
    vertex 165.9544266161352 10.76365881076689 4.951725792116028
    vertex 166.3948656606771 12.763658810766886 4.893740891867088
    vertex 166.3948656606771 10.76365881076689 4.893740891867088
  endloop
endfacet
facet normal 0.2588190451025236 0.0 -0.9659258262890674
  outer loop
    vertex 165.52186378763597 12.763658810766886 20.39374089186709
    vertex 165.1114399361198 10.76365881076689 20.223737766247698
    vertex 165.1114399361198 12.763658810766886 20.223737766247698
  endloop
endfacet
facet normal 0.49999999999998124 0.0 -0.8660254037844494
  outer loop
    vertex 165.1114399361198 10.76365881076689 20.223737766247698
    vertex 165.52186378763597 12.763658810766886 20.39374089186709
    vertex 165.52186378763597 10.76365881076689 20.39374089186709
  endloop
endfacet
facet normal 0.2588190451025015 0.0 0.9659258262890735
  outer loop
    vertex 165.51398757159347 10.76365881076689 1.6062591081329056
    vertex 165.1035637200773 12.763658810766886 1.7762622337522842
    vertex 165.1035637200773 10.76365881076689 1.7762622337522842
  endloop
endfacet
facet normal 0.5000000000000088 0.0 0.8660254037844335
  outer loop
    vertex 165.1035637200773 12.763658810766886 1.7762622337522842
    vertex 165.51398757159347 10.76365881076689 1.6062591081329056
    vertex 165.51398757159347 12.763658810766886 1.6062591081329056
  endloop
endfacet
facet normal 0.5000000000000083 0.0 -0.8660254037844338
  outer loop
    vertex 165.1035637200773 12.763658810766886 4.723737766247714
    vertex 164.75112476881 10.76365881076689 4.453301847325271
    vertex 164.75112476881 12.763658810766886 4.453301847325271
  endloop
endfacet
facet normal 0.70710678118658 0.0 -0.7071067811865152
  outer loop
    vertex 164.75112476881 10.76365881076689 4.453301847325271
    vertex 165.1035637200773 12.763658810766886 4.723737766247714
    vertex 165.1035637200773 10.76365881076689 4.723737766247714
  endloop
endfacet
facet normal 1.0 0.0 9.267554291472772e-16
  outer loop
    vertex 164.25270082401923 12.763658810766886 3.249999999999997
    vertex 164.31068572426815 10.76365881076689 3.690439044541861
    vertex 164.25270082401923 10.76365881076689 3.249999999999997
  endloop
endfacet
facet normal 0.9659258262890589 0.0 -0.25881904510255577
  outer loop
    vertex 164.31068572426815 10.76365881076689 3.690439044541861
    vertex 164.25270082401923 12.763658810766886 3.249999999999997
    vertex 164.31068572426815 12.763658810766886 3.690439044541861
  endloop
endfacet
facet normal 0.8660254037844214 0.0 -0.50000000000003
  outer loop
    vertex 164.48068884988757 12.763658810766886 4.100862896057935
    vertex 164.75112476881 10.76365881076689 4.453301847325271
    vertex 164.48068884988757 10.76365881076689 4.100862896057935
  endloop
endfacet
facet normal 0.70710678118658 0.0 -0.7071067811865152
  outer loop
    vertex 164.75112476881 10.76365881076689 4.453301847325271
    vertex 164.48068884988757 12.763658810766886 4.100862896057935
    vertex 164.75112476881 12.763658810766886 4.453301847325271
  endloop
endfacet
facet normal 0.8660254037844214 0.0 0.5000000000000299
  outer loop
    vertex 164.48068884988757 12.763658810766886 2.399137103942064
    vertex 164.31068572426815 10.76365881076689 2.809560955458139
    vertex 164.48068884988757 10.76365881076689 2.399137103942064
  endloop
endfacet
facet normal 0.9659258262890588 0.0 0.25881904510255616
  outer loop
    vertex 164.31068572426815 10.76365881076689 2.809560955458139
    vertex 164.48068884988757 12.763658810766886 2.399137103942064
    vertex 164.31068572426815 12.763658810766886 2.809560955458139
  endloop
endfacet
facet normal 0.9659258262890589 0.0 -0.25881904510255577
  outer loop
    vertex 164.31068572426815 12.763658810766886 3.690439044541861
    vertex 164.48068884988757 10.76365881076689 4.100862896057935
    vertex 164.31068572426815 10.76365881076689 3.690439044541861
  endloop
endfacet
facet normal 0.8660254037844214 0.0 -0.50000000000003
  outer loop
    vertex 164.48068884988757 10.76365881076689 4.100862896057935
    vertex 164.31068572426815 12.763658810766886 3.690439044541861
    vertex 164.48068884988757 12.763658810766886 4.100862896057935
  endloop
endfacet
facet normal 0.9659258262890588 0.0 0.25881904510255616
  outer loop
    vertex 164.31068572426815 12.763658810766886 2.809560955458139
    vertex 164.25270082401923 10.76365881076689 3.249999999999997
    vertex 164.31068572426815 10.76365881076689 2.809560955458139
  endloop
endfacet
facet normal 1.0 0.0 9.267554291472772e-16
  outer loop
    vertex 164.25270082401923 10.76365881076689 3.249999999999997
    vertex 164.31068572426815 12.763658810766886 2.809560955458139
    vertex 164.25270082401923 12.763658810766886 3.249999999999997
  endloop
endfacet
facet normal 0.7071067811865801 0.0 0.7071067811865152
  outer loop
    vertex 164.75112476881 12.763658810766886 2.046698152674728
    vertex 164.48068884988757 10.76365881076689 2.399137103942064
    vertex 164.75112476881 10.76365881076689 2.046698152674728
  endloop
endfacet
facet normal 0.8660254037844214 0.0 0.5000000000000299
  outer loop
    vertex 164.48068884988757 10.76365881076689 2.399137103942064
    vertex 164.75112476881 12.763658810766886 2.046698152674728
    vertex 164.48068884988757 12.763658810766886 2.399137103942064
  endloop
endfacet
facet normal 0.5000000000000088 0.0 0.8660254037844335
  outer loop
    vertex 165.1035637200773 10.76365881076689 1.7762622337522842
    vertex 164.75112476881 12.763658810766886 2.046698152674728
    vertex 164.75112476881 10.76365881076689 2.046698152674728
  endloop
endfacet
facet normal 0.7071067811865801 0.0 0.7071067811865152
  outer loop
    vertex 164.75112476881 12.763658810766886 2.046698152674728
    vertex 165.1035637200773 10.76365881076689 1.7762622337522842
    vertex 165.1035637200773 12.763658810766886 1.7762622337522842
  endloop
endfacet
facet normal -0.7071067811865577 0.0 0.7071067811865374
  outer loop
    vertex 167.15772846346056 10.76365881076689 2.0466981526746992
    vertex 166.80528951219327 12.763658810766886 1.7762622337523033
    vertex 166.80528951219327 10.76365881076689 1.7762622337523033
  endloop
endfacet
facet normal -0.49999999999999856 0.0 0.8660254037844394
  outer loop
    vertex 166.80528951219327 12.763658810766886 1.7762622337523033
    vertex 167.15772846346056 10.76365881076689 2.0466981526746992
    vertex 167.15772846346056 12.763658810766886 2.0466981526746992
  endloop
endfacet
facet normal -0.49999999999999856 0.0 0.8660254037844394
  outer loop
    vertex 166.80528951219327 10.76365881076689 1.7762622337523033
    vertex 166.3948656606771 12.763658810766886 1.6062591081329136
    vertex 166.3948656606771 10.76365881076689 1.6062591081329136
  endloop
endfacet
facet normal -0.25881904510251424 0.0 0.9659258262890701
  outer loop
    vertex 166.3948656606771 12.763658810766886 1.6062591081329136
    vertex 166.80528951219327 10.76365881076689 1.7762622337523033
    vertex 166.80528951219327 12.763658810766886 1.7762622337523033
  endloop
endfacet
facet normal -0.25881904510251424 0.0 0.9659258262890701
  outer loop
    vertex 166.3948656606771 10.76365881076689 1.6062591081329136
    vertex 165.9544266161352 12.763658810766886 1.5482742078839715
    vertex 165.9544266161352 10.76365881076689 1.5482742078839715
  endloop
endfacet
facet normal 1.747468650536358e-14 0.0 1.0
  outer loop
    vertex 165.9544266161352 12.763658810766886 1.5482742078839715
    vertex 166.3948656606771 10.76365881076689 1.6062591081329136
    vertex 166.3948656606771 12.763658810766886 1.6062591081329136
  endloop
endfacet
facet normal 1.747468650536358e-14 0.0 1.0
  outer loop
    vertex 165.9544266161352 10.76365881076689 1.5482742078839715
    vertex 165.51398757159347 12.763658810766886 1.6062591081329056
    vertex 165.51398757159347 10.76365881076689 1.6062591081329056
  endloop
endfacet
facet normal 0.2588190451025015 0.0 0.9659258262890735
  outer loop
    vertex 165.51398757159347 12.763658810766886 1.6062591081329056
    vertex 165.9544266161352 10.76365881076689 1.5482742078839715
    vertex 165.9544266161352 12.763658810766886 1.5482742078839715
  endloop
endfacet
facet normal 0.49999999999998124 0.0 -0.8660254037844494
  outer loop
    vertex 165.1114399361198 12.763658810766886 20.223737766247698
    vertex 164.75900098485246 10.76365881076689 19.953301847325292
    vertex 164.75900098485246 12.763658810766886 19.953301847325292
  endloop
endfacet
facet normal 0.7071067811865399 0.0 -0.707106781186555
  outer loop
    vertex 164.75900098485246 10.76365881076689 19.953301847325292
    vertex 165.1114399361198 12.763658810766886 20.223737766247698
    vertex 165.1114399361198 10.76365881076689 20.223737766247698
  endloop
endfacet
facet normal -0.8660254037844616 0.0 0.49999999999996037
  outer loop
    vertex 167.428164382383 12.763658810766886 2.3991371039420515
    vertex 167.15772846346056 10.76365881076689 2.0466981526746992
    vertex 167.428164382383 10.76365881076689 2.3991371039420515
  endloop
endfacet
facet normal -0.7071067811865577 0.0 0.7071067811865374
  outer loop
    vertex 167.15772846346056 10.76365881076689 2.0466981526746992
    vertex 167.428164382383 12.763658810766886 2.3991371039420515
    vertex 167.15772846346056 12.763658810766886 2.0466981526746992
  endloop
endfacet
facet normal -1.3589442590861513e-14 0.0 1.0
  outer loop
    vertex 165.9623028321778 10.76365881076689 17.04827420788397
    vertex 165.5218637876359 12.763658810766886 17.106259108132907
    vertex 165.5218637876359 10.76365881076689 17.106259108132907
  endloop
endfacet
facet normal 0.2588190451025136 0.0 0.9659258262890701
  outer loop
    vertex 165.5218637876359 12.763658810766886 17.106259108132907
    vertex 165.9623028321778 10.76365881076689 17.04827420788397
    vertex 165.9623028321778 12.763658810766886 17.04827420788397
  endloop
endfacet
facet normal -0.0 1.0 -0.0
  outer loop
    vertex 160.95442661613527 12.763658810766886 1.0574874309554614e-15
    vertex 165.51398757159347 12.763658810766886 1.6062591081329056
    vertex 165.9544266161352 12.763658810766886 1.5482742078839715
  endloop
endfacet
facet normal -0.0 1.0 -0.0
  outer loop
    vertex 165.51398757159347 12.763658810766886 1.6062591081329056
    vertex 160.95442661613527 12.763658810766886 1.0574874309554614e-15
    vertex 165.1035637200773 12.763658810766886 1.7762622337522842
  endloop
endfacet
facet normal -0.0 1.0 -0.0
  outer loop
    vertex 165.1035637200773 12.763658810766886 1.7762622337522842
    vertex 160.95442661613527 12.763658810766886 1.0574874309554614e-15
    vertex 164.75112476881 12.763658810766886 2.046698152674728
  endloop
endfacet
facet normal -0.0 1.0 -0.0
  outer loop
    vertex 164.75112476881 12.763658810766886 2.046698152674728
    vertex 160.95442661613527 12.763658810766886 1.0574874309554614e-15
    vertex 164.48068884988757 12.763658810766886 2.399137103942064
  endloop
endfacet
facet normal -0.0 1.0 -0.0
  outer loop
    vertex 164.48068884988757 12.763658810766886 2.399137103942064
    vertex 160.95442661613527 12.763658810766886 1.0574874309554614e-15
    vertex 164.31068572426815 12.763658810766886 2.809560955458139
  endloop
endfacet
facet normal -0.0 1.0 -0.0
  outer loop
    vertex 164.31068572426815 12.763658810766886 2.809560955458139
    vertex 160.95442661613527 12.763658810766886 1.0574874309554614e-15
    vertex 160.95442661613527 12.763658810766886 22.0
  endloop
endfacet
facet normal -0.0 1.0 -0.0
  outer loop
    vertex 164.31068572426815 12.763658810766886 2.809560955458139
    vertex 160.95442661613527 12.763658810766886 22.0
    vertex 164.25270082401923 12.763658810766886 3.249999999999997
  endloop
endfacet
facet normal -0.0 1.0 -0.0
  outer loop
    vertex 164.25270082401923 12.763658810766886 3.249999999999997
    vertex 160.95442661613527 12.763658810766886 22.0
    vertex 164.31068572426815 12.763658810766886 3.690439044541861
  endloop
endfacet
facet normal -0.0 1.0 -0.0
  outer loop
    vertex 164.31068572426815 12.763658810766886 3.690439044541861
    vertex 160.95442661613527 12.763658810766886 22.0
    vertex 164.48068884988757 12.763658810766886 4.100862896057935
  endloop
endfacet
facet normal -0.0 1.0 -0.0
  outer loop
    vertex 164.48068884988757 12.763658810766886 4.100862896057935
    vertex 160.95442661613527 12.763658810766886 22.0
    vertex 164.75112476881 12.763658810766886 4.453301847325271
  endloop
endfacet
facet normal -0.0 1.0 -0.0
  outer loop
    vertex 164.75112476881 12.763658810766886 4.453301847325271
    vertex 160.95442661613527 12.763658810766886 22.0
    vertex 165.1035637200773 12.763658810766886 4.723737766247714
  endloop
endfacet
facet normal -0.0 1.0 -0.0
  outer loop
    vertex 165.1035637200773 12.763658810766886 4.723737766247714
    vertex 160.95442661613527 12.763658810766886 22.0
    vertex 165.51398757159347 12.763658810766886 4.893740891867093
  endloop
endfacet
facet normal -0.0 1.0 -0.0
  outer loop
    vertex 165.51398757159347 12.763658810766886 4.893740891867093
    vertex 160.95442661613527 12.763658810766886 22.0
    vertex 165.9544266161352 12.763658810766886 4.951725792116028
  endloop
endfacet
facet normal -0.0 1.0 -0.0
  outer loop
    vertex 165.9544266161352 12.763658810766886 4.951725792116028
    vertex 160.95442661613527 12.763658810766886 22.0
    vertex 164.75900098485246 12.763658810766886 17.546698152674704
  endloop
endfacet
facet normal -0.0 1.0 -0.0
  outer loop
    vertex 165.9544266161352 12.763658810766886 4.951725792116028
    vertex 164.75900098485246 12.763658810766886 17.546698152674704
    vertex 165.11143993611975 12.763658810766886 17.276262233752302
  endloop
endfacet
facet normal -0.0 1.0 -0.0
  outer loop
    vertex 165.9544266161352 12.763658810766886 4.951725792116028
    vertex 165.11143993611975 12.763658810766886 17.276262233752302
    vertex 165.5218637876359 12.763658810766886 17.106259108132907
  endloop
endfacet
facet normal -0.0 1.0 -0.0
  outer loop
    vertex 165.9544266161352 12.763658810766886 4.951725792116028
    vertex 165.5218637876359 12.763658810766886 17.106259108132907
    vertex 165.9623028321778 12.763658810766886 17.04827420788397
  endloop
endfacet
facet normal -0.0 1.0 -0.0
  outer loop
    vertex 164.75900098485246 12.763658810766886 17.546698152674704
    vertex 160.95442661613527 12.763658810766886 22.0
    vertex 164.48856506593003 12.763658810766886 17.89913710394205
  endloop
endfacet
facet normal -0.0 1.0 -0.0
  outer loop
    vertex 164.48856506593003 12.763658810766886 17.89913710394205
    vertex 160.95442661613527 12.763658810766886 22.0
    vertex 164.3185619403107 12.763658810766886 18.309560955458167
  endloop
endfacet
facet normal -0.0 1.0 -0.0
  outer loop
    vertex 164.3185619403107 12.763658810766886 18.309560955458167
    vertex 160.95442661613527 12.763658810766886 22.0
    vertex 164.26057704006172 12.763658810766886 18.749999999999996
  endloop
endfacet
facet normal -0.0 1.0 -0.0
  outer loop
    vertex 164.26057704006172 12.763658810766886 18.749999999999996
    vertex 160.95442661613527 12.763658810766886 22.0
    vertex 164.3185619403107 12.763658810766886 19.190439044541815
  endloop
endfacet
facet normal -0.0 1.0 -0.0
  outer loop
    vertex 164.3185619403107 12.763658810766886 19.190439044541815
    vertex 160.95442661613527 12.763658810766886 22.0
    vertex 164.48856506593003 12.763658810766886 19.600862896057947
  endloop
endfacet
facet normal -0.0 1.0 -0.0
  outer loop
    vertex 164.48856506593003 12.763658810766886 19.600862896057947
    vertex 160.95442661613527 12.763658810766886 22.0
    vertex 164.75900098485246 12.763658810766886 19.953301847325292
  endloop
endfacet
facet normal -0.0 1.0 -0.0
  outer loop
    vertex 164.75900098485246 12.763658810766886 19.953301847325292
    vertex 160.95442661613527 12.763658810766886 22.0
    vertex 165.1114399361198 12.763658810766886 20.223737766247698
  endloop
endfacet
facet normal -0.0 1.0 -0.0
  outer loop
    vertex 165.1114399361198 12.763658810766886 20.223737766247698
    vertex 160.95442661613527 12.763658810766886 22.0
    vertex 165.52186378763597 12.763658810766886 20.39374089186709
  endloop
endfacet
facet normal -0.0 1.0 -0.0
  outer loop
    vertex 165.52186378763597 12.763658810766886 20.39374089186709
    vertex 160.95442661613527 12.763658810766886 22.0
    vertex 165.96230283217778 12.763658810766886 20.451725792116026
  endloop
endfacet
facet normal -0.0 1.0 -0.0
  outer loop
    vertex 169.95442661613524 12.763658810766886 0.0
    vertex 167.65615240825133 12.763658810766886 3.2499999999999996
    vertex 169.95442661613524 12.763658810766886 22.0
  endloop
endfacet
facet normal -0.0 1.0 -0.0
  outer loop
    vertex 167.65615240825133 12.763658810766886 3.2499999999999996
    vertex 169.95442661613524 12.763658810766886 0.0
    vertex 167.59816750800235 12.763658810766886 2.809560955458178
  endloop
endfacet
facet normal -0.0 1.0 -0.0
  outer loop
    vertex 167.59816750800235 12.763658810766886 2.809560955458178
    vertex 169.95442661613524 12.763658810766886 0.0
    vertex 167.428164382383 12.763658810766886 2.3991371039420515
  endloop
endfacet
facet normal -0.0 1.0 -0.0
  outer loop
    vertex 167.428164382383 12.763658810766886 2.3991371039420515
    vertex 169.95442661613524 12.763658810766886 0.0
    vertex 167.15772846346056 12.763658810766886 2.0466981526746992
  endloop
endfacet
facet normal -0.0 1.0 -0.0
  outer loop
    vertex 167.15772846346056 12.763658810766886 2.0466981526746992
    vertex 169.95442661613524 12.763658810766886 0.0
    vertex 166.80528951219327 12.763658810766886 1.7762622337523033
  endloop
endfacet
facet normal -0.0 1.0 -0.0
  outer loop
    vertex 166.80528951219327 12.763658810766886 1.7762622337523033
    vertex 169.95442661613524 12.763658810766886 0.0
    vertex 166.3948656606771 12.763658810766886 1.6062591081329136
  endloop
endfacet
facet normal -0.0 1.0 -0.0
  outer loop
    vertex 166.3948656606771 12.763658810766886 1.6062591081329136
    vertex 169.95442661613524 12.763658810766886 0.0
    vertex 160.95442661613527 12.763658810766886 1.0574874309554614e-15
  endloop
endfacet
facet normal -0.0 1.0 -0.0
  outer loop
    vertex 166.3948656606771 12.763658810766886 1.6062591081329136
    vertex 160.95442661613527 12.763658810766886 1.0574874309554614e-15
    vertex 165.9544266161352 12.763658810766886 1.5482742078839715
  endloop
endfacet
facet normal -0.0 1.0 -0.0
  outer loop
    vertex 169.95442661613524 12.763658810766886 22.0
    vertex 167.65615240825133 12.763658810766886 3.2499999999999996
    vertex 167.59816750800235 12.763658810766886 3.690439044541826
  endloop
endfacet
facet normal -0.0 1.0 -0.0
  outer loop
    vertex 169.95442661613524 12.763658810766886 22.0
    vertex 167.59816750800235 12.763658810766886 3.690439044541826
    vertex 167.428164382383 12.763658810766886 4.100862896057946
  endloop
endfacet
facet normal -0.0 1.0 -0.0
  outer loop
    vertex 169.95442661613524 12.763658810766886 22.0
    vertex 167.428164382383 12.763658810766886 4.100862896057946
    vertex 167.15772846346056 12.763658810766886 4.453301847325301
  endloop
endfacet
facet normal -0.0 1.0 -0.0
  outer loop
    vertex 169.95442661613524 12.763658810766886 22.0
    vertex 167.15772846346056 12.763658810766886 4.453301847325301
    vertex 166.80528951219327 12.763658810766886 4.723737766247696
  endloop
endfacet
facet normal -0.0 1.0 -0.0
  outer loop
    vertex 169.95442661613524 12.763658810766886 22.0
    vertex 166.80528951219327 12.763658810766886 4.723737766247696
    vertex 166.3948656606771 12.763658810766886 4.893740891867088
  endloop
endfacet
facet normal -0.0 1.0 -0.0
  outer loop
    vertex 169.95442661613524 12.763658810766886 22.0
    vertex 166.3948656606771 12.763658810766886 4.893740891867088
    vertex 165.9544266161352 12.763658810766886 4.951725792116028
  endloop
endfacet
facet normal -0.0 1.0 -0.0
  outer loop
    vertex 169.95442661613524 12.763658810766886 22.0
    vertex 165.9544266161352 12.763658810766886 4.951725792116028
    vertex 167.43604059842545 12.763658810766886 17.899137103942067
  endloop
endfacet
facet normal -0.0 1.0 -0.0
  outer loop
    vertex 167.43604059842545 12.763658810766886 17.899137103942067
    vertex 165.9544266161352 12.763658810766886 4.951725792116028
    vertex 167.16560467950305 12.763658810766886 17.54669815267473
  endloop
endfacet
facet normal -0.0 1.0 -0.0
  outer loop
    vertex 167.16560467950305 12.763658810766886 17.54669815267473
    vertex 165.9544266161352 12.763658810766886 4.951725792116028
    vertex 166.81316572823573 12.763658810766886 17.27626223375228
  endloop
endfacet
facet normal -0.0 1.0 -0.0
  outer loop
    vertex 166.81316572823573 12.763658810766886 17.27626223375228
    vertex 165.9544266161352 12.763658810766886 4.951725792116028
    vertex 166.4027418767196 12.763658810766886 17.106259108132903
  endloop
endfacet
facet normal -0.0 1.0 -0.0
  outer loop
    vertex 166.4027418767196 12.763658810766886 17.106259108132903
    vertex 165.9544266161352 12.763658810766886 4.951725792116028
    vertex 165.9623028321778 12.763658810766886 17.04827420788397
  endloop
endfacet
facet normal -0.0 1.0 -0.0
  outer loop
    vertex 169.95442661613524 12.763658810766886 22.0
    vertex 167.43604059842545 12.763658810766886 17.899137103942067
    vertex 167.60604372404487 12.763658810766886 18.309560955458128
  endloop
endfacet
facet normal -0.0 1.0 -0.0
  outer loop
    vertex 169.95442661613524 12.763658810766886 22.0
    vertex 167.60604372404487 12.763658810766886 18.309560955458128
    vertex 167.6640286242938 12.763658810766886 18.75
  endloop
endfacet
facet normal -0.0 1.0 -0.0
  outer loop
    vertex 169.95442661613524 12.763658810766886 22.0
    vertex 167.6640286242938 12.763658810766886 18.75
    vertex 167.60604372404487 12.763658810766886 19.190439044541854
  endloop
endfacet
facet normal -0.0 1.0 -0.0
  outer loop
    vertex 169.95442661613524 12.763658810766886 22.0
    vertex 167.60604372404487 12.763658810766886 19.190439044541854
    vertex 167.43604059842545 12.763658810766886 19.60086289605793
  endloop
endfacet
facet normal -0.0 1.0 -0.0
  outer loop
    vertex 169.95442661613524 12.763658810766886 22.0
    vertex 167.43604059842545 12.763658810766886 19.60086289605793
    vertex 167.16560467950305 12.763658810766886 19.953301847325264
  endloop
endfacet
facet normal -0.0 1.0 -0.0
  outer loop
    vertex 169.95442661613524 12.763658810766886 22.0
    vertex 167.16560467950305 12.763658810766886 19.953301847325264
    vertex 166.8131657282358 12.763658810766886 20.223737766247677
  endloop
endfacet
facet normal -0.0 1.0 -0.0
  outer loop
    vertex 169.95442661613524 12.763658810766886 22.0
    vertex 166.8131657282358 12.763658810766886 20.223737766247677
    vertex 166.40274187671952 12.763658810766886 20.393740891867093
  endloop
endfacet
facet normal -0.0 1.0 -0.0
  outer loop
    vertex 169.95442661613524 12.763658810766886 22.0
    vertex 166.40274187671952 12.763658810766886 20.393740891867093
    vertex 165.96230283217778 12.763658810766886 20.451725792116026
  endloop
endfacet
facet normal -0.0 1.0 -0.0
  outer loop
    vertex 169.95442661613524 12.763658810766886 22.0
    vertex 165.96230283217778 12.763658810766886 20.451725792116026
    vertex 160.95442661613527 12.763658810766886 22.0
  endloop
endfacet
facet normal 0.2588190451025018 0.0 -0.9659258262890733
  outer loop
    vertex 165.51398757159347 12.763658810766886 4.893740891867093
    vertex 165.1035637200773 10.76365881076689 4.723737766247714
    vertex 165.1035637200773 12.763658810766886 4.723737766247714
  endloop
endfacet
facet normal 0.5000000000000083 0.0 -0.8660254037844338
  outer loop
    vertex 165.1035637200773 10.76365881076689 4.723737766247714
    vertex 165.51398757159347 12.763658810766886 4.893740891867093
    vertex 165.51398757159347 10.76365881076689 4.893740891867093
  endloop
endfacet
facet normal -0.7071067811865813 0.0 -0.7071067811865136
  outer loop
    vertex 167.16560467950305 12.763658810766886 19.953301847325264
    vertex 166.8131657282358 10.76365881076689 20.223737766247677
    vertex 166.8131657282358 12.763658810766886 20.223737766247677
  endloop
endfacet
facet normal -0.500000000000012 0.0 -0.8660254037844318
  outer loop
    vertex 166.8131657282358 10.76365881076689 20.223737766247677
    vertex 167.16560467950305 12.763658810766886 19.953301847325264
    vertex 167.16560467950305 10.76365881076689 19.953301847325264
  endloop
endfacet
facet normal 0.2588190451025136 0.0 0.9659258262890701
  outer loop
    vertex 165.5218637876359 10.76365881076689 17.106259108132907
    vertex 165.11143993611975 12.763658810766886 17.276262233752302
    vertex 165.11143993611975 10.76365881076689 17.276262233752302
  endloop
endfacet
facet normal 0.5000000000000062 0.0 0.866025403784435
  outer loop
    vertex 165.11143993611975 12.763658810766886 17.276262233752302
    vertex 165.5218637876359 10.76365881076689 17.106259108132907
    vertex 165.5218637876359 12.763658810766886 17.106259108132907
  endloop
endfacet
facet normal -0.2588190451025023 0.0 -0.9659258262890732
  outer loop
    vertex 166.40274187671952 12.763658810766886 20.393740891867093
    vertex 165.96230283217778 10.76365881076689 20.451725792116026
    vertex 165.96230283217778 12.763658810766886 20.451725792116026
  endloop
endfacet
facet normal -6.959576828500241e-15 0.0 -1.0
  outer loop
    vertex 165.96230283217778 10.76365881076689 20.451725792116026
    vertex 166.40274187671952 12.763658810766886 20.393740891867093
    vertex 166.40274187671952 10.76365881076689 20.393740891867093
  endloop
endfacet
facet normal -0.500000000000012 0.0 -0.8660254037844318
  outer loop
    vertex 166.8131657282358 12.763658810766886 20.223737766247677
    vertex 166.40274187671952 10.76365881076689 20.393740891867093
    vertex 166.40274187671952 12.763658810766886 20.393740891867093
  endloop
endfacet
facet normal -0.2588190451025023 0.0 -0.9659258262890732
  outer loop
    vertex 166.40274187671952 10.76365881076689 20.393740891867093
    vertex 166.8131657282358 12.763658810766886 20.223737766247677
    vertex 166.8131657282358 10.76365881076689 20.223737766247677
  endloop
endfacet
facet normal 0.86602540378446 0.0 -0.49999999999996275
  outer loop
    vertex 164.48856506593003 12.763658810766886 19.600862896057947
    vertex 164.75900098485246 10.76365881076689 19.953301847325292
    vertex 164.48856506593003 10.76365881076689 19.600862896057947
  endloop
endfacet
facet normal 0.7071067811865399 0.0 -0.707106781186555
  outer loop
    vertex 164.75900098485246 10.76365881076689 19.953301847325292
    vertex 164.48856506593003 12.763658810766886 19.600862896057947
    vertex 164.75900098485246 12.763658810766886 19.953301847325292
  endloop
endfacet
facet normal 0.9659258262890614 0.0 0.258819045102546
  outer loop
    vertex 164.3185619403107 12.763658810766886 18.309560955458167
    vertex 164.26057704006172 10.76365881076689 18.749999999999996
    vertex 164.3185619403107 10.76365881076689 18.309560955458167
  endloop
endfacet
facet normal 1.0 0.0 -1.6663775504859937e-15
  outer loop
    vertex 164.26057704006172 10.76365881076689 18.749999999999996
    vertex 164.3185619403107 12.763658810766886 18.309560955458167
    vertex 164.26057704006172 12.763658810766886 18.749999999999996
  endloop
endfacet
facet normal 0.7071067811865597 0.0 0.7071067811865356
  outer loop
    vertex 164.75900098485246 12.763658810766886 17.546698152674704
    vertex 164.48856506593003 10.76365881076689 17.89913710394205
    vertex 164.75900098485246 10.76365881076689 17.546698152674704
  endloop
endfacet
facet normal 0.8660254037844579 0.0 0.49999999999996636
  outer loop
    vertex 164.48856506593003 10.76365881076689 17.89913710394205
    vertex 164.75900098485246 12.763658810766886 17.546698152674704
    vertex 164.48856506593003 12.763658810766886 17.89913710394205
  endloop
endfacet
facet normal 0.5000000000000062 0.0 0.866025403784435
  outer loop
    vertex 165.11143993611975 10.76365881076689 17.276262233752302
    vertex 164.75900098485246 12.763658810766886 17.546698152674704
    vertex 164.75900098485246 10.76365881076689 17.546698152674704
  endloop
endfacet
facet normal 0.7071067811865597 0.0 0.7071067811865356
  outer loop
    vertex 164.75900098485246 12.763658810766886 17.546698152674704
    vertex 165.11143993611975 10.76365881076689 17.276262233752302
    vertex 165.11143993611975 12.763658810766886 17.276262233752302
  endloop
endfacet
facet normal 0.8660254037844579 0.0 0.49999999999996636
  outer loop
    vertex 164.48856506593003 12.763658810766886 17.89913710394205
    vertex 164.3185619403107 10.76365881076689 18.309560955458167
    vertex 164.48856506593003 10.76365881076689 17.89913710394205
  endloop
endfacet
facet normal 0.9659258262890614 0.0 0.258819045102546
  outer loop
    vertex 164.3185619403107 10.76365881076689 18.309560955458167
    vertex 164.48856506593003 12.763658810766886 17.89913710394205
    vertex 164.3185619403107 12.763658810766886 18.309560955458167
  endloop
endfacet
facet normal 1.0 0.0 -1.6663775504859937e-15
  outer loop
    vertex 164.26057704006172 12.763658810766886 18.749999999999996
    vertex 164.3185619403107 10.76365881076689 19.190439044541815
    vertex 164.26057704006172 10.76365881076689 18.749999999999996
  endloop
endfacet
facet normal 0.9659258262890628 0.0 -0.2588190451025417
  outer loop
    vertex 164.3185619403107 10.76365881076689 19.190439044541815
    vertex 164.26057704006172 12.763658810766886 18.749999999999996
    vertex 164.3185619403107 12.763658810766886 19.190439044541815
  endloop
endfacet
facet normal -0.5000000000000286 0.0 0.8660254037844222
  outer loop
    vertex 166.81316572823573 10.76365881076689 17.27626223375228
    vertex 166.4027418767196 12.763658810766886 17.106259108132903
    vertex 166.4027418767196 10.76365881076689 17.106259108132903
  endloop
endfacet
facet normal -0.25881904510251263 0.0 0.9659258262890704
  outer loop
    vertex 166.4027418767196 12.763658810766886 17.106259108132903
    vertex 166.81316572823573 10.76365881076689 17.27626223375228
    vertex 166.81316572823573 12.763658810766886 17.27626223375228
  endloop
endfacet
facet normal -1.1749860343949596e-16 0.0 -1.0
  outer loop
    vertex 169.95442661613524 12.763658810766886 0.0
    vertex 160.95442661613527 9.763658810766891 1.0574874309554614e-15
    vertex 160.95442661613527 12.763658810766886 1.0574874309554614e-15
  endloop
endfacet
facet normal -1.1749860343949596e-16 0.0 -1.0
  outer loop
    vertex 160.95442661613527 9.763658810766891 1.0574874309554614e-15
    vertex 169.95442661613524 12.763658810766886 0.0
    vertex 169.95442661613524 9.763658810766891 0.0
  endloop
endfacet
facet normal 0.0 -1.0 0.0
  outer loop
    vertex 169.95442661613524 9.763658810766891 0.0
    vertex 167.70442661613527 9.763658810766891 0.21891108675445026
    vertex 160.95442661613527 9.763658810766891 1.0574874309554614e-15
  endloop
endfacet
facet normal 0.0 -1.0 0.0
  outer loop
    vertex 167.70442661613527 9.763658810766891 0.21891108675445026
    vertex 169.95442661613524 9.763658810766891 0.0
    vertex 169.45442661613527 9.763658810766891 3.2499999999999996
  endloop
endfacet
facet normal 0.0 -1.0 0.0
  outer loop
    vertex 169.45442661613527 9.763658810766891 3.2499999999999996
    vertex 169.95442661613524 9.763658810766891 0.0
    vertex 169.95442661613524 9.763658810766891 22.0
  endloop
endfacet
facet normal 0.0 -1.0 0.0
  outer loop
    vertex 160.95442661613527 9.763658810766891 1.0574874309554614e-15
    vertex 167.70442661613527 9.763658810766891 0.21891108675445026
    vertex 164.20442661613524 9.763658810766891 0.2189110867544499
  endloop
endfacet
facet normal 0.0 -1.0 0.0
  outer loop
    vertex 169.45442661613527 9.763658810766891 3.2499999999999996
    vertex 169.95442661613524 9.763658810766891 22.0
    vertex 167.70442661613527 9.763658810766891 6.28108891324555
  endloop
endfacet
facet normal 0.0 -1.0 0.0
  outer loop
    vertex 167.70442661613527 9.763658810766891 6.28108891324555
    vertex 169.95442661613524 9.763658810766891 22.0
    vertex 169.46230283217778 9.763658810766891 18.749999999999996
  endloop
endfacet
facet normal 0.0 -1.0 0.0
  outer loop
    vertex 167.70442661613527 9.763658810766891 6.28108891324555
    vertex 169.46230283217778 9.763658810766891 18.749999999999996
    vertex 167.71230283217778 9.763658810766891 15.718911086754447
  endloop
endfacet
facet normal 0.0 -1.0 0.0
  outer loop
    vertex 169.46230283217778 9.763658810766891 18.749999999999996
    vertex 169.95442661613524 9.763658810766891 22.0
    vertex 167.71230283217778 9.763658810766891 21.781088913245547
  endloop
endfacet
facet normal 0.0 -1.0 0.0
  outer loop
    vertex 160.95442661613527 9.763658810766891 1.0574874309554614e-15
    vertex 162.45442661613524 9.763658810766891 3.249999999999999
    vertex 160.95442661613527 9.763658810766891 22.0
  endloop
endfacet
facet normal 0.0 -1.0 0.0
  outer loop
    vertex 162.45442661613524 9.763658810766891 3.249999999999999
    vertex 160.95442661613527 9.763658810766891 1.0574874309554614e-15
    vertex 164.20442661613524 9.763658810766891 0.2189110867544499
  endloop
endfacet
facet normal 0.0 -1.0 0.0
  outer loop
    vertex 160.95442661613527 9.763658810766891 22.0
    vertex 162.45442661613524 9.763658810766891 3.249999999999999
    vertex 164.20442661613524 9.763658810766891 6.281088913245548
  endloop
endfacet
facet normal 0.0 -1.0 0.0
  outer loop
    vertex 160.95442661613527 9.763658810766891 22.0
    vertex 164.20442661613524 9.763658810766891 6.281088913245548
    vertex 167.70442661613527 9.763658810766891 6.28108891324555
  endloop
endfacet
facet normal 0.0 -1.0 0.0
  outer loop
    vertex 160.95442661613527 9.763658810766891 22.0
    vertex 167.70442661613527 9.763658810766891 6.28108891324555
    vertex 162.46230283217776 9.763658810766891 18.749999999999996
  endloop
endfacet
facet normal 0.0 -1.0 0.0
  outer loop
    vertex 162.46230283217776 9.763658810766891 18.749999999999996
    vertex 167.70442661613527 9.763658810766891 6.28108891324555
    vertex 164.21230283217776 9.763658810766891 15.718911086754447
  endloop
endfacet
facet normal 0.0 -1.0 0.0
  outer loop
    vertex 164.21230283217776 9.763658810766891 15.718911086754447
    vertex 167.70442661613527 9.763658810766891 6.28108891324555
    vertex 167.71230283217778 9.763658810766891 15.718911086754447
  endloop
endfacet
facet normal 0.0 -1.0 0.0
  outer loop
    vertex 160.95442661613527 9.763658810766891 22.0
    vertex 162.46230283217776 9.763658810766891 18.749999999999996
    vertex 164.21230283217776 9.763658810766891 21.781088913245544
  endloop
endfacet
facet normal 0.0 -1.0 0.0
  outer loop
    vertex 160.95442661613527 9.763658810766891 22.0
    vertex 164.21230283217776 9.763658810766891 21.781088913245544
    vertex 167.71230283217778 9.763658810766891 21.781088913245547
  endloop
endfacet
facet normal 0.0 -1.0 0.0
  outer loop
    vertex 160.95442661613527 9.763658810766891 22.0
    vertex 167.71230283217778 9.763658810766891 21.781088913245547
    vertex 169.95442661613524 9.763658810766891 22.0
  endloop
endfacet
facet normal 1.0 -0.0 -0.0
  outer loop
    vertex 169.95442661613524 12.763658810766886 0.0
    vertex 169.95442661613524 9.763658810766891 22.0
    vertex 169.95442661613524 9.763658810766891 0.0
  endloop
endfacet
facet normal 1.0 -0.0 -0.0
  outer loop
    vertex 169.95442661613524 9.763658810766891 22.0
    vertex 169.95442661613524 12.763658810766886 0.0
    vertex 169.95442661613524 12.763658810766886 22.0
  endloop
endfacet
facet normal -0.0 -0.0 1.0
  outer loop
    vertex 169.95442661613524 9.763658810766891 22.0
    vertex 160.95442661613527 12.763658810766886 22.0
    vertex 160.95442661613527 9.763658810766891 22.0
  endloop
endfacet
facet normal -0.0 -0.0 1.0
  outer loop
    vertex 160.95442661613527 12.763658810766886 22.0
    vertex 169.95442661613524 9.763658810766891 22.0
    vertex 169.95442661613524 12.763658810766886 22.0
  endloop
endfacet
facet normal 0.0 -1.0 0.0
  outer loop
    vertex 169.46230283217778 10.76365881076689 18.749999999999996
    vertex 164.21230283217776 10.76365881076689 15.718911086754447
    vertex 167.71230283217778 10.76365881076689 15.718911086754447
  endloop
endfacet
facet normal 0.0 -1.0 0.0
  outer loop
    vertex 164.21230283217776 10.76365881076689 15.718911086754447
    vertex 169.46230283217778 10.76365881076689 18.749999999999996
    vertex 166.81316572823573 10.76365881076689 17.27626223375228
  endloop
endfacet
facet normal 0.0 -1.0 0.0
  outer loop
    vertex 164.21230283217776 10.76365881076689 15.718911086754447
    vertex 166.81316572823573 10.76365881076689 17.27626223375228
    vertex 166.4027418767196 10.76365881076689 17.106259108132903
  endloop
endfacet
facet normal 0.0 -1.0 0.0
  outer loop
    vertex 164.21230283217776 10.76365881076689 15.718911086754447
    vertex 166.4027418767196 10.76365881076689 17.106259108132903
    vertex 165.9623028321778 10.76365881076689 17.04827420788397
  endloop
endfacet
facet normal 0.0 -1.0 0.0
  outer loop
    vertex 166.81316572823573 10.76365881076689 17.27626223375228
    vertex 169.46230283217778 10.76365881076689 18.749999999999996
    vertex 167.16560467950305 10.76365881076689 17.54669815267473
  endloop
endfacet
facet normal 0.0 -1.0 0.0
  outer loop
    vertex 167.16560467950305 10.76365881076689 17.54669815267473
    vertex 169.46230283217778 10.76365881076689 18.749999999999996
    vertex 167.43604059842545 10.76365881076689 17.899137103942067
  endloop
endfacet
facet normal 0.0 -1.0 0.0
  outer loop
    vertex 167.43604059842545 10.76365881076689 17.899137103942067
    vertex 169.46230283217778 10.76365881076689 18.749999999999996
    vertex 167.60604372404487 10.76365881076689 18.309560955458128
  endloop
endfacet
facet normal 0.0 -1.0 0.0
  outer loop
    vertex 167.60604372404487 10.76365881076689 18.309560955458128
    vertex 169.46230283217778 10.76365881076689 18.749999999999996
    vertex 167.6640286242938 10.76365881076689 18.75
  endloop
endfacet
facet normal 0.0 -1.0 0.0
  outer loop
    vertex 167.6640286242938 10.76365881076689 18.75
    vertex 169.46230283217778 10.76365881076689 18.749999999999996
    vertex 167.71230283217778 10.76365881076689 21.781088913245547
  endloop
endfacet
facet normal 0.0 -1.0 0.0
  outer loop
    vertex 167.6640286242938 10.76365881076689 18.75
    vertex 167.71230283217778 10.76365881076689 21.781088913245547
    vertex 167.60604372404487 10.76365881076689 19.190439044541854
  endloop
endfacet
facet normal 0.0 -1.0 0.0
  outer loop
    vertex 167.60604372404487 10.76365881076689 19.190439044541854
    vertex 167.71230283217778 10.76365881076689 21.781088913245547
    vertex 167.43604059842545 10.76365881076689 19.60086289605793
  endloop
endfacet
facet normal 0.0 -1.0 0.0
  outer loop
    vertex 167.43604059842545 10.76365881076689 19.60086289605793
    vertex 167.71230283217778 10.76365881076689 21.781088913245547
    vertex 167.16560467950305 10.76365881076689 19.953301847325264
  endloop
endfacet
facet normal 0.0 -1.0 0.0
  outer loop
    vertex 167.16560467950305 10.76365881076689 19.953301847325264
    vertex 167.71230283217778 10.76365881076689 21.781088913245547
    vertex 166.8131657282358 10.76365881076689 20.223737766247677
  endloop
endfacet
facet normal 0.0 -1.0 0.0
  outer loop
    vertex 166.8131657282358 10.76365881076689 20.223737766247677
    vertex 167.71230283217778 10.76365881076689 21.781088913245547
    vertex 166.40274187671952 10.76365881076689 20.393740891867093
  endloop
endfacet
facet normal 0.0 -1.0 0.0
  outer loop
    vertex 166.40274187671952 10.76365881076689 20.393740891867093
    vertex 167.71230283217778 10.76365881076689 21.781088913245547
    vertex 165.96230283217778 10.76365881076689 20.451725792116026
  endloop
endfacet
facet normal 0.0 -1.0 0.0
  outer loop
    vertex 165.96230283217778 10.76365881076689 20.451725792116026
    vertex 167.71230283217778 10.76365881076689 21.781088913245547
    vertex 164.21230283217776 10.76365881076689 21.781088913245544
  endloop
endfacet
facet normal 0.0 -1.0 0.0
  outer loop
    vertex 164.21230283217776 10.76365881076689 15.718911086754447
    vertex 165.11143993611975 10.76365881076689 17.276262233752302
    vertex 162.46230283217776 10.76365881076689 18.749999999999996
  endloop
endfacet
facet normal 0.0 -1.0 0.0
  outer loop
    vertex 165.11143993611975 10.76365881076689 17.276262233752302
    vertex 164.21230283217776 10.76365881076689 15.718911086754447
    vertex 165.5218637876359 10.76365881076689 17.106259108132907
  endloop
endfacet
facet normal 0.0 -1.0 0.0
  outer loop
    vertex 165.5218637876359 10.76365881076689 17.106259108132907
    vertex 164.21230283217776 10.76365881076689 15.718911086754447
    vertex 165.9623028321778 10.76365881076689 17.04827420788397
  endloop
endfacet
facet normal 0.0 -1.0 0.0
  outer loop
    vertex 162.46230283217776 10.76365881076689 18.749999999999996
    vertex 165.11143993611975 10.76365881076689 17.276262233752302
    vertex 164.75900098485246 10.76365881076689 17.546698152674704
  endloop
endfacet
facet normal 0.0 -1.0 0.0
  outer loop
    vertex 162.46230283217776 10.76365881076689 18.749999999999996
    vertex 164.75900098485246 10.76365881076689 17.546698152674704
    vertex 164.48856506593003 10.76365881076689 17.89913710394205
  endloop
endfacet
facet normal 0.0 -1.0 0.0
  outer loop
    vertex 162.46230283217776 10.76365881076689 18.749999999999996
    vertex 164.48856506593003 10.76365881076689 17.89913710394205
    vertex 164.3185619403107 10.76365881076689 18.309560955458167
  endloop
endfacet
facet normal 0.0 -1.0 0.0
  outer loop
    vertex 162.46230283217776 10.76365881076689 18.749999999999996
    vertex 164.3185619403107 10.76365881076689 18.309560955458167
    vertex 164.26057704006172 10.76365881076689 18.749999999999996
  endloop
endfacet
facet normal 0.0 -1.0 0.0
  outer loop
    vertex 162.46230283217776 10.76365881076689 18.749999999999996
    vertex 164.26057704006172 10.76365881076689 18.749999999999996
    vertex 164.3185619403107 10.76365881076689 19.190439044541815
  endloop
endfacet
facet normal 0.0 -1.0 0.0
  outer loop
    vertex 162.46230283217776 10.76365881076689 18.749999999999996
    vertex 164.3185619403107 10.76365881076689 19.190439044541815
    vertex 164.21230283217776 10.76365881076689 21.781088913245544
  endloop
endfacet
facet normal 0.0 -1.0 0.0
  outer loop
    vertex 164.21230283217776 10.76365881076689 21.781088913245544
    vertex 164.3185619403107 10.76365881076689 19.190439044541815
    vertex 164.48856506593003 10.76365881076689 19.600862896057947
  endloop
endfacet
facet normal 0.0 -1.0 0.0
  outer loop
    vertex 164.21230283217776 10.76365881076689 21.781088913245544
    vertex 164.48856506593003 10.76365881076689 19.600862896057947
    vertex 164.75900098485246 10.76365881076689 19.953301847325292
  endloop
endfacet
facet normal 0.0 -1.0 0.0
  outer loop
    vertex 164.21230283217776 10.76365881076689 21.781088913245544
    vertex 164.75900098485246 10.76365881076689 19.953301847325292
    vertex 165.1114399361198 10.76365881076689 20.223737766247698
  endloop
endfacet
facet normal 0.0 -1.0 0.0
  outer loop
    vertex 164.21230283217776 10.76365881076689 21.781088913245544
    vertex 165.1114399361198 10.76365881076689 20.223737766247698
    vertex 165.52186378763597 10.76365881076689 20.39374089186709
  endloop
endfacet
facet normal 0.0 -1.0 0.0
  outer loop
    vertex 164.21230283217776 10.76365881076689 21.781088913245544
    vertex 165.52186378763597 10.76365881076689 20.39374089186709
    vertex 165.96230283217778 10.76365881076689 20.451725792116026
  endloop
endfacet
facet normal -0.8660254037844387 0.0 0.5000000000000002
  outer loop
    vertex 169.46230283217778 10.76365881076689 18.749999999999996
    vertex 167.71230283217778 9.763658810766891 15.718911086754447
    vertex 169.46230283217778 9.763658810766891 18.749999999999996
  endloop
endfacet
facet normal -0.8660254037844387 0.0 0.5000000000000002
  outer loop
    vertex 167.71230283217778 9.763658810766891 15.718911086754447
    vertex 169.46230283217778 10.76365881076689 18.749999999999996
    vertex 167.71230283217778 10.76365881076689 15.718911086754447
  endloop
endfacet
facet normal -0.8660254037844388 0.0 -0.4999999999999997
  outer loop
    vertex 167.71230283217778 10.76365881076689 21.781088913245547
    vertex 169.46230283217778 9.763658810766891 18.749999999999996
    vertex 167.71230283217778 9.763658810766891 21.781088913245547
  endloop
endfacet
facet normal -0.8660254037844388 0.0 -0.4999999999999997
  outer loop
    vertex 169.46230283217778 9.763658810766891 18.749999999999996
    vertex 167.71230283217778 10.76365881076689 21.781088913245547
    vertex 169.46230283217778 10.76365881076689 18.749999999999996
  endloop
endfacet
facet normal 8.057047092993956e-16 0.0 -1.0
  outer loop
    vertex 167.71230283217778 10.76365881076689 21.781088913245547
    vertex 164.21230283217776 9.763658810766891 21.781088913245544
    vertex 164.21230283217776 10.76365881076689 21.781088913245544
  endloop
endfacet
facet normal 8.057047092993956e-16 0.0 -1.0
  outer loop
    vertex 164.21230283217776 9.763658810766891 21.781088913245544
    vertex 167.71230283217778 10.76365881076689 21.781088913245547
    vertex 167.71230283217778 9.763658810766891 21.781088913245547
  endloop
endfacet
facet normal 0.8660254037844387 -0.0 -0.5000000000000002
  outer loop
    vertex 162.46230283217776 10.76365881076689 18.749999999999996
    vertex 164.21230283217776 9.763658810766891 21.781088913245544
    vertex 162.46230283217776 9.763658810766891 18.749999999999996
  endloop
endfacet
facet normal 0.8660254037844387 -0.0 -0.5000000000000002
  outer loop
    vertex 164.21230283217776 9.763658810766891 21.781088913245544
    vertex 162.46230283217776 10.76365881076689 18.749999999999996
    vertex 164.21230283217776 10.76365881076689 21.781088913245544
  endloop
endfacet
facet normal 0.8660254037844387 -0.0 0.5000000000000002
  outer loop
    vertex 164.21230283217776 10.76365881076689 15.718911086754447
    vertex 162.46230283217776 9.763658810766891 18.749999999999996
    vertex 164.21230283217776 9.763658810766891 15.718911086754447
  endloop
endfacet
facet normal 0.8660254037844387 -0.0 0.5000000000000002
  outer loop
    vertex 162.46230283217776 9.763658810766891 18.749999999999996
    vertex 164.21230283217776 10.76365881076689 15.718911086754447
    vertex 162.46230283217776 10.76365881076689 18.749999999999996
  endloop
endfacet
facet normal -0.0 -0.0 1.0
  outer loop
    vertex 167.71230283217778 9.763658810766891 15.718911086754447
    vertex 164.21230283217776 10.76365881076689 15.718911086754447
    vertex 164.21230283217776 9.763658810766891 15.718911086754447
  endloop
endfacet
facet normal -0.0 -0.0 1.0
  outer loop
    vertex 164.21230283217776 10.76365881076689 15.718911086754447
    vertex 167.71230283217778 9.763658810766891 15.718911086754447
    vertex 167.71230283217778 10.76365881076689 15.718911086754447
  endloop
endfacet
facet normal 0.0 -1.0 0.0
  outer loop
    vertex 167.70442661613527 10.76365881076689 0.21891108675445026
    vertex 166.3948656606771 10.76365881076689 1.6062591081329136
    vertex 165.9544266161352 10.76365881076689 1.5482742078839715
  endloop
endfacet
facet normal 0.0 -1.0 0.0
  outer loop
    vertex 166.3948656606771 10.76365881076689 1.6062591081329136
    vertex 167.70442661613527 10.76365881076689 0.21891108675445026
    vertex 166.80528951219327 10.76365881076689 1.7762622337523033
  endloop
endfacet
facet normal 0.0 -1.0 0.0
  outer loop
    vertex 166.80528951219327 10.76365881076689 1.7762622337523033
    vertex 167.70442661613527 10.76365881076689 0.21891108675445026
    vertex 169.45442661613527 10.76365881076689 3.2499999999999996
  endloop
endfacet
facet normal 0.0 -1.0 0.0
  outer loop
    vertex 166.80528951219327 10.76365881076689 1.7762622337523033
    vertex 169.45442661613527 10.76365881076689 3.2499999999999996
    vertex 167.15772846346056 10.76365881076689 2.0466981526746992
  endloop
endfacet
facet normal 0.0 -1.0 0.0
  outer loop
    vertex 167.15772846346056 10.76365881076689 2.0466981526746992
    vertex 169.45442661613527 10.76365881076689 3.2499999999999996
    vertex 167.428164382383 10.76365881076689 2.3991371039420515
  endloop
endfacet
facet normal 0.0 -1.0 0.0
  outer loop
    vertex 167.428164382383 10.76365881076689 2.3991371039420515
    vertex 169.45442661613527 10.76365881076689 3.2499999999999996
    vertex 167.59816750800235 10.76365881076689 2.809560955458178
  endloop
endfacet
facet normal 0.0 -1.0 0.0
  outer loop
    vertex 167.59816750800235 10.76365881076689 2.809560955458178
    vertex 169.45442661613527 10.76365881076689 3.2499999999999996
    vertex 167.65615240825133 10.76365881076689 3.2499999999999996
  endloop
endfacet
facet normal 0.0 -1.0 0.0
  outer loop
    vertex 167.65615240825133 10.76365881076689 3.2499999999999996
    vertex 169.45442661613527 10.76365881076689 3.2499999999999996
    vertex 167.70442661613527 10.76365881076689 6.28108891324555
  endloop
endfacet
facet normal 0.0 -1.0 0.0
  outer loop
    vertex 167.65615240825133 10.76365881076689 3.2499999999999996
    vertex 167.70442661613527 10.76365881076689 6.28108891324555
    vertex 167.59816750800235 10.76365881076689 3.690439044541826
  endloop
endfacet
facet normal 0.0 -1.0 0.0
  outer loop
    vertex 167.59816750800235 10.76365881076689 3.690439044541826
    vertex 167.70442661613527 10.76365881076689 6.28108891324555
    vertex 167.428164382383 10.76365881076689 4.100862896057946
  endloop
endfacet
facet normal 0.0 -1.0 0.0
  outer loop
    vertex 167.428164382383 10.76365881076689 4.100862896057946
    vertex 167.70442661613527 10.76365881076689 6.28108891324555
    vertex 167.15772846346056 10.76365881076689 4.453301847325301
  endloop
endfacet
facet normal 0.0 -1.0 0.0
  outer loop
    vertex 167.15772846346056 10.76365881076689 4.453301847325301
    vertex 167.70442661613527 10.76365881076689 6.28108891324555
    vertex 166.80528951219327 10.76365881076689 4.723737766247696
  endloop
endfacet
facet normal 0.0 -1.0 0.0
  outer loop
    vertex 166.80528951219327 10.76365881076689 4.723737766247696
    vertex 167.70442661613527 10.76365881076689 6.28108891324555
    vertex 166.3948656606771 10.76365881076689 4.893740891867088
  endloop
endfacet
facet normal 0.0 -1.0 0.0
  outer loop
    vertex 166.3948656606771 10.76365881076689 4.893740891867088
    vertex 167.70442661613527 10.76365881076689 6.28108891324555
    vertex 165.9544266161352 10.76365881076689 4.951725792116028
  endloop
endfacet
facet normal 0.0 -1.0 0.0
  outer loop
    vertex 165.9544266161352 10.76365881076689 4.951725792116028
    vertex 167.70442661613527 10.76365881076689 6.28108891324555
    vertex 164.20442661613524 10.76365881076689 6.281088913245548
  endloop
endfacet
facet normal 0.0 -1.0 0.0
  outer loop
    vertex 167.70442661613527 10.76365881076689 0.21891108675445026
    vertex 162.45442661613524 10.76365881076689 3.249999999999999
    vertex 164.20442661613524 10.76365881076689 0.2189110867544499
  endloop
endfacet
facet normal 0.0 -1.0 0.0
  outer loop
    vertex 162.45442661613524 10.76365881076689 3.249999999999999
    vertex 167.70442661613527 10.76365881076689 0.21891108675445026
    vertex 165.1035637200773 10.76365881076689 1.7762622337522842
  endloop
endfacet
facet normal 0.0 -1.0 0.0
  outer loop
    vertex 165.1035637200773 10.76365881076689 1.7762622337522842
    vertex 167.70442661613527 10.76365881076689 0.21891108675445026
    vertex 165.51398757159347 10.76365881076689 1.6062591081329056
  endloop
endfacet
facet normal 0.0 -1.0 0.0
  outer loop
    vertex 165.51398757159347 10.76365881076689 1.6062591081329056
    vertex 167.70442661613527 10.76365881076689 0.21891108675445026
    vertex 165.9544266161352 10.76365881076689 1.5482742078839715
  endloop
endfacet
facet normal 0.0 -1.0 0.0
  outer loop
    vertex 162.45442661613524 10.76365881076689 3.249999999999999
    vertex 165.1035637200773 10.76365881076689 1.7762622337522842
    vertex 164.75112476881 10.76365881076689 2.046698152674728
  endloop
endfacet
facet normal 0.0 -1.0 0.0
  outer loop
    vertex 162.45442661613524 10.76365881076689 3.249999999999999
    vertex 164.75112476881 10.76365881076689 2.046698152674728
    vertex 164.48068884988757 10.76365881076689 2.399137103942064
  endloop
endfacet
facet normal 0.0 -1.0 0.0
  outer loop
    vertex 162.45442661613524 10.76365881076689 3.249999999999999
    vertex 164.48068884988757 10.76365881076689 2.399137103942064
    vertex 164.31068572426815 10.76365881076689 2.809560955458139
  endloop
endfacet
facet normal 0.0 -1.0 0.0
  outer loop
    vertex 162.45442661613524 10.76365881076689 3.249999999999999
    vertex 164.31068572426815 10.76365881076689 2.809560955458139
    vertex 164.25270082401923 10.76365881076689 3.249999999999997
  endloop
endfacet
facet normal 0.0 -1.0 0.0
  outer loop
    vertex 162.45442661613524 10.76365881076689 3.249999999999999
    vertex 164.25270082401923 10.76365881076689 3.249999999999997
    vertex 164.31068572426815 10.76365881076689 3.690439044541861
  endloop
endfacet
facet normal 0.0 -1.0 0.0
  outer loop
    vertex 162.45442661613524 10.76365881076689 3.249999999999999
    vertex 164.31068572426815 10.76365881076689 3.690439044541861
    vertex 164.20442661613524 10.76365881076689 6.281088913245548
  endloop
endfacet
facet normal 0.0 -1.0 0.0
  outer loop
    vertex 164.20442661613524 10.76365881076689 6.281088913245548
    vertex 164.31068572426815 10.76365881076689 3.690439044541861
    vertex 164.48068884988757 10.76365881076689 4.100862896057935
  endloop
endfacet
facet normal 0.0 -1.0 0.0
  outer loop
    vertex 164.20442661613524 10.76365881076689 6.281088913245548
    vertex 164.48068884988757 10.76365881076689 4.100862896057935
    vertex 164.75112476881 10.76365881076689 4.453301847325271
  endloop
endfacet
facet normal 0.0 -1.0 0.0
  outer loop
    vertex 164.20442661613524 10.76365881076689 6.281088913245548
    vertex 164.75112476881 10.76365881076689 4.453301847325271
    vertex 165.1035637200773 10.76365881076689 4.723737766247714
  endloop
endfacet
facet normal 0.0 -1.0 0.0
  outer loop
    vertex 164.20442661613524 10.76365881076689 6.281088913245548
    vertex 165.1035637200773 10.76365881076689 4.723737766247714
    vertex 165.51398757159347 10.76365881076689 4.893740891867093
  endloop
endfacet
facet normal 0.0 -1.0 0.0
  outer loop
    vertex 164.20442661613524 10.76365881076689 6.281088913245548
    vertex 165.51398757159347 10.76365881076689 4.893740891867093
    vertex 165.9544266161352 10.76365881076689 4.951725792116028
  endloop
endfacet
facet normal -0.8660254037844387 0.0 -0.4999999999999999
  outer loop
    vertex 167.70442661613527 10.76365881076689 6.28108891324555
    vertex 169.45442661613527 9.763658810766891 3.2499999999999996
    vertex 167.70442661613527 9.763658810766891 6.28108891324555
  endloop
endfacet
facet normal -0.8660254037844387 0.0 -0.4999999999999999
  outer loop
    vertex 169.45442661613527 9.763658810766891 3.2499999999999996
    vertex 167.70442661613527 10.76365881076689 6.28108891324555
    vertex 169.45442661613527 10.76365881076689 3.2499999999999996
  endloop
endfacet
facet normal 4.028523546496978e-16 0.0 -1.0
  outer loop
    vertex 167.70442661613527 10.76365881076689 6.28108891324555
    vertex 164.20442661613524 9.763658810766891 6.281088913245548
    vertex 164.20442661613524 10.76365881076689 6.281088913245548
  endloop
endfacet
facet normal 4.028523546496978e-16 0.0 -1.0
  outer loop
    vertex 164.20442661613524 9.763658810766891 6.281088913245548
    vertex 167.70442661613527 10.76365881076689 6.28108891324555
    vertex 167.70442661613527 9.763658810766891 6.28108891324555
  endloop
endfacet
facet normal 0.8660254037844387 -0.0 -0.5
  outer loop
    vertex 162.45442661613524 10.76365881076689 3.249999999999999
    vertex 164.20442661613524 9.763658810766891 6.281088913245548
    vertex 162.45442661613524 9.763658810766891 3.249999999999999
  endloop
endfacet
facet normal 0.8660254037844387 -0.0 -0.5
  outer loop
    vertex 164.20442661613524 9.763658810766891 6.281088913245548
    vertex 162.45442661613524 10.76365881076689 3.249999999999999
    vertex 164.20442661613524 10.76365881076689 6.281088913245548
  endloop
endfacet
facet normal 0.8660254037844387 -0.0 0.5
  outer loop
    vertex 164.20442661613524 10.76365881076689 0.2189110867544499
    vertex 162.45442661613524 9.763658810766891 3.249999999999999
    vertex 164.20442661613524 9.763658810766891 0.2189110867544499
  endloop
endfacet
facet normal 0.8660254037844387 -0.0 0.5
  outer loop
    vertex 162.45442661613524 9.763658810766891 3.249999999999999
    vertex 164.20442661613524 10.76365881076689 0.2189110867544499
    vertex 162.45442661613524 10.76365881076689 3.249999999999999
  endloop
endfacet
facet normal -1.0071308866242445e-16 -0.0 1.0
  outer loop
    vertex 167.70442661613527 9.763658810766891 0.21891108675445026
    vertex 164.20442661613524 10.76365881076689 0.2189110867544499
    vertex 164.20442661613524 9.763658810766891 0.2189110867544499
  endloop
endfacet
facet normal -1.0071308866242445e-16 -0.0 1.0
  outer loop
    vertex 164.20442661613524 10.76365881076689 0.2189110867544499
    vertex 167.70442661613527 9.763658810766891 0.21891108675445026
    vertex 167.70442661613527 10.76365881076689 0.21891108675445026
  endloop
endfacet
facet normal -0.8660254037844387 0.0 0.5000000000000001
  outer loop
    vertex 169.45442661613527 10.76365881076689 3.2499999999999996
    vertex 167.70442661613527 9.763658810766891 0.21891108675445026
    vertex 169.45442661613527 9.763658810766891 3.2499999999999996
  endloop
endfacet
facet normal -0.8660254037844387 0.0 0.5000000000000001
  outer loop
    vertex 167.70442661613527 9.763658810766891 0.21891108675445026
    vertex 169.45442661613527 10.76365881076689 3.2499999999999996
    vertex 167.70442661613527 10.76365881076689 0.21891108675445026
  endloop
endfacet
facet normal -1.0 0.0 0.0
  outer loop
    vertex 160.95442661613527 12.763658810766886 22.0
    vertex 160.95442661613527 9.763658810766891 1.0574874309554614e-15
    vertex 160.95442661613527 9.763658810766891 22.0
  endloop
endfacet
facet normal -1.0 0.0 0.0
  outer loop
    vertex 160.95442661613527 9.763658810766891 1.0574874309554614e-15
    vertex 160.95442661613527 12.763658810766886 22.0
    vertex 160.95442661613527 12.763658810766886 1.0574874309554614e-15
  endloop
endfacet
endsolid Carros laterales definitivos
