solid Carros laterales definitivos
facet normal 0.0 -1.0 0.0
  outer loop
    vertex 195.89252886432192 96.85589634087245 7.049916206369744e-16
    vertex 190.886582168524 96.85589634087246 1.4173057856671627
    vertex 190.69498342975405 96.85589634087246 1.412746978113862
  endloop
endfacet
facet normal 0.0 -1.0 0.0
  outer loop
    vertex 190.886582168524 96.85589634087246 1.4173057856671627
    vertex 195.89252886432192 96.85589634087245 7.049916206369744e-16
    vertex 191.1772306999436 96.85589634087246 1.4242213359933202
  endloop
endfacet
facet normal 0.0 -1.0 0.0
  outer loop
    vertex 191.1772306999436 96.85589634087246 1.4242213359933202
    vertex 195.89252886432192 96.85589634087245 7.049916206369744e-16
    vertex 191.64007601052754 96.85589634087246 1.560119492582923
  endloop
endfacet
facet normal 0.0 -1.0 0.0
  outer loop
    vertex 191.64007601052754 96.85589634087246 1.560119492582923
    vertex 195.89252886432192 96.85589634087245 7.049916206369744e-16
    vertex 192.05197721847773 96.85589634087246 1.8111802130934487
  endloop
endfacet
facet normal 0.0 -1.0 0.0
  outer loop
    vertex 192.05197721847773 96.85589634087246 1.8111802130934487
    vertex 195.89252886432192 96.85589634087245 7.049916206369744e-16
    vertex 192.3848639371711 96.85589634087246 2.1602941243194835
  endloop
endfacet
facet normal 0.0 -1.0 0.0
  outer loop
    vertex 192.3848639371711 96.85589634087246 2.1602941243194835
    vertex 195.89252886432192 96.85589634087245 7.049916206369744e-16
    vertex 192.6163234429229 96.85589634087246 2.58416955889963
  endloop
endfacet
facet normal 0.0 -1.0 0.0
  outer loop
    vertex 192.6163234429229 96.85589634087246 2.58416955889963
    vertex 195.89252886432192 96.85589634087245 7.049916206369744e-16
    vertex 192.68297725595315 96.85589634087246 2.853632702857832
  endloop
endfacet
facet normal 0.0 -1.0 0.0
  outer loop
    vertex 192.68297725595315 96.85589634087246 2.853632702857832
    vertex 195.89252886432192 96.85589634087245 7.049916206369744e-16
    vertex 192.72979967536472 96.85589634087246 3.051706918173342
  endloop
endfacet
facet normal 0.0 -1.0 0.0
  outer loop
    vertex 192.72979967536472 96.85589634087246 3.051706918173342
    vertex 195.89252886432192 96.85589634087245 7.049916206369744e-16
    vertex 195.89252886432192 96.85589634087245 19.999999999999996
  endloop
endfacet
facet normal 0.0 -1.0 0.0
  outer loop
    vertex 192.72979967536472 96.85589634087246 3.051706918173342
    vertex 195.89252886432192 96.85589634087245 19.999999999999996
    vertex 192.7183075283286 96.85589634087246 3.5347018356217017
  endloop
endfacet
facet normal 0.0 -1.0 0.0
  outer loop
    vertex 192.7183075283286 96.85589634087246 3.5347018356217017
    vertex 195.89252886432192 96.85589634087245 19.999999999999996
    vertex 192.582409371739 96.85589634087246 3.9975471462056333
  endloop
endfacet
facet normal 0.0 -1.0 0.0
  outer loop
    vertex 192.582409371739 96.85589634087246 3.9975471462056333
    vertex 195.89252886432192 96.85589634087245 19.999999999999996
    vertex 192.33134865122852 96.85589634087246 4.409448354155755
  endloop
endfacet
facet normal 0.0 -1.0 0.0
  outer loop
    vertex 192.33134865122852 96.85589634087246 4.409448354155755
    vertex 195.89252886432192 96.85589634087245 19.999999999999996
    vertex 191.98223474000244 96.85589634087246 4.742335072849184
  endloop
endfacet
facet normal 0.0 -1.0 0.0
  outer loop
    vertex 191.98223474000244 96.85589634087246 4.742335072849184
    vertex 195.89252886432192 96.85589634087245 19.999999999999996
    vertex 191.55885917417285 96.85589634087246 4.973521622528236
  endloop
endfacet
facet normal 0.0 -1.0 0.0
  outer loop
    vertex 191.55885917417285 96.85589634087246 4.973521622528236
    vertex 195.89252886432192 96.85589634087245 19.999999999999996
    vertex 191.89252886432192 96.85589634087245 6.499999999999996
  endloop
endfacet
facet normal 0.0 -1.0 0.0
  outer loop
    vertex 191.55885917417285 96.85589634087246 4.973521622528236
    vertex 191.89252886432192 96.85589634087245 6.499999999999996
    vertex 191.09007429888985 96.85589634087246 5.0872530218861405
  endloop
endfacet
facet normal 0.0 -1.0 0.0
  outer loop
    vertex 191.89252886432192 96.85589634087245 6.499999999999996
    vertex 195.89252886432192 96.85589634087245 19.999999999999996
    vertex 191.89252886432192 96.85589634087245 13.499999999999995
  endloop
endfacet
facet normal 0.0 -1.0 0.0
  outer loop
    vertex 191.89252886432192 96.85589634087245 13.499999999999995
    vertex 195.89252886432192 96.85589634087245 19.999999999999996
    vertex 192.42598871716353 96.85589634087246 15.71896957131643
  endloop
endfacet
facet normal 0.0 -1.0 0.0
  outer loop
    vertex 191.89252886432192 96.85589634087245 13.499999999999995
    vertex 192.42598871716353 96.85589634087246 15.71896957131643
    vertex 192.1068870287355 96.85589634087246 15.35721246642912
  endloop
endfacet
facet normal 0.0 -1.0 0.0
  outer loop
    vertex 191.89252886432192 96.85589634087245 13.499999999999995
    vertex 192.1068870287355 96.85589634087246 15.35721246642912
    vertex 191.7050288382245 96.85589634087246 15.090371530264463
  endloop
endfacet
facet normal 0.0 -1.0 0.0
  outer loop
    vertex 191.89252886432192 96.85589634087245 13.499999999999995
    vertex 191.7050288382245 96.85589634087246 15.090371530264463
    vertex 188.8925288643219 96.85589634087245 13.499999999999995
  endloop
endfacet
facet normal 0.0 -1.0 0.0
  outer loop
    vertex 188.8925288643219 96.85589634087245 13.499999999999995
    vertex 191.7050288382245 96.85589634087246 15.090371530264463
    vertex 191.24780011721174 96.85589634087246 14.936631531646551
  endloop
endfacet
facet normal 0.0 -1.0 0.0
  outer loop
    vertex 188.8925288643219 96.85589634087245 13.499999999999995
    vertex 191.24780011721174 96.85589634087246 14.936631531646551
    vertex 190.766360247428 96.85589634087246 14.90646959741384
  endloop
endfacet
facet normal 0.0 -1.0 0.0
  outer loop
    vertex 192.42598871716353 96.85589634087246 15.71896957131643
    vertex 195.89252886432192 96.85589634087245 19.999999999999996
    vertex 192.64058765078255 96.85589634087246 16.15098969606013
  endloop
endfacet
facet normal 0.0 -1.0 0.0
  outer loop
    vertex 192.64058765078255 96.85589634087246 16.15098969606013
    vertex 195.89252886432192 96.85589634087245 19.999999999999996
    vertex 192.7360592669081 96.85589634087246 16.623831383106094
  endloop
endfacet
facet normal 0.0 -1.0 0.0
  outer loop
    vertex 192.7360592669081 96.85589634087246 16.623831383106094
    vertex 195.89252886432192 96.85589634087245 19.999999999999996
    vertex 192.70722774847184 96.85589634087246 17.084035373158628
  endloop
endfacet
facet normal 0.0 -1.0 0.0
  outer loop
    vertex 192.70722774847184 96.85589634087246 17.084035373158628
    vertex 195.89252886432192 96.85589634087245 19.999999999999996
    vertex 192.69444930321853 96.85589634087246 17.10802205671284
  endloop
endfacet
facet normal 0.0 -1.0 0.0
  outer loop
    vertex 192.69444930321853 96.85589634087246 17.10802205671284
    vertex 195.89252886432192 96.85589634087245 19.999999999999996
    vertex 192.55078390549653 96.85589634087246 17.56456833539245
  endloop
endfacet
facet normal 0.0 -1.0 0.0
  outer loop
    vertex 192.55078390549653 96.85589634087246 17.56456833539245
    vertex 195.89252886432192 96.85589634087245 19.999999999999996
    vertex 192.28531639789279 96.85589634087246 17.964358164413603
  endloop
endfacet
facet normal 0.0 -1.0 0.0
  outer loop
    vertex 192.28531639789279 96.85589634087246 17.964358164413603
    vertex 195.89252886432192 96.85589634087245 19.999999999999996
    vertex 191.92355929300552 96.85589634087246 18.283459852841577
  endloop
endfacet
facet normal 0.0 -1.0 0.0
  outer loop
    vertex 191.92355929300552 96.85589634087246 18.283459852841577
    vertex 195.89252886432192 96.85589634087245 19.999999999999996
    vertex 191.49153916826174 96.85589634087246 18.498058786460653
  endloop
endfacet
facet normal 0.0 -1.0 0.0
  outer loop
    vertex 191.49153916826174 96.85589634087246 18.498058786460653
    vertex 195.89252886432192 96.85589634087245 19.999999999999996
    vertex 191.01869748121587 96.85589634087246 18.59353040258615
  endloop
endfacet
facet normal 0.0 -1.0 0.0
  outer loop
    vertex 186.8925288643219 96.85589634087245 0.0
    vertex 189.06669029461554 96.85589634087246 2.9678158965652472
    vertex 186.8925288643219 96.85589634087245 19.999999999999996
  endloop
endfacet
facet normal 0.0 -1.0 0.0
  outer loop
    vertex 189.06669029461554 96.85589634087246 2.9678158965652472
    vertex 186.8925288643219 96.85589634087245 0.0
    vertex 189.20308872542853 96.85589634087246 2.501730365917843
  endloop
endfacet
facet normal 0.0 -1.0 0.0
  outer loop
    vertex 189.20308872542853 96.85589634087246 2.501730365917843
    vertex 186.8925288643219 96.85589634087245 0.0
    vertex 189.45370907741537 96.85589634087246 2.090551645844251
  endloop
endfacet
facet normal 0.0 -1.0 0.0
  outer loop
    vertex 189.45370907741537 96.85589634087246 2.090551645844251
    vertex 186.8925288643219 96.85589634087245 0.0
    vertex 189.80282298864145 96.85589634087246 1.7576649271508165
  endloop
endfacet
facet normal 0.0 -1.0 0.0
  outer loop
    vertex 189.80282298864145 96.85589634087246 1.7576649271508165
    vertex 186.8925288643219 96.85589634087245 0.0
    vertex 190.22619855447104 96.85589634087246 1.5264783774717663
  endloop
endfacet
facet normal 0.0 -1.0 0.0
  outer loop
    vertex 190.22619855447104 96.85589634087246 1.5264783774717663
    vertex 186.8925288643219 96.85589634087245 0.0
    vertex 195.89252886432192 96.85589634087245 7.049916206369744e-16
  endloop
endfacet
facet normal 0.0 -1.0 0.0
  outer loop
    vertex 190.22619855447104 96.85589634087246 1.5264783774717663
    vertex 195.89252886432192 96.85589634087245 7.049916206369744e-16
    vertex 190.69498342975405 96.85589634087246 1.412746978113862
  endloop
endfacet
facet normal 0.0 -1.0 0.0
  outer loop
    vertex 189.06669029461554 96.85589634087246 2.9678158965652472
    vertex 189.20308872542853 96.85589634087246 2.501730365917843
    vertex 189.0985111422015 96.85589634087246 2.8668697145612883
  endloop
endfacet
facet normal 0.0 -1.0 0.0
  outer loop
    vertex 186.8925288643219 96.85589634087245 19.999999999999996
    vertex 189.06669029461554 96.85589634087246 2.9678158965652472
    vertex 189.0552758424358 96.85589634087246 3.4475454345679215
  endloop
endfacet
facet normal 0.0 -1.0 0.0
  outer loop
    vertex 186.8925288643219 96.85589634087245 19.999999999999996
    vertex 189.0552758424358 96.85589634087246 3.4475454345679215
    vertex 189.1690072417937 96.85589634087246 3.916330309850893
  endloop
endfacet
facet normal 0.0 -1.0 0.0
  outer loop
    vertex 186.8925288643219 96.85589634087245 19.999999999999996
    vertex 189.1690072417937 96.85589634087246 3.916330309850893
    vertex 188.8925288643219 96.85589634087245 6.499999999999996
  endloop
endfacet
facet normal 0.0 -1.0 0.0
  outer loop
    vertex 188.8925288643219 96.85589634087245 6.499999999999996
    vertex 189.1690072417937 96.85589634087246 3.916330309850893
    vertex 189.4001937914728 96.85589634087246 4.339705875680516
  endloop
endfacet
facet normal 0.0 -1.0 0.0
  outer loop
    vertex 188.8925288643219 96.85589634087245 6.499999999999996
    vertex 189.4001937914728 96.85589634087246 4.339705875680516
    vertex 189.73308051016616 96.85589634087246 4.688819786906555
  endloop
endfacet
facet normal 0.0 -1.0 0.0
  outer loop
    vertex 188.8925288643219 96.85589634087245 6.499999999999996
    vertex 189.73308051016616 96.85589634087246 4.688819786906555
    vertex 190.14498171811633 96.85589634087246 4.939880507417078
  endloop
endfacet
facet normal 0.0 -1.0 0.0
  outer loop
    vertex 188.8925288643219 96.85589634087245 6.499999999999996
    vertex 190.14498171811633 96.85589634087246 4.939880507417078
    vertex 190.60782702870029 96.85589634087246 5.075778664006682
  endloop
endfacet
facet normal 0.0 -1.0 0.0
  outer loop
    vertex 188.8925288643219 96.85589634087245 6.499999999999996
    vertex 190.60782702870029 96.85589634087246 5.075778664006682
    vertex 191.09007429888985 96.85589634087246 5.0872530218861405
  endloop
endfacet
facet normal 0.0 -1.0 0.0
  outer loop
    vertex 188.8925288643219 96.85589634087245 6.499999999999996
    vertex 191.09007429888985 96.85589634087246 5.0872530218861405
    vertex 191.89252886432192 96.85589634087245 6.499999999999996
  endloop
endfacet
facet normal 0.0 -1.0 0.0
  outer loop
    vertex 186.8925288643219 96.85589634087245 19.999999999999996
    vertex 188.8925288643219 96.85589634087245 6.499999999999996
    vertex 188.8925288643219 96.85589634087245 13.499999999999995
  endloop
endfacet
facet normal 0.0 -1.0 0.0
  outer loop
    vertex 186.8925288643219 96.85589634087245 19.999999999999996
    vertex 188.8925288643219 96.85589634087245 13.499999999999995
    vertex 189.23290039458638 96.85589634087246 15.937500026097439
  endloop
endfacet
facet normal 0.0 -1.0 0.0
  outer loop
    vertex 189.23290039458638 96.85589634087246 15.937500026097439
    vertex 188.8925288643219 96.85589634087245 13.499999999999995
    vertex 189.49974133075105 96.85589634087246 15.535641835586386
  endloop
endfacet
facet normal 0.0 -1.0 0.0
  outer loop
    vertex 189.49974133075105 96.85589634087246 15.535641835586386
    vertex 188.8925288643219 96.85589634087245 13.499999999999995
    vertex 189.8614984356383 96.85589634087246 15.216540147158414
  endloop
endfacet
facet normal 0.0 -1.0 0.0
  outer loop
    vertex 189.8614984356383 96.85589634087246 15.216540147158414
    vertex 188.8925288643219 96.85589634087245 13.499999999999995
    vertex 190.2935185603821 96.85589634087246 15.001941213539336
  endloop
endfacet
facet normal 0.0 -1.0 0.0
  outer loop
    vertex 190.2935185603821 96.85589634087246 15.001941213539336
    vertex 188.8925288643219 96.85589634087245 13.499999999999995
    vertex 190.766360247428 96.85589634087246 14.90646959741384
  endloop
endfacet
facet normal 0.0 -1.0 0.0
  outer loop
    vertex 186.8925288643219 96.85589634087245 19.999999999999996
    vertex 189.23290039458638 96.85589634087246 15.937500026097439
    vertex 189.0791603959685 96.85589634087246 16.394728747110168
  endloop
endfacet
facet normal 0.0 -1.0 0.0
  outer loop
    vertex 186.8925288643219 96.85589634087245 19.999999999999996
    vertex 189.0791603959685 96.85589634087246 16.394728747110168
    vertex 189.04896677198906 96.85589634087246 16.876674443457148
  endloop
endfacet
facet normal 0.0 -1.0 0.0
  outer loop
    vertex 186.8925288643219 96.85589634087245 19.999999999999996
    vertex 189.04896677198906 96.85589634087246 16.876674443457148
    vertex 189.1041036875597 96.85589634087246 17.155475170906787
  endloop
endfacet
facet normal 0.0 -1.0 0.0
  outer loop
    vertex 186.8925288643219 96.85589634087245 19.999999999999996
    vertex 189.1041036875597 96.85589634087246 17.155475170906787
    vertex 189.14415914832364 96.85589634087246 17.34838435573322
  endloop
endfacet
facet normal 0.0 -1.0 0.0
  outer loop
    vertex 186.8925288643219 96.85589634087245 19.999999999999996
    vertex 189.14415914832364 96.85589634087246 17.34838435573322
    vertex 189.35906901148033 96.85589634087246 17.781030428683557
  endloop
endfacet
facet normal 0.0 -1.0 0.0
  outer loop
    vertex 186.8925288643219 96.85589634087245 19.999999999999996
    vertex 189.35906901148033 96.85589634087246 17.781030428683557
    vertex 189.67817069990835 96.85589634087246 18.142787533570868
  endloop
endfacet
facet normal 0.0 -1.0 0.0
  outer loop
    vertex 186.8925288643219 96.85589634087245 19.999999999999996
    vertex 189.67817069990835 96.85589634087246 18.142787533570868
    vertex 190.08002889041933 96.85589634087246 18.409628469735523
  endloop
endfacet
facet normal 0.0 -1.0 0.0
  outer loop
    vertex 186.8925288643219 96.85589634087245 19.999999999999996
    vertex 190.08002889041933 96.85589634087246 18.409628469735523
    vertex 190.53725761143212 96.85589634087246 18.56336846835344
  endloop
endfacet
facet normal 0.0 -1.0 0.0
  outer loop
    vertex 186.8925288643219 96.85589634087245 19.999999999999996
    vertex 190.53725761143212 96.85589634087246 18.56336846835344
    vertex 190.90816057543324 96.85589634087246 18.586605328258592
  endloop
endfacet
facet normal 0.0 -1.0 0.0
  outer loop
    vertex 186.8925288643219 96.85589634087245 19.999999999999996
    vertex 190.90816057543324 96.85589634087246 18.586605328258592
    vertex 191.01869748121587 96.85589634087246 18.59353040258615
  endloop
endfacet
facet normal 0.0 -1.0 0.0
  outer loop
    vertex 186.8925288643219 96.85589634087245 19.999999999999996
    vertex 191.01869748121587 96.85589634087246 18.59353040258615
    vertex 195.89252886432192 96.85589634087245 19.999999999999996
  endloop
endfacet
facet normal -0.0 1.0 -0.0
  outer loop
    vertex 191.89252886432192 99.85589634087246 6.499999999999996
    vertex 195.89252886432192 99.85589634087246 6.499999999999994
    vertex 188.8925288643219 99.85589634087246 6.499999999999996
  endloop
endfacet
facet normal -0.0 1.0 -0.0
  outer loop
    vertex 195.89252886432192 99.85589634087246 7.049916206369744e-16
    vertex 192.3848639371711 99.85589634087246 2.1602941243194835
    vertex 195.89252886432192 99.85589634087246 6.499999999999994
  endloop
endfacet
facet normal -0.0 1.0 -0.0
  outer loop
    vertex 192.3848639371711 99.85589634087246 2.1602941243194835
    vertex 195.89252886432192 99.85589634087246 7.049916206369744e-16
    vertex 192.05197721847773 99.85589634087246 1.8111802130934487
  endloop
endfacet
facet normal -0.0 1.0 -0.0
  outer loop
    vertex 192.05197721847773 99.85589634087246 1.8111802130934487
    vertex 195.89252886432192 99.85589634087246 7.049916206369744e-16
    vertex 191.64007601052754 99.85589634087246 1.560119492582923
  endloop
endfacet
facet normal -0.0 1.0 -0.0
  outer loop
    vertex 191.64007601052754 99.85589634087246 1.560119492582923
    vertex 195.89252886432192 99.85589634087246 7.049916206369744e-16
    vertex 191.1772306999436 99.85589634087246 1.4242213359933202
  endloop
endfacet
facet normal -0.0 1.0 -0.0
  outer loop
    vertex 191.1772306999436 99.85589634087246 1.4242213359933202
    vertex 195.89252886432192 99.85589634087246 7.049916206369744e-16
    vertex 190.886582168524 99.85589634087246 1.4173057856671627
  endloop
endfacet
facet normal -0.0 1.0 -0.0
  outer loop
    vertex 190.886582168524 99.85589634087246 1.4173057856671627
    vertex 195.89252886432192 99.85589634087246 7.049916206369744e-16
    vertex 190.69498342975405 99.85589634087246 1.412746978113862
  endloop
endfacet
facet normal -0.0 1.0 -0.0
  outer loop
    vertex 195.89252886432192 99.85589634087246 6.499999999999994
    vertex 192.3848639371711 99.85589634087246 2.1602941243194835
    vertex 192.6163234429229 99.85589634087246 2.58416955889963
  endloop
endfacet
facet normal -0.0 1.0 -0.0
  outer loop
    vertex 195.89252886432192 99.85589634087246 6.499999999999994
    vertex 192.6163234429229 99.85589634087246 2.58416955889963
    vertex 192.68297725595315 99.85589634087246 2.853632702857832
  endloop
endfacet
facet normal -0.0 1.0 -0.0
  outer loop
    vertex 195.89252886432192 99.85589634087246 6.499999999999994
    vertex 192.68297725595315 99.85589634087246 2.853632702857832
    vertex 192.72979967536472 99.85589634087246 3.051706918173342
  endloop
endfacet
facet normal -0.0 1.0 -0.0
  outer loop
    vertex 195.89252886432192 99.85589634087246 6.499999999999994
    vertex 192.72979967536472 99.85589634087246 3.051706918173342
    vertex 192.7183075283286 99.85589634087246 3.5347018356217017
  endloop
endfacet
facet normal -0.0 1.0 -0.0
  outer loop
    vertex 195.89252886432192 99.85589634087246 6.499999999999994
    vertex 192.7183075283286 99.85589634087246 3.5347018356217017
    vertex 192.582409371739 99.85589634087246 3.9975471462056333
  endloop
endfacet
facet normal -0.0 1.0 -0.0
  outer loop
    vertex 195.89252886432192 99.85589634087246 6.499999999999994
    vertex 192.582409371739 99.85589634087246 3.9975471462056333
    vertex 192.33134865122852 99.85589634087246 4.409448354155755
  endloop
endfacet
facet normal -0.0 1.0 -0.0
  outer loop
    vertex 195.89252886432192 99.85589634087246 6.499999999999994
    vertex 192.33134865122852 99.85589634087246 4.409448354155755
    vertex 191.98223474000244 99.85589634087246 4.742335072849184
  endloop
endfacet
facet normal -0.0 1.0 -0.0
  outer loop
    vertex 195.89252886432192 99.85589634087246 6.499999999999994
    vertex 191.98223474000244 99.85589634087246 4.742335072849184
    vertex 191.55885917417285 99.85589634087246 4.973521622528236
  endloop
endfacet
facet normal -0.0 1.0 -0.0
  outer loop
    vertex 195.89252886432192 99.85589634087246 6.499999999999994
    vertex 191.55885917417285 99.85589634087246 4.973521622528236
    vertex 191.09007429888985 99.85589634087246 5.0872530218861405
  endloop
endfacet
facet normal -0.0 1.0 -0.0
  outer loop
    vertex 186.8925288643219 99.85589634087246 0.0
    vertex 190.22619855447104 99.85589634087246 1.5264783774717663
    vertex 195.89252886432192 99.85589634087246 7.049916206369744e-16
  endloop
endfacet
facet normal -0.0 1.0 -0.0
  outer loop
    vertex 190.22619855447104 99.85589634087246 1.5264783774717663
    vertex 186.8925288643219 99.85589634087246 0.0
    vertex 189.80282298864145 99.85589634087246 1.7576649271508165
  endloop
endfacet
facet normal -0.0 1.0 -0.0
  outer loop
    vertex 189.80282298864145 99.85589634087246 1.7576649271508165
    vertex 186.8925288643219 99.85589634087246 0.0
    vertex 189.45370907741537 99.85589634087246 2.090551645844251
  endloop
endfacet
facet normal -0.0 1.0 -0.0
  outer loop
    vertex 189.45370907741537 99.85589634087246 2.090551645844251
    vertex 186.8925288643219 99.85589634087246 0.0
    vertex 189.20308872542853 99.85589634087246 2.501730365917843
  endloop
endfacet
facet normal -0.0 1.0 -0.0
  outer loop
    vertex 189.20308872542853 99.85589634087246 2.501730365917843
    vertex 186.8925288643219 99.85589634087246 0.0
    vertex 189.06669029461554 99.85589634087246 2.9678158965652472
  endloop
endfacet
facet normal -0.0 1.0 -0.0
  outer loop
    vertex 189.06669029461554 99.85589634087246 2.9678158965652472
    vertex 186.8925288643219 99.85589634087246 0.0
    vertex 186.8925288643219 99.85589634087246 19.999999999999996
  endloop
endfacet
facet normal -0.0 1.0 -0.0
  outer loop
    vertex 195.89252886432192 99.85589634087246 7.049916206369744e-16
    vertex 190.22619855447104 99.85589634087246 1.5264783774717663
    vertex 190.69498342975405 99.85589634087246 1.412746978113862
  endloop
endfacet
facet normal -0.0 1.0 -0.0
  outer loop
    vertex 189.20308872542853 99.85589634087246 2.501730365917843
    vertex 189.06669029461554 99.85589634087246 2.9678158965652472
    vertex 189.0985111422015 99.85589634087246 2.8668697145612883
  endloop
endfacet
facet normal -0.0 1.0 -0.0
  outer loop
    vertex 189.06669029461554 99.85589634087246 2.9678158965652472
    vertex 186.8925288643219 99.85589634087246 19.999999999999996
    vertex 189.0552758424358 99.85589634087246 3.4475454345679215
  endloop
endfacet
facet normal -0.0 1.0 -0.0
  outer loop
    vertex 189.0552758424358 99.85589634087246 3.4475454345679215
    vertex 186.8925288643219 99.85589634087246 19.999999999999996
    vertex 189.1690072417937 99.85589634087246 3.916330309850893
  endloop
endfacet
facet normal -0.0 1.0 -0.0
  outer loop
    vertex 189.1690072417937 99.85589634087246 3.916330309850893
    vertex 186.8925288643219 99.85589634087246 19.999999999999996
    vertex 188.8925288643219 99.85589634087246 6.499999999999996
  endloop
endfacet
facet normal -0.0 1.0 -0.0
  outer loop
    vertex 189.1690072417937 99.85589634087246 3.916330309850893
    vertex 188.8925288643219 99.85589634087246 6.499999999999996
    vertex 189.4001937914728 99.85589634087246 4.339705875680516
  endloop
endfacet
facet normal -0.0 1.0 -0.0
  outer loop
    vertex 189.4001937914728 99.85589634087246 4.339705875680516
    vertex 188.8925288643219 99.85589634087246 6.499999999999996
    vertex 189.73308051016616 99.85589634087246 4.688819786906555
  endloop
endfacet
facet normal -0.0 1.0 -0.0
  outer loop
    vertex 189.73308051016616 99.85589634087246 4.688819786906555
    vertex 188.8925288643219 99.85589634087246 6.499999999999996
    vertex 190.14498171811633 99.85589634087246 4.939880507417078
  endloop
endfacet
facet normal -0.0 1.0 -0.0
  outer loop
    vertex 190.14498171811633 99.85589634087246 4.939880507417078
    vertex 188.8925288643219 99.85589634087246 6.499999999999996
    vertex 190.60782702870029 99.85589634087246 5.075778664006682
  endloop
endfacet
facet normal -0.0 1.0 -0.0
  outer loop
    vertex 190.60782702870029 99.85589634087246 5.075778664006682
    vertex 188.8925288643219 99.85589634087246 6.499999999999996
    vertex 191.09007429888985 99.85589634087246 5.0872530218861405
  endloop
endfacet
facet normal -0.0 1.0 -0.0
  outer loop
    vertex 191.09007429888985 99.85589634087246 5.0872530218861405
    vertex 188.8925288643219 99.85589634087246 6.499999999999996
    vertex 195.89252886432192 99.85589634087246 6.499999999999994
  endloop
endfacet
facet normal -0.0 1.0 -0.0
  outer loop
    vertex 188.8925288643219 99.85589634087246 6.499999999999996
    vertex 186.8925288643219 99.85589634087246 19.999999999999996
    vertex 188.8925288643219 99.85589634087246 13.499999999999995
  endloop
endfacet
facet normal -0.0 1.0 -0.0
  outer loop
    vertex 188.8925288643219 99.85589634087246 13.499999999999995
    vertex 186.8925288643219 99.85589634087246 19.999999999999996
    vertex 189.23290039458638 99.85589634087246 15.937500026097439
  endloop
endfacet
facet normal -0.0 1.0 -0.0
  outer loop
    vertex 188.8925288643219 99.85589634087246 13.499999999999995
    vertex 189.23290039458638 99.85589634087246 15.937500026097439
    vertex 189.49974133075105 99.85589634087246 15.535641835586386
  endloop
endfacet
facet normal -0.0 1.0 -0.0
  outer loop
    vertex 188.8925288643219 99.85589634087246 13.499999999999995
    vertex 189.49974133075105 99.85589634087246 15.535641835586386
    vertex 189.8614984356383 99.85589634087246 15.216540147158414
  endloop
endfacet
facet normal -0.0 1.0 -0.0
  outer loop
    vertex 188.8925288643219 99.85589634087246 13.499999999999995
    vertex 189.8614984356383 99.85589634087246 15.216540147158414
    vertex 191.89252886432192 99.85589634087246 13.499999999999995
  endloop
endfacet
facet normal -0.0 1.0 -0.0
  outer loop
    vertex 191.89252886432192 99.85589634087246 13.499999999999995
    vertex 189.8614984356383 99.85589634087246 15.216540147158414
    vertex 190.2935185603821 99.85589634087246 15.001941213539336
  endloop
endfacet
facet normal -0.0 1.0 -0.0
  outer loop
    vertex 191.89252886432192 99.85589634087246 13.499999999999995
    vertex 190.2935185603821 99.85589634087246 15.001941213539336
    vertex 195.89252886432192 99.85589634087246 13.499999999999995
  endloop
endfacet
facet normal -0.0 1.0 -0.0
  outer loop
    vertex 195.89252886432192 99.85589634087246 13.499999999999995
    vertex 190.2935185603821 99.85589634087246 15.001941213539336
    vertex 190.766360247428 99.85589634087246 14.90646959741384
  endloop
endfacet
facet normal -0.0 1.0 -0.0
  outer loop
    vertex 189.23290039458638 99.85589634087246 15.937500026097439
    vertex 186.8925288643219 99.85589634087246 19.999999999999996
    vertex 189.0791603959685 99.85589634087246 16.394728747110168
  endloop
endfacet
facet normal -0.0 1.0 -0.0
  outer loop
    vertex 189.0791603959685 99.85589634087246 16.394728747110168
    vertex 186.8925288643219 99.85589634087246 19.999999999999996
    vertex 189.04896677198906 99.85589634087246 16.876674443457148
  endloop
endfacet
facet normal -0.0 1.0 -0.0
  outer loop
    vertex 189.04896677198906 99.85589634087246 16.876674443457148
    vertex 186.8925288643219 99.85589634087246 19.999999999999996
    vertex 189.1041036875597 99.85589634087246 17.155475170906787
  endloop
endfacet
facet normal -0.0 1.0 -0.0
  outer loop
    vertex 189.1041036875597 99.85589634087246 17.155475170906787
    vertex 186.8925288643219 99.85589634087246 19.999999999999996
    vertex 189.14415914832364 99.85589634087246 17.34838435573322
  endloop
endfacet
facet normal -0.0 1.0 -0.0
  outer loop
    vertex 189.14415914832364 99.85589634087246 17.34838435573322
    vertex 186.8925288643219 99.85589634087246 19.999999999999996
    vertex 189.35906901148033 99.85589634087246 17.781030428683557
  endloop
endfacet
facet normal -0.0 1.0 -0.0
  outer loop
    vertex 189.35906901148033 99.85589634087246 17.781030428683557
    vertex 186.8925288643219 99.85589634087246 19.999999999999996
    vertex 189.67817069990835 99.85589634087246 18.142787533570868
  endloop
endfacet
facet normal -0.0 1.0 -0.0
  outer loop
    vertex 189.67817069990835 99.85589634087246 18.142787533570868
    vertex 186.8925288643219 99.85589634087246 19.999999999999996
    vertex 190.08002889041933 99.85589634087246 18.409628469735523
  endloop
endfacet
facet normal -0.0 1.0 -0.0
  outer loop
    vertex 190.08002889041933 99.85589634087246 18.409628469735523
    vertex 186.8925288643219 99.85589634087246 19.999999999999996
    vertex 190.53725761143212 99.85589634087246 18.56336846835344
  endloop
endfacet
facet normal -0.0 1.0 -0.0
  outer loop
    vertex 190.53725761143212 99.85589634087246 18.56336846835344
    vertex 186.8925288643219 99.85589634087246 19.999999999999996
    vertex 190.90816057543324 99.85589634087246 18.586605328258592
  endloop
endfacet
facet normal -0.0 1.0 -0.0
  outer loop
    vertex 190.90816057543324 99.85589634087246 18.586605328258592
    vertex 186.8925288643219 99.85589634087246 19.999999999999996
    vertex 191.01869748121587 99.85589634087246 18.59353040258615
  endloop
endfacet
facet normal -0.0 1.0 -0.0
  outer loop
    vertex 195.89252886432192 99.85589634087246 13.499999999999995
    vertex 192.42598871716353 99.85589634087246 15.71896957131643
    vertex 195.89252886432192 99.85589634087246 19.999999999999996
  endloop
endfacet
facet normal -0.0 1.0 -0.0
  outer loop
    vertex 192.42598871716353 99.85589634087246 15.71896957131643
    vertex 195.89252886432192 99.85589634087246 13.499999999999995
    vertex 192.1068870287355 99.85589634087246 15.35721246642912
  endloop
endfacet
facet normal -0.0 1.0 -0.0
  outer loop
    vertex 192.1068870287355 99.85589634087246 15.35721246642912
    vertex 195.89252886432192 99.85589634087246 13.499999999999995
    vertex 191.7050288382245 99.85589634087246 15.090371530264463
  endloop
endfacet
facet normal -0.0 1.0 -0.0
  outer loop
    vertex 191.7050288382245 99.85589634087246 15.090371530264463
    vertex 195.89252886432192 99.85589634087246 13.499999999999995
    vertex 191.24780011721174 99.85589634087246 14.936631531646551
  endloop
endfacet
facet normal -0.0 1.0 -0.0
  outer loop
    vertex 191.24780011721174 99.85589634087246 14.936631531646551
    vertex 195.89252886432192 99.85589634087246 13.499999999999995
    vertex 190.766360247428 99.85589634087246 14.90646959741384
  endloop
endfacet
facet normal -0.0 1.0 -0.0
  outer loop
    vertex 195.89252886432192 99.85589634087246 19.999999999999996
    vertex 192.42598871716353 99.85589634087246 15.71896957131643
    vertex 192.64058765078255 99.85589634087246 16.15098969606013
  endloop
endfacet
facet normal -0.0 1.0 -0.0
  outer loop
    vertex 195.89252886432192 99.85589634087246 19.999999999999996
    vertex 192.64058765078255 99.85589634087246 16.15098969606013
    vertex 192.7360592669081 99.85589634087246 16.623831383106094
  endloop
endfacet
facet normal -0.0 1.0 -0.0
  outer loop
    vertex 195.89252886432192 99.85589634087246 19.999999999999996
    vertex 192.7360592669081 99.85589634087246 16.623831383106094
    vertex 192.70722774847184 99.85589634087246 17.084035373158628
  endloop
endfacet
facet normal -0.0 1.0 -0.0
  outer loop
    vertex 195.89252886432192 99.85589634087246 19.999999999999996
    vertex 192.70722774847184 99.85589634087246 17.084035373158628
    vertex 192.69444930321853 99.85589634087246 17.10802205671284
  endloop
endfacet
facet normal -0.0 1.0 -0.0
  outer loop
    vertex 195.89252886432192 99.85589634087246 19.999999999999996
    vertex 192.69444930321853 99.85589634087246 17.10802205671284
    vertex 192.55078390549653 99.85589634087246 17.56456833539245
  endloop
endfacet
facet normal -0.0 1.0 -0.0
  outer loop
    vertex 195.89252886432192 99.85589634087246 19.999999999999996
    vertex 192.55078390549653 99.85589634087246 17.56456833539245
    vertex 192.28531639789279 99.85589634087246 17.964358164413603
  endloop
endfacet
facet normal -0.0 1.0 -0.0
  outer loop
    vertex 195.89252886432192 99.85589634087246 19.999999999999996
    vertex 192.28531639789279 99.85589634087246 17.964358164413603
    vertex 191.92355929300552 99.85589634087246 18.283459852841577
  endloop
endfacet
facet normal -0.0 1.0 -0.0
  outer loop
    vertex 195.89252886432192 99.85589634087246 19.999999999999996
    vertex 191.92355929300552 99.85589634087246 18.283459852841577
    vertex 191.49153916826174 99.85589634087246 18.498058786460653
  endloop
endfacet
facet normal -0.0 1.0 -0.0
  outer loop
    vertex 195.89252886432192 99.85589634087246 19.999999999999996
    vertex 191.49153916826174 99.85589634087246 18.498058786460653
    vertex 191.01869748121587 99.85589634087246 18.59353040258615
  endloop
endfacet
facet normal -0.0 1.0 -0.0
  outer loop
    vertex 195.89252886432192 99.85589634087246 19.999999999999996
    vertex 191.01869748121587 99.85589634087246 18.59353040258615
    vertex 186.8925288643219 99.85589634087246 19.999999999999996
  endloop
endfacet
facet normal -0.0 -0.0 1.0
  outer loop
    vertex 191.89252886432192 96.85589634087245 6.499999999999996
    vertex 188.8925288643219 99.85589634087246 6.499999999999996
    vertex 188.8925288643219 96.85589634087245 6.499999999999996
  endloop
endfacet
facet normal -0.0 -0.0 1.0
  outer loop
    vertex 188.8925288643219 99.85589634087246 6.499999999999996
    vertex 191.89252886432192 96.85589634087245 6.499999999999996
    vertex 191.89252886432192 99.85589634087246 6.499999999999996
  endloop
endfacet
facet normal -0.0 -0.0 1.0
  outer loop
    vertex 191.89252886432192 99.85589634087246 6.499999999999996
    vertex 191.89252886432192 96.85589634087245 6.499999999999996
    vertex 191.89252886432192 99.35589634087246 6.499999999999996
  endloop
endfacet
facet normal 1.0 -0.0 -0.0
  outer loop
    vertex 188.8925288643219 99.85589634087246 6.499999999999996
    vertex 188.8925288643219 96.85589634087245 13.499999999999995
    vertex 188.8925288643219 96.85589634087245 6.499999999999996
  endloop
endfacet
facet normal 1.0 -0.0 -0.0
  outer loop
    vertex 188.8925288643219 96.85589634087245 13.499999999999995
    vertex 188.8925288643219 99.85589634087246 6.499999999999996
    vertex 188.8925288643219 99.85589634087246 13.499999999999995
  endloop
endfacet
facet normal 0.0 0.0 -1.0
  outer loop
    vertex 191.89252886432192 99.85589634087246 13.499999999999995
    vertex 188.8925288643219 96.85589634087245 13.499999999999995
    vertex 188.8925288643219 99.85589634087246 13.499999999999995
  endloop
endfacet
facet normal 0.0 0.0 -1.0
  outer loop
    vertex 188.8925288643219 96.85589634087245 13.499999999999995
    vertex 191.89252886432192 99.85589634087246 13.499999999999995
    vertex 191.89252886432192 96.85589634087245 13.499999999999995
  endloop
endfacet
facet normal 0.0 0.0 -1.0
  outer loop
    vertex 191.89252886432192 96.85589634087245 13.499999999999995
    vertex 191.89252886432192 99.85589634087246 13.499999999999995
    vertex 191.89252886432192 99.35589634087246 13.499999999999995
  endloop
endfacet
facet normal 1.0 -0.0 -0.0
  outer loop
    vertex 195.89252886432192 99.85589634087246 7.049916206369744e-16
    vertex 195.89252886432192 96.85589634087245 19.999999999999996
    vertex 195.89252886432192 96.85589634087245 7.049916206369744e-16
  endloop
endfacet
facet normal 1.0 -0.0 -0.0
  outer loop
    vertex 195.89252886432192 96.85589634087245 19.999999999999996
    vertex 195.89252886432192 99.85589634087246 7.049916206369744e-16
    vertex 195.89252886432192 99.35589634087246 6.499999999999994
  endloop
endfacet
facet normal 1.0 -0.0 -0.0
  outer loop
    vertex 195.89252886432192 99.35589634087246 6.499999999999994
    vertex 195.89252886432192 99.85589634087246 7.049916206369744e-16
    vertex 195.89252886432192 99.85589634087246 6.499999999999994
  endloop
endfacet
facet normal 1.0 -0.0 -0.0
  outer loop
    vertex 195.89252886432192 96.85589634087245 19.999999999999996
    vertex 195.89252886432192 99.35589634087246 13.499999999999995
    vertex 195.89252886432192 99.85589634087246 19.999999999999996
  endloop
endfacet
facet normal 1.0 -0.0 -0.0
  outer loop
    vertex 195.89252886432192 99.35589634087246 13.499999999999995
    vertex 195.89252886432192 96.85589634087245 19.999999999999996
    vertex 195.89252886432192 99.35589634087246 6.499999999999994
  endloop
endfacet
facet normal 1.0 -0.0 -0.0
  outer loop
    vertex 195.89252886432192 99.85589634087246 19.999999999999996
    vertex 195.89252886432192 99.35589634087246 13.499999999999995
    vertex 195.89252886432192 99.85589634087246 13.499999999999995
  endloop
endfacet
facet normal 0.0 0.0 1.0
  outer loop
    vertex 195.89252886432192 96.85589634087245 19.999999999999996
    vertex 186.8925288643219 99.85589634087246 19.999999999999996
    vertex 186.8925288643219 96.85589634087245 19.999999999999996
  endloop
endfacet
facet normal 0.0 0.0 1.0
  outer loop
    vertex 186.8925288643219 99.85589634087246 19.999999999999996
    vertex 195.89252886432192 96.85589634087245 19.999999999999996
    vertex 195.89252886432192 99.85589634087246 19.999999999999996
  endloop
endfacet
facet normal -1.0 -0.0 -0.0
  outer loop
    vertex 186.8925288643219 99.85589634087246 19.999999999999996
    vertex 186.8925288643219 96.85589634087245 0.0
    vertex 186.8925288643219 96.85589634087245 19.999999999999996
  endloop
endfacet
facet normal -1.0 -0.0 -0.0
  outer loop
    vertex 186.8925288643219 96.85589634087245 0.0
    vertex 186.8925288643219 99.85589634087246 19.999999999999996
    vertex 186.8925288643219 99.85589634087246 0.0
  endloop
endfacet
facet normal 7.83324022929969e-17 0.0 -1.0
  outer loop
    vertex 195.89252886432192 99.85589634087246 7.049916206369744e-16
    vertex 186.8925288643219 96.85589634087245 0.0
    vertex 186.8925288643219 99.85589634087246 0.0
  endloop
endfacet
facet normal 7.83324022929969e-17 0.0 -1.0
  outer loop
    vertex 186.8925288643219 96.85589634087245 0.0
    vertex 195.89252886432192 99.85589634087246 7.049916206369744e-16
    vertex 195.89252886432192 96.85589634087245 7.049916206369744e-16
  endloop
endfacet
facet normal -1.0 0.0 0.0
  outer loop
    vertex 191.89252886432192 99.35589634087246 13.499999999999995
    vertex 191.89252886432192 96.85589634087245 6.499999999999996
    vertex 191.89252886432192 96.85589634087245 13.499999999999995
  endloop
endfacet
facet normal -1.0 0.0 0.0
  outer loop
    vertex 191.89252886432192 96.85589634087245 6.499999999999996
    vertex 191.89252886432192 99.35589634087246 13.499999999999995
    vertex 191.89252886432192 99.35589634087246 6.499999999999996
  endloop
endfacet
facet normal -0.5897178587673965 0.0 -0.8076093406163632
  outer loop
    vertex 191.98223474000244 99.85589634087246 4.742335072849184
    vertex 191.55885917417285 96.85589634087246 4.973521622528236
    vertex 191.55885917417285 99.85589634087246 4.973521622528236
  endloop
endfacet
facet normal -0.3605990316531128 0.0 -0.9327209327397116
  outer loop
    vertex 191.55885917417285 96.85589634087246 4.973521622528236
    vertex 191.98223474000244 99.85589634087246 4.742335072849184
    vertex 191.98223474000244 96.85589634087246 4.742335072849184
  endloop
endfacet
facet normal -0.7786483883615287 0.0 -0.6274605065675402
  outer loop
    vertex 192.33134865122852 99.85589634087246 4.409448354155755
    vertex 191.98223474000244 96.85589634087246 4.742335072849184
    vertex 191.98223474000244 99.85589634087246 4.742335072849184
  endloop
endfacet
facet normal -0.5897178587673965 0.0 -0.8076093406163632
  outer loop
    vertex 191.98223474000244 96.85589634087246 4.742335072849184
    vertex 192.33134865122852 99.85589634087246 4.409448354155755
    vertex 192.33134865122852 96.85589634087246 4.409448354155755
  endloop
endfacet
facet normal -0.7786483883615287 0.0 -0.6274605065675402
  outer loop
    vertex 192.33134865122852 99.85589634087246 4.409448354155755
    vertex 192.582409371739 96.85589634087246 3.9975471462056333
    vertex 192.33134865122852 96.85589634087246 4.409448354155755
  endloop
endfacet
facet normal -0.9145153170661126 0.0 -0.40455127592366785
  outer loop
    vertex 192.582409371739 96.85589634087246 3.9975471462056333
    vertex 192.33134865122852 99.85589634087246 4.409448354155755
    vertex 192.582409371739 99.85589634087246 3.9975471462056333
  endloop
endfacet
facet normal -0.9145153170661126 0.0 -0.40455127592366785
  outer loop
    vertex 192.582409371739 99.85589634087246 3.9975471462056333
    vertex 192.7183075283286 96.85589634087246 3.5347018356217017
    vertex 192.582409371739 96.85589634087246 3.9975471462056333
  endloop
endfacet
facet normal -0.9880595382206595 0.0 -0.15407254437821516
  outer loop
    vertex 192.7183075283286 96.85589634087246 3.5347018356217017
    vertex 192.582409371739 99.85589634087246 3.9975471462056333
    vertex 192.7183075283286 99.85589634087246 3.5347018356217017
  endloop
endfacet
facet normal -0.9880595382206595 0.0 -0.15407254437821516
  outer loop
    vertex 192.7183075283286 99.85589634087246 3.5347018356217017
    vertex 192.72979967536472 96.85589634087246 3.051706918173342
    vertex 192.7183075283286 96.85589634087246 3.5347018356217017
  endloop
endfacet
facet normal -0.9945793071892486 0.0 0.10398077567971033
  outer loop
    vertex 192.72979967536472 96.85589634087246 3.051706918173342
    vertex 192.7183075283286 99.85589634087246 3.5347018356217017
    vertex 192.72979967536472 99.85589634087246 3.051706918173342
  endloop
endfacet
facet normal -0.9945793071892486 0.0 0.10398077567971033
  outer loop
    vertex 192.72979967536472 99.85589634087246 3.051706918173342
    vertex 192.68297725595315 96.85589634087246 2.853632702857832
    vertex 192.72979967536472 96.85589634087246 3.051706918173342
  endloop
endfacet
facet normal -0.9719741720232127 0.0 0.2350876622024016
  outer loop
    vertex 192.68297725595315 96.85589634087246 2.853632702857832
    vertex 192.72979967536472 99.85589634087246 3.051706918173342
    vertex 192.68297725595315 99.85589634087246 2.853632702857832
  endloop
endfacet
facet normal -0.9719741720232127 0.0 0.2350876622024016
  outer loop
    vertex 192.68297725595315 99.85589634087246 2.853632702857832
    vertex 192.6163234429229 96.85589634087246 2.58416955889963
    vertex 192.68297725595315 96.85589634087246 2.853632702857832
  endloop
endfacet
facet normal -0.9319108528681714 0.0 0.36268741680201366
  outer loop
    vertex 192.6163234429229 96.85589634087246 2.58416955889963
    vertex 192.68297725595315 99.85589634087246 2.853632702857832
    vertex 192.6163234429229 99.85589634087246 2.58416955889963
  endloop
endfacet
facet normal -0.9319108528681714 0.0 0.36268741680201366
  outer loop
    vertex 192.6163234429229 99.85589634087246 2.58416955889963
    vertex 192.3848639371711 96.85589634087246 2.1602941243194835
    vertex 192.6163234429229 96.85589634087246 2.58416955889963
  endloop
endfacet
facet normal -0.8076093406163644 0.0 0.5897178587673952
  outer loop
    vertex 192.3848639371711 96.85589634087246 2.1602941243194835
    vertex 192.6163234429229 99.85589634087246 2.58416955889963
    vertex 192.3848639371711 99.85589634087246 2.1602941243194835
  endloop
endfacet
facet normal -0.8076093406163644 0.0 0.5897178587673952
  outer loop
    vertex 192.3848639371711 99.85589634087246 2.1602941243194835
    vertex 192.05197721847773 96.85589634087246 1.8111802130934487
    vertex 192.3848639371711 96.85589634087246 2.1602941243194835
  endloop
endfacet
facet normal -0.6274605065675433 0.0 0.778648388361526
  outer loop
    vertex 192.05197721847773 96.85589634087246 1.8111802130934487
    vertex 192.3848639371711 99.85589634087246 2.1602941243194835
    vertex 192.05197721847773 99.85589634087246 1.8111802130934487
  endloop
endfacet
facet normal -0.6274605065675433 0.0 0.778648388361526
  outer loop
    vertex 192.05197721847773 96.85589634087246 1.8111802130934487
    vertex 191.64007601052754 99.85589634087246 1.560119492582923
    vertex 191.64007601052754 96.85589634087246 1.560119492582923
  endloop
endfacet
facet normal -0.4045512759236628 0.0 0.914515317066115
  outer loop
    vertex 191.64007601052754 99.85589634087246 1.560119492582923
    vertex 192.05197721847773 96.85589634087246 1.8111802130934487
    vertex 192.05197721847773 99.85589634087246 1.8111802130934487
  endloop
endfacet
facet normal -0.4045512759236628 0.0 0.914515317066115
  outer loop
    vertex 191.64007601052754 96.85589634087246 1.560119492582923
    vertex 191.1772306999436 99.85589634087246 1.4242213359933202
    vertex 191.1772306999436 96.85589634087246 1.4242213359933202
  endloop
endfacet
facet normal -0.1540725443781906 0.0 0.9880595382206634
  outer loop
    vertex 191.1772306999436 99.85589634087246 1.4242213359933202
    vertex 191.64007601052754 96.85589634087246 1.560119492582923
    vertex 191.64007601052754 99.85589634087246 1.560119492582923
  endloop
endfacet
facet normal -0.1540725443781906 0.0 0.9880595382206634
  outer loop
    vertex 191.1772306999436 96.85589634087246 1.4242213359933202
    vertex 190.886582168524 99.85589634087246 1.4173057856671627
    vertex 190.886582168524 96.85589634087246 1.4173057856671627
  endloop
endfacet
facet normal -0.02378678319189924 -0.0 0.999717054443597
  outer loop
    vertex 190.886582168524 99.85589634087246 1.4173057856671627
    vertex 191.1772306999436 96.85589634087246 1.4242213359933202
    vertex 191.1772306999436 99.85589634087246 1.4242213359933202
  endloop
endfacet
facet normal -0.023786783191895127 -0.0 0.9997170544435972
  outer loop
    vertex 190.886582168524 96.85589634087246 1.4173057856671627
    vertex 190.69498342975405 99.85589634087246 1.412746978113862
    vertex 190.69498342975405 96.85589634087246 1.412746978113862
  endloop
endfacet
facet normal 0.10690597644975161 0.0 0.9942691346910681
  outer loop
    vertex 190.69498342975405 99.85589634087246 1.412746978113862
    vertex 190.886582168524 96.85589634087246 1.4173057856671627
    vertex 190.886582168524 99.85589634087246 1.4173057856671627
  endloop
endfacet
facet normal 0.10690597644975161 0.0 0.9942691346910681
  outer loop
    vertex 190.69498342975405 96.85589634087246 1.412746978113862
    vertex 190.22619855447104 99.85589634087246 1.5264783774717663
    vertex 190.22619855447104 96.85589634087246 1.5264783774717663
  endloop
endfacet
facet normal 0.36059903165311163 0.0 0.9327209327397119
  outer loop
    vertex 190.22619855447104 99.85589634087246 1.5264783774717663
    vertex 190.69498342975405 96.85589634087246 1.412746978113862
    vertex 190.69498342975405 99.85589634087246 1.412746978113862
  endloop
endfacet
facet normal 0.36059903165311163 0.0 0.9327209327397119
  outer loop
    vertex 190.22619855447104 96.85589634087246 1.5264783774717663
    vertex 189.80282298864145 99.85589634087246 1.7576649271508165
    vertex 189.80282298864145 96.85589634087246 1.7576649271508165
  endloop
endfacet
facet normal 0.5897178587673984 0.0 0.8076093406163618
  outer loop
    vertex 189.80282298864145 99.85589634087246 1.7576649271508165
    vertex 190.22619855447104 96.85589634087246 1.5264783774717663
    vertex 190.22619855447104 99.85589634087246 1.5264783774717663
  endloop
endfacet
facet normal 0.5897178587673984 0.0 0.8076093406163618
  outer loop
    vertex 189.80282298864145 96.85589634087246 1.7576649271508165
    vertex 189.45370907741537 99.85589634087246 2.090551645844251
    vertex 189.45370907741537 96.85589634087246 2.090551645844251
  endloop
endfacet
facet normal 0.77864838836152 0.0 0.6274605065675509
  outer loop
    vertex 189.45370907741537 99.85589634087246 2.090551645844251
    vertex 189.80282298864145 96.85589634087246 1.7576649271508165
    vertex 189.80282298864145 99.85589634087246 1.7576649271508165
  endloop
endfacet
facet normal 0.77864838836152 0.0 0.6274605065675509
  outer loop
    vertex 189.45370907741537 99.85589634087246 2.090551645844251
    vertex 189.20308872542853 96.85589634087246 2.501730365917843
    vertex 189.45370907741537 96.85589634087246 2.090551645844251
  endloop
endfacet
facet normal 0.9158555271997791 0.0 0.4015079741395114
  outer loop
    vertex 189.20308872542853 96.85589634087246 2.501730365917843
    vertex 189.45370907741537 99.85589634087246 2.090551645844251
    vertex 189.20308872542853 99.85589634087246 2.501730365917843
  endloop
endfacet
facet normal 0.9158555271997791 0.0 0.4015079741395114
  outer loop
    vertex 189.20308872542853 99.85589634087246 2.501730365917843
    vertex 189.0985111422015 96.85589634087246 2.8668697145612883
    vertex 189.20308872542853 96.85589634087246 2.501730365917843
  endloop
endfacet
facet normal 0.9576262834551075 0.0 0.2880137170968742
  outer loop
    vertex 189.0985111422015 96.85589634087246 2.8668697145612883
    vertex 189.20308872542853 99.85589634087246 2.501730365917843
    vertex 189.0985111422015 99.85589634087246 2.8668697145612883
  endloop
endfacet
facet normal 0.9576262834551075 0.0 0.2880137170968742
  outer loop
    vertex 189.0985111422015 99.85589634087246 2.8668697145612883
    vertex 189.06669029461554 96.85589634087246 2.9678158965652472
    vertex 189.0985111422015 96.85589634087246 2.8668697145612883
  endloop
endfacet
facet normal 0.9864876380919706 0.0 0.16383571006262704
  outer loop
    vertex 189.06669029461554 96.85589634087246 2.9678158965652472
    vertex 189.0985111422015 99.85589634087246 2.8668697145612883
    vertex 189.06669029461554 99.85589634087246 2.9678158965652472
  endloop
endfacet
facet normal 0.9864876380919706 0.0 0.16383571006262704
  outer loop
    vertex 189.06669029461554 99.85589634087246 2.9678158965652472
    vertex 189.0552758424358 96.85589634087246 3.4475454345679215
    vertex 189.06669029461554 96.85589634087246 2.9678158965652472
  endloop
endfacet
facet normal 0.9942691346910675 0.0 -0.10690597644975722
  outer loop
    vertex 189.0552758424358 96.85589634087246 3.4475454345679215
    vertex 189.06669029461554 99.85589634087246 2.9678158965652472
    vertex 189.0552758424358 99.85589634087246 3.4475454345679215
  endloop
endfacet
facet normal 0.9942691346910675 0.0 -0.10690597644975722
  outer loop
    vertex 189.0552758424358 99.85589634087246 3.4475454345679215
    vertex 189.1690072417937 96.85589634087246 3.916330309850893
    vertex 189.0552758424358 96.85589634087246 3.4475454345679215
  endloop
endfacet
facet normal 0.9327209327397074 0.0 -0.3605990316531234
  outer loop
    vertex 189.1690072417937 96.85589634087246 3.916330309850893
    vertex 189.0552758424358 99.85589634087246 3.4475454345679215
    vertex 189.1690072417937 99.85589634087246 3.916330309850893
  endloop
endfacet
facet normal 0.9327209327397074 0.0 -0.3605990316531234
  outer loop
    vertex 189.1690072417937 99.85589634087246 3.916330309850893
    vertex 189.4001937914728 96.85589634087246 4.339705875680516
    vertex 189.1690072417937 96.85589634087246 3.916330309850893
  endloop
endfacet
facet normal 0.807609340616367 0.0 -0.5897178587673915
  outer loop
    vertex 189.4001937914728 96.85589634087246 4.339705875680516
    vertex 189.1690072417937 99.85589634087246 3.916330309850893
    vertex 189.4001937914728 99.85589634087246 4.339705875680516
  endloop
endfacet
facet normal 0.807609340616367 0.0 -0.5897178587673915
  outer loop
    vertex 189.4001937914728 99.85589634087246 4.339705875680516
    vertex 189.73308051016616 96.85589634087246 4.688819786906555
    vertex 189.4001937914728 96.85589634087246 4.339705875680516
  endloop
endfacet
facet normal 0.6274605065675529 0.0 -0.7786483883615182
  outer loop
    vertex 189.73308051016616 96.85589634087246 4.688819786906555
    vertex 189.4001937914728 99.85589634087246 4.339705875680516
    vertex 189.73308051016616 99.85589634087246 4.688819786906555
  endloop
endfacet
facet normal 0.0 -0.0 -1.0
  outer loop
    vertex 195.89252886432192 99.85589634087246 13.499999999999995
    vertex 191.89252886432192 99.35589634087246 13.499999999999995
    vertex 191.89252886432192 99.85589634087246 13.499999999999995
  endloop
endfacet
facet normal 0.0 -0.0 -1.0
  outer loop
    vertex 191.89252886432192 99.35589634087246 13.499999999999995
    vertex 195.89252886432192 99.85589634087246 13.499999999999995
    vertex 195.89252886432192 99.35589634087246 13.499999999999995
  endloop
endfacet
facet normal 3.524958103184878e-16 0.0 1.0
  outer loop
    vertex 195.89252886432192 99.35589634087246 6.499999999999994
    vertex 191.89252886432192 99.85589634087246 6.499999999999996
    vertex 191.89252886432192 99.35589634087246 6.499999999999996
  endloop
endfacet
facet normal 3.524958103184878e-16 0.0 1.0
  outer loop
    vertex 191.89252886432192 99.85589634087246 6.499999999999996
    vertex 195.89252886432192 99.35589634087246 6.499999999999994
    vertex 195.89252886432192 99.85589634087246 6.499999999999994
  endloop
endfacet
facet normal 0.0 1.0 0.0
  outer loop
    vertex 191.89252886432192 99.35589634087246 6.499999999999996
    vertex 195.89252886432192 99.35589634087246 13.499999999999995
    vertex 195.89252886432192 99.35589634087246 6.499999999999994
  endloop
endfacet
facet normal 0.0 1.0 0.0
  outer loop
    vertex 195.89252886432192 99.35589634087246 13.499999999999995
    vertex 191.89252886432192 99.35589634087246 6.499999999999996
    vertex 191.89252886432192 99.35589634087246 13.499999999999995
  endloop
endfacet
facet normal 0.4045512759236669 0.0 -0.9145153170661129
  outer loop
    vertex 190.14498171811633 99.85589634087246 4.939880507417078
    vertex 189.73308051016616 96.85589634087246 4.688819786906555
    vertex 189.73308051016616 99.85589634087246 4.688819786906555
  endloop
endfacet
facet normal 0.6274605065675529 0.0 -0.7786483883615182
  outer loop
    vertex 189.73308051016616 96.85589634087246 4.688819786906555
    vertex 190.14498171811633 99.85589634087246 4.939880507417078
    vertex 190.14498171811633 96.85589634087246 4.939880507417078
  endloop
endfacet
facet normal 0.15407254437818466 0.0 -0.9880595382206644
  outer loop
    vertex 190.60782702870029 99.85589634087246 5.075778664006682
    vertex 190.14498171811633 96.85589634087246 4.939880507417078
    vertex 190.14498171811633 99.85589634087246 4.939880507417078
  endloop
endfacet
facet normal 0.4045512759236669 0.0 -0.9145153170661129
  outer loop
    vertex 190.14498171811633 96.85589634087246 4.939880507417078
    vertex 190.60782702870029 99.85589634087246 5.075778664006682
    vertex 190.60782702870029 96.85589634087246 5.075778664006682
  endloop
endfacet
facet normal -0.1069059764497498 0.0 -0.9942691346910681
  outer loop
    vertex 191.09007429888985 99.85589634087246 5.0872530218861405
    vertex 190.60782702870029 96.85589634087246 5.075778664006682
    vertex 190.60782702870029 99.85589634087246 5.075778664006682
  endloop
endfacet
facet normal 0.15407254437818466 0.0 -0.9880595382206644
  outer loop
    vertex 190.60782702870029 96.85589634087246 5.075778664006682
    vertex 191.09007429888985 99.85589634087246 5.0872530218861405
    vertex 191.09007429888985 96.85589634087246 5.0872530218861405
  endloop
endfacet
facet normal -0.3605990316531128 0.0 -0.9327209327397116
  outer loop
    vertex 191.55885917417285 99.85589634087246 4.973521622528236
    vertex 191.09007429888985 96.85589634087246 5.0872530218861405
    vertex 191.09007429888985 99.85589634087246 5.0872530218861405
  endloop
endfacet
facet normal -0.1069059764497498 0.0 -0.9942691346910681
  outer loop
    vertex 191.09007429888985 96.85589634087246 5.0872530218861405
    vertex 191.55885917417285 99.85589634087246 4.973521622528236
    vertex 191.55885917417285 96.85589634087246 4.973521622528236
  endloop
endfacet
facet normal 0.8298649030948675 0.0 -0.5579643739624834
  outer loop
    vertex 189.35906901148033 99.85589634087246 17.781030428683557
    vertex 189.67817069990835 96.85589634087246 18.142787533570868
    vertex 189.35906901148033 96.85589634087246 17.781030428683557
  endloop
endfacet
facet normal 0.6571761357600134 0.0 -0.7537370407426827
  outer loop
    vertex 189.67817069990835 96.85589634087246 18.142787533570868
    vertex 189.35906901148033 99.85589634087246 17.781030428683557
    vertex 189.67817069990835 99.85589634087246 18.142787533570868
  endloop
endfacet
facet normal 0.43970190080803806 0.0 -0.8981437738056186
  outer loop
    vertex 190.08002889041933 99.85589634087246 18.409628469735523
    vertex 189.67817069990835 96.85589634087246 18.142787533570868
    vertex 189.67817069990835 99.85589634087246 18.142787533570868
  endloop
endfacet
facet normal 0.6571761357600134 0.0 -0.7537370407426827
  outer loop
    vertex 189.67817069990835 96.85589634087246 18.142787533570868
    vertex 190.08002889041933 99.85589634087246 18.409628469735523
    vertex 190.08002889041933 96.85589634087246 18.409628469735523
  endloop
endfacet
facet normal 0.19226270795772948 0.0 -0.9813434929364747
  outer loop
    vertex 190.53725761143212 99.85589634087246 18.56336846835344
    vertex 190.08002889041933 96.85589634087246 18.409628469735523
    vertex 190.08002889041933 99.85589634087246 18.409628469735523
  endloop
endfacet
facet normal 0.43970190080803806 0.0 -0.8981437738056186
  outer loop
    vertex 190.08002889041933 96.85589634087246 18.409628469735523
    vertex 190.53725761143212 99.85589634087246 18.56336846835344
    vertex 190.53725761143212 96.85589634087246 18.56336846835344
  endloop
endfacet
facet normal 0.06252684444557519 -0.0 -0.9980432824901327
  outer loop
    vertex 190.90816057543324 99.85589634087246 18.586605328258592
    vertex 190.53725761143212 96.85589634087246 18.56336846835344
    vertex 190.53725761143212 99.85589634087246 18.56336846835344
  endloop
endfacet
facet normal 0.19226270795772948 0.0 -0.9813434929364747
  outer loop
    vertex 190.53725761143212 96.85589634087246 18.56336846835344
    vertex 190.90816057543324 99.85589634087246 18.586605328258592
    vertex 190.90816057543324 96.85589634087246 18.586605328258592
  endloop
endfacet
facet normal -0.06827887071074908 0.0 -0.9976662747705091
  outer loop
    vertex 191.01869748121587 99.85589634087246 18.59353040258615
    vertex 190.90816057543324 96.85589634087246 18.586605328258592
    vertex 190.90816057543324 99.85589634087246 18.586605328258592
  endloop
endfacet
facet normal 0.06252684444558015 -0.0 -0.9980432824901324
  outer loop
    vertex 190.90816057543324 96.85589634087246 18.586605328258592
    vertex 191.01869748121587 99.85589634087246 18.59353040258615
    vertex 191.01869748121587 96.85589634087246 18.59353040258615
  endloop
endfacet
facet normal -0.324167357176455 0.0 -0.9459997487004067
  outer loop
    vertex 191.49153916826174 99.85589634087246 18.498058786460653
    vertex 191.01869748121587 96.85589634087246 18.59353040258615
    vertex 191.01869748121587 99.85589634087246 18.59353040258615
  endloop
endfacet
facet normal -0.06827887071074908 0.0 -0.9976662747705091
  outer loop
    vertex 191.01869748121587 96.85589634087246 18.59353040258615
    vertex 191.49153916826174 99.85589634087246 18.498058786460653
    vertex 191.49153916826174 96.85589634087246 18.498058786460653
  endloop
endfacet
facet normal -0.5579643739624749 0.0 -0.8298649030948734
  outer loop
    vertex 191.92355929300552 99.85589634087246 18.283459852841577
    vertex 191.49153916826174 96.85589634087246 18.498058786460653
    vertex 191.49153916826174 99.85589634087246 18.498058786460653
  endloop
endfacet
facet normal -0.324167357176455 0.0 -0.9459997487004067
  outer loop
    vertex 191.49153916826174 96.85589634087246 18.498058786460653
    vertex 191.92355929300552 99.85589634087246 18.283459852841577
    vertex 191.92355929300552 96.85589634087246 18.283459852841577
  endloop
endfacet
facet normal -0.7537370407426889 0.0 -0.6571761357600062
  outer loop
    vertex 192.28531639789279 99.85589634087246 17.964358164413603
    vertex 191.92355929300552 96.85589634087246 18.283459852841577
    vertex 191.92355929300552 99.85589634087246 18.283459852841577
  endloop
endfacet
facet normal -0.5579643739624749 0.0 -0.8298649030948734
  outer loop
    vertex 191.92355929300552 96.85589634087246 18.283459852841577
    vertex 192.28531639789279 99.85589634087246 17.964358164413603
    vertex 192.28531639789279 96.85589634087246 17.964358164413603
  endloop
endfacet
facet normal -0.7537370407426889 0.0 -0.6571761357600062
  outer loop
    vertex 192.28531639789279 99.85589634087246 17.964358164413603
    vertex 192.55078390549653 96.85589634087246 17.56456833539245
    vertex 192.28531639789279 96.85589634087246 17.964358164413603
  endloop
endfacet
facet normal -0.9023877929828575 0.0 -0.43092490189768234
  outer loop
    vertex 192.55078390549653 96.85589634087246 17.56456833539245
    vertex 192.28531639789279 99.85589634087246 17.964358164413603
    vertex 192.55078390549653 99.85589634087246 17.56456833539245
  endloop
endfacet
facet normal -0.9023877929828575 0.0 -0.43092490189768234
  outer loop
    vertex 192.55078390549653 99.85589634087246 17.56456833539245
    vertex 192.69444930321853 96.85589634087246 17.10802205671284
    vertex 192.55078390549653 96.85589634087246 17.56456833539245
  endloop
endfacet
facet normal -0.9221561416980348 0.0 -0.3868178516157105
  outer loop
    vertex 192.69444930321853 96.85589634087246 17.10802205671284
    vertex 192.55078390549653 99.85589634087246 17.56456833539245
    vertex 192.69444930321853 99.85589634087246 17.10802205671284
  endloop
endfacet
facet normal -0.9221561416980348 0.0 -0.3868178516157105
  outer loop
    vertex 192.69444930321853 99.85589634087246 17.10802205671284
    vertex 192.70722774847184 96.85589634087246 17.084035373158628
    vertex 192.69444930321853 96.85589634087246 17.10802205671284
  endloop
endfacet
facet normal -0.9621455699909182 0.0 -0.27253605659958297
  outer loop
    vertex 192.70722774847184 96.85589634087246 17.084035373158628
    vertex 192.69444930321853 99.85589634087246 17.10802205671284
    vertex 192.70722774847184 99.85589634087246 17.084035373158628
  endloop
endfacet
facet normal -0.9621455699909182 0.0 -0.27253605659958297
  outer loop
    vertex 192.70722774847184 99.85589634087246 17.084035373158628
    vertex 192.7360592669081 96.85589634087246 16.623831383106094
    vertex 192.70722774847184 96.85589634087246 17.084035373158628
  endloop
endfacet
facet normal -0.9976662747705097 0.0 0.06827887071074008
  outer loop
    vertex 192.7360592669081 96.85589634087246 16.623831383106094
    vertex 192.70722774847184 99.85589634087246 17.084035373158628
    vertex 192.7360592669081 99.85589634087246 16.623831383106094
  endloop
endfacet
facet normal -0.9976662747705097 0.0 0.06827887071074008
  outer loop
    vertex 192.7360592669081 99.85589634087246 16.623831383106094
    vertex 192.64058765078255 96.85589634087246 16.15098969606013
    vertex 192.7360592669081 96.85589634087246 16.623831383106094
  endloop
endfacet
facet normal -0.9459997487004023 0.0 0.32416735717646794
  outer loop
    vertex 192.64058765078255 96.85589634087246 16.15098969606013
    vertex 192.7360592669081 99.85589634087246 16.623831383106094
    vertex 192.64058765078255 99.85589634087246 16.15098969606013
  endloop
endfacet
facet normal -0.9459997487004023 0.0 0.32416735717646794
  outer loop
    vertex 192.64058765078255 99.85589634087246 16.15098969606013
    vertex 192.42598871716353 96.85589634087246 15.71896957131643
    vertex 192.64058765078255 96.85589634087246 16.15098969606013
  endloop
endfacet
facet normal -0.8298649030948718 0.0 0.557964373962477
  outer loop
    vertex 192.42598871716353 96.85589634087246 15.71896957131643
    vertex 192.64058765078255 99.85589634087246 16.15098969606013
    vertex 192.42598871716353 99.85589634087246 15.71896957131643
  endloop
endfacet
facet normal -0.8298649030948718 0.0 0.557964373962477
  outer loop
    vertex 192.42598871716353 99.85589634087246 15.71896957131643
    vertex 192.1068870287355 96.85589634087246 15.35721246642912
    vertex 192.42598871716353 96.85589634087246 15.71896957131643
  endloop
endfacet
facet normal -0.657176135760015 0.0 0.7537370407426814
  outer loop
    vertex 192.1068870287355 96.85589634087246 15.35721246642912
    vertex 192.42598871716353 99.85589634087246 15.71896957131643
    vertex 192.1068870287355 99.85589634087246 15.35721246642912
  endloop
endfacet
facet normal -0.657176135760015 0.0 0.7537370407426814
  outer loop
    vertex 192.1068870287355 96.85589634087246 15.35721246642912
    vertex 191.7050288382245 99.85589634087246 15.090371530264463
    vertex 191.7050288382245 96.85589634087246 15.090371530264463
  endloop
endfacet
facet normal -0.43970190080803556 0.0 0.8981437738056199
  outer loop
    vertex 191.7050288382245 99.85589634087246 15.090371530264463
    vertex 192.1068870287355 96.85589634087246 15.35721246642912
    vertex 192.1068870287355 99.85589634087246 15.35721246642912
  endloop
endfacet
facet normal -0.43970190080803556 0.0 0.8981437738056199
  outer loop
    vertex 191.7050288382245 96.85589634087246 15.090371530264463
    vertex 191.24780011721174 99.85589634087246 14.936631531646551
    vertex 191.24780011721174 96.85589634087246 14.936631531646551
  endloop
endfacet
facet normal -0.19226270795772737 0.0 0.9813434929364753
  outer loop
    vertex 191.24780011721174 99.85589634087246 14.936631531646551
    vertex 191.7050288382245 96.85589634087246 15.090371530264463
    vertex 191.7050288382245 99.85589634087246 15.090371530264463
  endloop
endfacet
facet normal -0.19226270795772737 0.0 0.9813434929364753
  outer loop
    vertex 191.24780011721174 96.85589634087246 14.936631531646551
    vertex 190.766360247428 99.85589634087246 14.90646959741384
    vertex 190.766360247428 96.85589634087246 14.90646959741384
  endloop
endfacet
facet normal 0.06827887071075099 0.0 0.997666274770509
  outer loop
    vertex 190.766360247428 99.85589634087246 14.90646959741384
    vertex 191.24780011721174 96.85589634087246 14.936631531646551
    vertex 191.24780011721174 99.85589634087246 14.936631531646551
  endloop
endfacet
facet normal 0.06827887071075099 0.0 0.997666274770509
  outer loop
    vertex 190.766360247428 96.85589634087246 14.90646959741384
    vertex 190.2935185603821 99.85589634087246 15.001941213539336
    vertex 190.2935185603821 96.85589634087246 15.001941213539336
  endloop
endfacet
facet normal 0.324167357176455 0.0 0.9459997487004067
  outer loop
    vertex 190.2935185603821 99.85589634087246 15.001941213539336
    vertex 190.766360247428 96.85589634087246 14.90646959741384
    vertex 190.766360247428 99.85589634087246 14.90646959741384
  endloop
endfacet
facet normal 0.324167357176455 0.0 0.9459997487004067
  outer loop
    vertex 190.2935185603821 96.85589634087246 15.001941213539336
    vertex 189.8614984356383 99.85589634087246 15.216540147158414
    vertex 189.8614984356383 96.85589634087246 15.216540147158414
  endloop
endfacet
facet normal 0.5579643739624749 0.0 0.8298649030948734
  outer loop
    vertex 189.8614984356383 99.85589634087246 15.216540147158414
    vertex 190.2935185603821 96.85589634087246 15.001941213539336
    vertex 190.2935185603821 99.85589634087246 15.001941213539336
  endloop
endfacet
facet normal 0.5579643739624749 0.0 0.8298649030948734
  outer loop
    vertex 189.8614984356383 96.85589634087246 15.216540147158414
    vertex 189.49974133075105 99.85589634087246 15.535641835586386
    vertex 189.49974133075105 96.85589634087246 15.535641835586386
  endloop
endfacet
facet normal 0.7537370407426845 0.0 0.6571761357600113
  outer loop
    vertex 189.49974133075105 99.85589634087246 15.535641835586386
    vertex 189.8614984356383 96.85589634087246 15.216540147158414
    vertex 189.8614984356383 99.85589634087246 15.216540147158414
  endloop
endfacet
facet normal 0.7537370407426845 0.0 0.6571761357600113
  outer loop
    vertex 189.49974133075105 99.85589634087246 15.535641835586386
    vertex 189.23290039458638 96.85589634087246 15.937500026097439
    vertex 189.49974133075105 96.85589634087246 15.535641835586386
  endloop
endfacet
facet normal 0.8981437738056309 0.0 0.43970190080801297
  outer loop
    vertex 189.23290039458638 96.85589634087246 15.937500026097439
    vertex 189.49974133075105 99.85589634087246 15.535641835586386
    vertex 189.23290039458638 99.85589634087246 15.937500026097439
  endloop
endfacet
facet normal 0.8981437738056309 0.0 0.43970190080801297
  outer loop
    vertex 189.23290039458638 99.85589634087246 15.937500026097439
    vertex 189.0791603959685 96.85589634087246 16.394728747110168
    vertex 189.23290039458638 96.85589634087246 15.937500026097439
  endloop
endfacet
facet normal 0.9813434929364762 0.0 0.19226270795772238
  outer loop
    vertex 189.0791603959685 96.85589634087246 16.394728747110168
    vertex 189.23290039458638 99.85589634087246 15.937500026097439
    vertex 189.0791603959685 99.85589634087246 16.394728747110168
  endloop
endfacet
facet normal 0.9813434929364762 0.0 0.19226270795772238
  outer loop
    vertex 189.0791603959685 99.85589634087246 16.394728747110168
    vertex 189.04896677198906 96.85589634087246 16.876674443457148
    vertex 189.0791603959685 96.85589634087246 16.394728747110168
  endloop
endfacet
facet normal 0.9978003899525687 0.0 -0.06629013358337632
  outer loop
    vertex 189.04896677198906 96.85589634087246 16.876674443457148
    vertex 189.0791603959685 99.85589634087246 16.394728747110168
    vertex 189.04896677198906 99.85589634087246 16.876674443457148
  endloop
endfacet
facet normal 0.9978003899525687 0.0 -0.06629013358337632
  outer loop
    vertex 189.04896677198906 99.85589634087246 16.876674443457148
    vertex 189.1041036875597 96.85589634087246 17.155475170906787
    vertex 189.04896677198906 96.85589634087246 16.876674443457148
  endloop
endfacet
facet normal 0.9800690592447674 0.0 -0.19865708925451595
  outer loop
    vertex 189.1041036875597 96.85589634087246 17.155475170906787
    vertex 189.04896677198906 99.85589634087246 16.876674443457148
    vertex 189.1041036875597 99.85589634087246 17.155475170906787
  endloop
endfacet
facet normal 0.9800690592447674 0.0 -0.19865708925451595
  outer loop
    vertex 189.1041036875597 99.85589634087246 17.155475170906787
    vertex 189.14415914832364 96.85589634087246 17.34838435573322
    vertex 189.1041036875597 96.85589634087246 17.155475170906787
  endloop
endfacet
facet normal 0.9451050278428303 0.0 -0.326766715480942
  outer loop
    vertex 189.14415914832364 96.85589634087246 17.34838435573322
    vertex 189.1041036875597 99.85589634087246 17.155475170906787
    vertex 189.14415914832364 99.85589634087246 17.34838435573322
  endloop
endfacet
facet normal 0.9451050278428303 0.0 -0.326766715480942
  outer loop
    vertex 189.14415914832364 99.85589634087246 17.34838435573322
    vertex 189.35906901148033 96.85589634087246 17.781030428683557
    vertex 189.14415914832364 96.85589634087246 17.34838435573322
  endloop
endfacet
facet normal 0.8298649030948675 0.0 -0.5579643739624834
  outer loop
    vertex 189.35906901148033 96.85589634087246 17.781030428683557
    vertex 189.14415914832364 99.85589634087246 17.34838435573322
    vertex 189.35906901148033 99.85589634087246 17.781030428683557
  endloop
endfacet
endsolid Carros laterales definitivos
